%TF.GenerationSoftware,KiCad,Pcbnew,7.0.1*%
%TF.CreationDate,2023-09-30T16:00:22-04:00*%
%TF.ProjectId,usb_demonstrator,7573625f-6465-46d6-9f6e-73747261746f,rev?*%
%TF.SameCoordinates,Original*%
%TF.FileFunction,Legend,Bot*%
%TF.FilePolarity,Positive*%
%FSLAX46Y46*%
G04 Gerber Fmt 4.6, Leading zero omitted, Abs format (unit mm)*
G04 Created by KiCad (PCBNEW 7.0.1) date 2023-09-30 16:00:22*
%MOMM*%
%LPD*%
G01*
G04 APERTURE LIST*
%ADD10C,0.150000*%
%ADD11C,0.300000*%
G04 APERTURE END LIST*
D10*
X177561904Y-101437619D02*
X177561904Y-102247142D01*
X177561904Y-102247142D02*
X177514285Y-102342380D01*
X177514285Y-102342380D02*
X177466666Y-102390000D01*
X177466666Y-102390000D02*
X177371428Y-102437619D01*
X177371428Y-102437619D02*
X177180952Y-102437619D01*
X177180952Y-102437619D02*
X177085714Y-102390000D01*
X177085714Y-102390000D02*
X177038095Y-102342380D01*
X177038095Y-102342380D02*
X176990476Y-102247142D01*
X176990476Y-102247142D02*
X176990476Y-101437619D01*
X176561904Y-102390000D02*
X176419047Y-102437619D01*
X176419047Y-102437619D02*
X176180952Y-102437619D01*
X176180952Y-102437619D02*
X176085714Y-102390000D01*
X176085714Y-102390000D02*
X176038095Y-102342380D01*
X176038095Y-102342380D02*
X175990476Y-102247142D01*
X175990476Y-102247142D02*
X175990476Y-102151904D01*
X175990476Y-102151904D02*
X176038095Y-102056666D01*
X176038095Y-102056666D02*
X176085714Y-102009047D01*
X176085714Y-102009047D02*
X176180952Y-101961428D01*
X176180952Y-101961428D02*
X176371428Y-101913809D01*
X176371428Y-101913809D02*
X176466666Y-101866190D01*
X176466666Y-101866190D02*
X176514285Y-101818571D01*
X176514285Y-101818571D02*
X176561904Y-101723333D01*
X176561904Y-101723333D02*
X176561904Y-101628095D01*
X176561904Y-101628095D02*
X176514285Y-101532857D01*
X176514285Y-101532857D02*
X176466666Y-101485238D01*
X176466666Y-101485238D02*
X176371428Y-101437619D01*
X176371428Y-101437619D02*
X176133333Y-101437619D01*
X176133333Y-101437619D02*
X175990476Y-101485238D01*
X175228571Y-101913809D02*
X175085714Y-101961428D01*
X175085714Y-101961428D02*
X175038095Y-102009047D01*
X175038095Y-102009047D02*
X174990476Y-102104285D01*
X174990476Y-102104285D02*
X174990476Y-102247142D01*
X174990476Y-102247142D02*
X175038095Y-102342380D01*
X175038095Y-102342380D02*
X175085714Y-102390000D01*
X175085714Y-102390000D02*
X175180952Y-102437619D01*
X175180952Y-102437619D02*
X175561904Y-102437619D01*
X175561904Y-102437619D02*
X175561904Y-101437619D01*
X175561904Y-101437619D02*
X175228571Y-101437619D01*
X175228571Y-101437619D02*
X175133333Y-101485238D01*
X175133333Y-101485238D02*
X175085714Y-101532857D01*
X175085714Y-101532857D02*
X175038095Y-101628095D01*
X175038095Y-101628095D02*
X175038095Y-101723333D01*
X175038095Y-101723333D02*
X175085714Y-101818571D01*
X175085714Y-101818571D02*
X175133333Y-101866190D01*
X175133333Y-101866190D02*
X175228571Y-101913809D01*
X175228571Y-101913809D02*
X175561904Y-101913809D01*
X173799999Y-102437619D02*
X173799999Y-101437619D01*
X173799999Y-101437619D02*
X173561904Y-101437619D01*
X173561904Y-101437619D02*
X173419047Y-101485238D01*
X173419047Y-101485238D02*
X173323809Y-101580476D01*
X173323809Y-101580476D02*
X173276190Y-101675714D01*
X173276190Y-101675714D02*
X173228571Y-101866190D01*
X173228571Y-101866190D02*
X173228571Y-102009047D01*
X173228571Y-102009047D02*
X173276190Y-102199523D01*
X173276190Y-102199523D02*
X173323809Y-102294761D01*
X173323809Y-102294761D02*
X173419047Y-102390000D01*
X173419047Y-102390000D02*
X173561904Y-102437619D01*
X173561904Y-102437619D02*
X173799999Y-102437619D01*
X172419047Y-102390000D02*
X172514285Y-102437619D01*
X172514285Y-102437619D02*
X172704761Y-102437619D01*
X172704761Y-102437619D02*
X172799999Y-102390000D01*
X172799999Y-102390000D02*
X172847618Y-102294761D01*
X172847618Y-102294761D02*
X172847618Y-101913809D01*
X172847618Y-101913809D02*
X172799999Y-101818571D01*
X172799999Y-101818571D02*
X172704761Y-101770952D01*
X172704761Y-101770952D02*
X172514285Y-101770952D01*
X172514285Y-101770952D02*
X172419047Y-101818571D01*
X172419047Y-101818571D02*
X172371428Y-101913809D01*
X172371428Y-101913809D02*
X172371428Y-102009047D01*
X172371428Y-102009047D02*
X172847618Y-102104285D01*
X172038094Y-101770952D02*
X171799999Y-102437619D01*
X171799999Y-102437619D02*
X171561904Y-101770952D01*
X170799999Y-102390000D02*
X170895237Y-102437619D01*
X170895237Y-102437619D02*
X171085713Y-102437619D01*
X171085713Y-102437619D02*
X171180951Y-102390000D01*
X171180951Y-102390000D02*
X171228570Y-102294761D01*
X171228570Y-102294761D02*
X171228570Y-101913809D01*
X171228570Y-101913809D02*
X171180951Y-101818571D01*
X171180951Y-101818571D02*
X171085713Y-101770952D01*
X171085713Y-101770952D02*
X170895237Y-101770952D01*
X170895237Y-101770952D02*
X170799999Y-101818571D01*
X170799999Y-101818571D02*
X170752380Y-101913809D01*
X170752380Y-101913809D02*
X170752380Y-102009047D01*
X170752380Y-102009047D02*
X171228570Y-102104285D01*
X170180951Y-102437619D02*
X170276189Y-102390000D01*
X170276189Y-102390000D02*
X170323808Y-102294761D01*
X170323808Y-102294761D02*
X170323808Y-101437619D01*
X169657141Y-102437619D02*
X169752379Y-102390000D01*
X169752379Y-102390000D02*
X169799998Y-102342380D01*
X169799998Y-102342380D02*
X169847617Y-102247142D01*
X169847617Y-102247142D02*
X169847617Y-101961428D01*
X169847617Y-101961428D02*
X169799998Y-101866190D01*
X169799998Y-101866190D02*
X169752379Y-101818571D01*
X169752379Y-101818571D02*
X169657141Y-101770952D01*
X169657141Y-101770952D02*
X169514284Y-101770952D01*
X169514284Y-101770952D02*
X169419046Y-101818571D01*
X169419046Y-101818571D02*
X169371427Y-101866190D01*
X169371427Y-101866190D02*
X169323808Y-101961428D01*
X169323808Y-101961428D02*
X169323808Y-102247142D01*
X169323808Y-102247142D02*
X169371427Y-102342380D01*
X169371427Y-102342380D02*
X169419046Y-102390000D01*
X169419046Y-102390000D02*
X169514284Y-102437619D01*
X169514284Y-102437619D02*
X169657141Y-102437619D01*
X168895236Y-101770952D02*
X168895236Y-102770952D01*
X168895236Y-101818571D02*
X168799998Y-101770952D01*
X168799998Y-101770952D02*
X168609522Y-101770952D01*
X168609522Y-101770952D02*
X168514284Y-101818571D01*
X168514284Y-101818571D02*
X168466665Y-101866190D01*
X168466665Y-101866190D02*
X168419046Y-101961428D01*
X168419046Y-101961428D02*
X168419046Y-102247142D01*
X168419046Y-102247142D02*
X168466665Y-102342380D01*
X168466665Y-102342380D02*
X168514284Y-102390000D01*
X168514284Y-102390000D02*
X168609522Y-102437619D01*
X168609522Y-102437619D02*
X168799998Y-102437619D01*
X168799998Y-102437619D02*
X168895236Y-102390000D01*
X167990474Y-102437619D02*
X167990474Y-101770952D01*
X167990474Y-101866190D02*
X167942855Y-101818571D01*
X167942855Y-101818571D02*
X167847617Y-101770952D01*
X167847617Y-101770952D02*
X167704760Y-101770952D01*
X167704760Y-101770952D02*
X167609522Y-101818571D01*
X167609522Y-101818571D02*
X167561903Y-101913809D01*
X167561903Y-101913809D02*
X167561903Y-102437619D01*
X167561903Y-101913809D02*
X167514284Y-101818571D01*
X167514284Y-101818571D02*
X167419046Y-101770952D01*
X167419046Y-101770952D02*
X167276189Y-101770952D01*
X167276189Y-101770952D02*
X167180950Y-101818571D01*
X167180950Y-101818571D02*
X167133331Y-101913809D01*
X167133331Y-101913809D02*
X167133331Y-102437619D01*
X166276189Y-102390000D02*
X166371427Y-102437619D01*
X166371427Y-102437619D02*
X166561903Y-102437619D01*
X166561903Y-102437619D02*
X166657141Y-102390000D01*
X166657141Y-102390000D02*
X166704760Y-102294761D01*
X166704760Y-102294761D02*
X166704760Y-101913809D01*
X166704760Y-101913809D02*
X166657141Y-101818571D01*
X166657141Y-101818571D02*
X166561903Y-101770952D01*
X166561903Y-101770952D02*
X166371427Y-101770952D01*
X166371427Y-101770952D02*
X166276189Y-101818571D01*
X166276189Y-101818571D02*
X166228570Y-101913809D01*
X166228570Y-101913809D02*
X166228570Y-102009047D01*
X166228570Y-102009047D02*
X166704760Y-102104285D01*
X165799998Y-101770952D02*
X165799998Y-102437619D01*
X165799998Y-101866190D02*
X165752379Y-101818571D01*
X165752379Y-101818571D02*
X165657141Y-101770952D01*
X165657141Y-101770952D02*
X165514284Y-101770952D01*
X165514284Y-101770952D02*
X165419046Y-101818571D01*
X165419046Y-101818571D02*
X165371427Y-101913809D01*
X165371427Y-101913809D02*
X165371427Y-102437619D01*
X165038093Y-101770952D02*
X164657141Y-101770952D01*
X164895236Y-101437619D02*
X164895236Y-102294761D01*
X164895236Y-102294761D02*
X164847617Y-102390000D01*
X164847617Y-102390000D02*
X164752379Y-102437619D01*
X164752379Y-102437619D02*
X164657141Y-102437619D01*
X163228569Y-101913809D02*
X163085712Y-101961428D01*
X163085712Y-101961428D02*
X163038093Y-102009047D01*
X163038093Y-102009047D02*
X162990474Y-102104285D01*
X162990474Y-102104285D02*
X162990474Y-102247142D01*
X162990474Y-102247142D02*
X163038093Y-102342380D01*
X163038093Y-102342380D02*
X163085712Y-102390000D01*
X163085712Y-102390000D02*
X163180950Y-102437619D01*
X163180950Y-102437619D02*
X163561902Y-102437619D01*
X163561902Y-102437619D02*
X163561902Y-101437619D01*
X163561902Y-101437619D02*
X163228569Y-101437619D01*
X163228569Y-101437619D02*
X163133331Y-101485238D01*
X163133331Y-101485238D02*
X163085712Y-101532857D01*
X163085712Y-101532857D02*
X163038093Y-101628095D01*
X163038093Y-101628095D02*
X163038093Y-101723333D01*
X163038093Y-101723333D02*
X163085712Y-101818571D01*
X163085712Y-101818571D02*
X163133331Y-101866190D01*
X163133331Y-101866190D02*
X163228569Y-101913809D01*
X163228569Y-101913809D02*
X163561902Y-101913809D01*
X162419045Y-102437619D02*
X162514283Y-102390000D01*
X162514283Y-102390000D02*
X162561902Y-102342380D01*
X162561902Y-102342380D02*
X162609521Y-102247142D01*
X162609521Y-102247142D02*
X162609521Y-101961428D01*
X162609521Y-101961428D02*
X162561902Y-101866190D01*
X162561902Y-101866190D02*
X162514283Y-101818571D01*
X162514283Y-101818571D02*
X162419045Y-101770952D01*
X162419045Y-101770952D02*
X162276188Y-101770952D01*
X162276188Y-101770952D02*
X162180950Y-101818571D01*
X162180950Y-101818571D02*
X162133331Y-101866190D01*
X162133331Y-101866190D02*
X162085712Y-101961428D01*
X162085712Y-101961428D02*
X162085712Y-102247142D01*
X162085712Y-102247142D02*
X162133331Y-102342380D01*
X162133331Y-102342380D02*
X162180950Y-102390000D01*
X162180950Y-102390000D02*
X162276188Y-102437619D01*
X162276188Y-102437619D02*
X162419045Y-102437619D01*
X161228569Y-102437619D02*
X161228569Y-101913809D01*
X161228569Y-101913809D02*
X161276188Y-101818571D01*
X161276188Y-101818571D02*
X161371426Y-101770952D01*
X161371426Y-101770952D02*
X161561902Y-101770952D01*
X161561902Y-101770952D02*
X161657140Y-101818571D01*
X161228569Y-102390000D02*
X161323807Y-102437619D01*
X161323807Y-102437619D02*
X161561902Y-102437619D01*
X161561902Y-102437619D02*
X161657140Y-102390000D01*
X161657140Y-102390000D02*
X161704759Y-102294761D01*
X161704759Y-102294761D02*
X161704759Y-102199523D01*
X161704759Y-102199523D02*
X161657140Y-102104285D01*
X161657140Y-102104285D02*
X161561902Y-102056666D01*
X161561902Y-102056666D02*
X161323807Y-102056666D01*
X161323807Y-102056666D02*
X161228569Y-102009047D01*
X160752378Y-102437619D02*
X160752378Y-101770952D01*
X160752378Y-101961428D02*
X160704759Y-101866190D01*
X160704759Y-101866190D02*
X160657140Y-101818571D01*
X160657140Y-101818571D02*
X160561902Y-101770952D01*
X160561902Y-101770952D02*
X160466664Y-101770952D01*
X159704759Y-102437619D02*
X159704759Y-101437619D01*
X159704759Y-102390000D02*
X159799997Y-102437619D01*
X159799997Y-102437619D02*
X159990473Y-102437619D01*
X159990473Y-102437619D02*
X160085711Y-102390000D01*
X160085711Y-102390000D02*
X160133330Y-102342380D01*
X160133330Y-102342380D02*
X160180949Y-102247142D01*
X160180949Y-102247142D02*
X160180949Y-101961428D01*
X160180949Y-101961428D02*
X160133330Y-101866190D01*
X160133330Y-101866190D02*
X160085711Y-101818571D01*
X160085711Y-101818571D02*
X159990473Y-101770952D01*
X159990473Y-101770952D02*
X159799997Y-101770952D01*
X159799997Y-101770952D02*
X159704759Y-101818571D01*
X158561901Y-101770952D02*
X158323806Y-102437619D01*
X158323806Y-102437619D02*
X158085711Y-101770952D01*
X157180949Y-102437619D02*
X157752377Y-102437619D01*
X157466663Y-102437619D02*
X157466663Y-101437619D01*
X157466663Y-101437619D02*
X157561901Y-101580476D01*
X157561901Y-101580476D02*
X157657139Y-101675714D01*
X157657139Y-101675714D02*
X157752377Y-101723333D01*
X156752377Y-102342380D02*
X156704758Y-102390000D01*
X156704758Y-102390000D02*
X156752377Y-102437619D01*
X156752377Y-102437619D02*
X156799996Y-102390000D01*
X156799996Y-102390000D02*
X156752377Y-102342380D01*
X156752377Y-102342380D02*
X156752377Y-102437619D01*
X156085711Y-101437619D02*
X155990473Y-101437619D01*
X155990473Y-101437619D02*
X155895235Y-101485238D01*
X155895235Y-101485238D02*
X155847616Y-101532857D01*
X155847616Y-101532857D02*
X155799997Y-101628095D01*
X155799997Y-101628095D02*
X155752378Y-101818571D01*
X155752378Y-101818571D02*
X155752378Y-102056666D01*
X155752378Y-102056666D02*
X155799997Y-102247142D01*
X155799997Y-102247142D02*
X155847616Y-102342380D01*
X155847616Y-102342380D02*
X155895235Y-102390000D01*
X155895235Y-102390000D02*
X155990473Y-102437619D01*
X155990473Y-102437619D02*
X156085711Y-102437619D01*
X156085711Y-102437619D02*
X156180949Y-102390000D01*
X156180949Y-102390000D02*
X156228568Y-102342380D01*
X156228568Y-102342380D02*
X156276187Y-102247142D01*
X156276187Y-102247142D02*
X156323806Y-102056666D01*
X156323806Y-102056666D02*
X156323806Y-101818571D01*
X156323806Y-101818571D02*
X156276187Y-101628095D01*
X156276187Y-101628095D02*
X156228568Y-101532857D01*
X156228568Y-101532857D02*
X156180949Y-101485238D01*
X156180949Y-101485238D02*
X156085711Y-101437619D01*
X177561904Y-104057619D02*
X177561904Y-103057619D01*
X177561904Y-103057619D02*
X177323809Y-103057619D01*
X177323809Y-103057619D02*
X177180952Y-103105238D01*
X177180952Y-103105238D02*
X177085714Y-103200476D01*
X177085714Y-103200476D02*
X177038095Y-103295714D01*
X177038095Y-103295714D02*
X176990476Y-103486190D01*
X176990476Y-103486190D02*
X176990476Y-103629047D01*
X176990476Y-103629047D02*
X177038095Y-103819523D01*
X177038095Y-103819523D02*
X177085714Y-103914761D01*
X177085714Y-103914761D02*
X177180952Y-104010000D01*
X177180952Y-104010000D02*
X177323809Y-104057619D01*
X177323809Y-104057619D02*
X177561904Y-104057619D01*
X176133333Y-104057619D02*
X176133333Y-103533809D01*
X176133333Y-103533809D02*
X176180952Y-103438571D01*
X176180952Y-103438571D02*
X176276190Y-103390952D01*
X176276190Y-103390952D02*
X176466666Y-103390952D01*
X176466666Y-103390952D02*
X176561904Y-103438571D01*
X176133333Y-104010000D02*
X176228571Y-104057619D01*
X176228571Y-104057619D02*
X176466666Y-104057619D01*
X176466666Y-104057619D02*
X176561904Y-104010000D01*
X176561904Y-104010000D02*
X176609523Y-103914761D01*
X176609523Y-103914761D02*
X176609523Y-103819523D01*
X176609523Y-103819523D02*
X176561904Y-103724285D01*
X176561904Y-103724285D02*
X176466666Y-103676666D01*
X176466666Y-103676666D02*
X176228571Y-103676666D01*
X176228571Y-103676666D02*
X176133333Y-103629047D01*
X175657142Y-103390952D02*
X175657142Y-104057619D01*
X175657142Y-103486190D02*
X175609523Y-103438571D01*
X175609523Y-103438571D02*
X175514285Y-103390952D01*
X175514285Y-103390952D02*
X175371428Y-103390952D01*
X175371428Y-103390952D02*
X175276190Y-103438571D01*
X175276190Y-103438571D02*
X175228571Y-103533809D01*
X175228571Y-103533809D02*
X175228571Y-104057619D01*
X174752380Y-104057619D02*
X174752380Y-103390952D01*
X174752380Y-103057619D02*
X174799999Y-103105238D01*
X174799999Y-103105238D02*
X174752380Y-103152857D01*
X174752380Y-103152857D02*
X174704761Y-103105238D01*
X174704761Y-103105238D02*
X174752380Y-103057619D01*
X174752380Y-103057619D02*
X174752380Y-103152857D01*
X173895238Y-104010000D02*
X173990476Y-104057619D01*
X173990476Y-104057619D02*
X174180952Y-104057619D01*
X174180952Y-104057619D02*
X174276190Y-104010000D01*
X174276190Y-104010000D02*
X174323809Y-103914761D01*
X174323809Y-103914761D02*
X174323809Y-103533809D01*
X174323809Y-103533809D02*
X174276190Y-103438571D01*
X174276190Y-103438571D02*
X174180952Y-103390952D01*
X174180952Y-103390952D02*
X173990476Y-103390952D01*
X173990476Y-103390952D02*
X173895238Y-103438571D01*
X173895238Y-103438571D02*
X173847619Y-103533809D01*
X173847619Y-103533809D02*
X173847619Y-103629047D01*
X173847619Y-103629047D02*
X174323809Y-103724285D01*
X173276190Y-104057619D02*
X173371428Y-104010000D01*
X173371428Y-104010000D02*
X173419047Y-103914761D01*
X173419047Y-103914761D02*
X173419047Y-103057619D01*
X172180951Y-103771904D02*
X171704761Y-103771904D01*
X172276189Y-104057619D02*
X171942856Y-103057619D01*
X171942856Y-103057619D02*
X171609523Y-104057619D01*
X170847618Y-104057619D02*
X170847618Y-103057619D01*
X170847618Y-104010000D02*
X170942856Y-104057619D01*
X170942856Y-104057619D02*
X171133332Y-104057619D01*
X171133332Y-104057619D02*
X171228570Y-104010000D01*
X171228570Y-104010000D02*
X171276189Y-103962380D01*
X171276189Y-103962380D02*
X171323808Y-103867142D01*
X171323808Y-103867142D02*
X171323808Y-103581428D01*
X171323808Y-103581428D02*
X171276189Y-103486190D01*
X171276189Y-103486190D02*
X171228570Y-103438571D01*
X171228570Y-103438571D02*
X171133332Y-103390952D01*
X171133332Y-103390952D02*
X170942856Y-103390952D01*
X170942856Y-103390952D02*
X170847618Y-103438571D01*
X169942856Y-104057619D02*
X169942856Y-103533809D01*
X169942856Y-103533809D02*
X169990475Y-103438571D01*
X169990475Y-103438571D02*
X170085713Y-103390952D01*
X170085713Y-103390952D02*
X170276189Y-103390952D01*
X170276189Y-103390952D02*
X170371427Y-103438571D01*
X169942856Y-104010000D02*
X170038094Y-104057619D01*
X170038094Y-104057619D02*
X170276189Y-104057619D01*
X170276189Y-104057619D02*
X170371427Y-104010000D01*
X170371427Y-104010000D02*
X170419046Y-103914761D01*
X170419046Y-103914761D02*
X170419046Y-103819523D01*
X170419046Y-103819523D02*
X170371427Y-103724285D01*
X170371427Y-103724285D02*
X170276189Y-103676666D01*
X170276189Y-103676666D02*
X170038094Y-103676666D01*
X170038094Y-103676666D02*
X169942856Y-103629047D01*
X169466665Y-104057619D02*
X169466665Y-103390952D01*
X169466665Y-103486190D02*
X169419046Y-103438571D01*
X169419046Y-103438571D02*
X169323808Y-103390952D01*
X169323808Y-103390952D02*
X169180951Y-103390952D01*
X169180951Y-103390952D02*
X169085713Y-103438571D01*
X169085713Y-103438571D02*
X169038094Y-103533809D01*
X169038094Y-103533809D02*
X169038094Y-104057619D01*
X169038094Y-103533809D02*
X168990475Y-103438571D01*
X168990475Y-103438571D02*
X168895237Y-103390952D01*
X168895237Y-103390952D02*
X168752380Y-103390952D01*
X168752380Y-103390952D02*
X168657141Y-103438571D01*
X168657141Y-103438571D02*
X168609522Y-103533809D01*
X168609522Y-103533809D02*
X168609522Y-104057619D01*
X168133332Y-104057619D02*
X168133332Y-103057619D01*
X168038094Y-103676666D02*
X167752380Y-104057619D01*
X167752380Y-103390952D02*
X168133332Y-103771904D01*
X167180951Y-104057619D02*
X167276189Y-104010000D01*
X167276189Y-104010000D02*
X167323808Y-103962380D01*
X167323808Y-103962380D02*
X167371427Y-103867142D01*
X167371427Y-103867142D02*
X167371427Y-103581428D01*
X167371427Y-103581428D02*
X167323808Y-103486190D01*
X167323808Y-103486190D02*
X167276189Y-103438571D01*
X167276189Y-103438571D02*
X167180951Y-103390952D01*
X167180951Y-103390952D02*
X167038094Y-103390952D01*
X167038094Y-103390952D02*
X166942856Y-103438571D01*
X166942856Y-103438571D02*
X166895237Y-103486190D01*
X166895237Y-103486190D02*
X166847618Y-103581428D01*
X166847618Y-103581428D02*
X166847618Y-103867142D01*
X166847618Y-103867142D02*
X166895237Y-103962380D01*
X166895237Y-103962380D02*
X166942856Y-104010000D01*
X166942856Y-104010000D02*
X167038094Y-104057619D01*
X167038094Y-104057619D02*
X167180951Y-104057619D01*
X166514284Y-103390952D02*
X166276189Y-104057619D01*
X166276189Y-104057619D02*
X166038094Y-103390952D01*
X165657141Y-104057619D02*
X165657141Y-103390952D01*
X165657141Y-103057619D02*
X165704760Y-103105238D01*
X165704760Y-103105238D02*
X165657141Y-103152857D01*
X165657141Y-103152857D02*
X165609522Y-103105238D01*
X165609522Y-103105238D02*
X165657141Y-103057619D01*
X165657141Y-103057619D02*
X165657141Y-103152857D01*
X164752380Y-104010000D02*
X164847618Y-104057619D01*
X164847618Y-104057619D02*
X165038094Y-104057619D01*
X165038094Y-104057619D02*
X165133332Y-104010000D01*
X165133332Y-104010000D02*
X165180951Y-103962380D01*
X165180951Y-103962380D02*
X165228570Y-103867142D01*
X165228570Y-103867142D02*
X165228570Y-103581428D01*
X165228570Y-103581428D02*
X165180951Y-103486190D01*
X165180951Y-103486190D02*
X165133332Y-103438571D01*
X165133332Y-103438571D02*
X165038094Y-103390952D01*
X165038094Y-103390952D02*
X164847618Y-103390952D01*
X164847618Y-103390952D02*
X164752380Y-103438571D01*
X177038095Y-105677619D02*
X177609523Y-105677619D01*
X177323809Y-105677619D02*
X177323809Y-104677619D01*
X177323809Y-104677619D02*
X177419047Y-104820476D01*
X177419047Y-104820476D02*
X177514285Y-104915714D01*
X177514285Y-104915714D02*
X177609523Y-104963333D01*
X176704761Y-104677619D02*
X176038095Y-104677619D01*
X176038095Y-104677619D02*
X176466666Y-105677619D01*
X175657142Y-105296666D02*
X174895238Y-105296666D01*
X174466666Y-105630000D02*
X174323809Y-105677619D01*
X174323809Y-105677619D02*
X174085714Y-105677619D01*
X174085714Y-105677619D02*
X173990476Y-105630000D01*
X173990476Y-105630000D02*
X173942857Y-105582380D01*
X173942857Y-105582380D02*
X173895238Y-105487142D01*
X173895238Y-105487142D02*
X173895238Y-105391904D01*
X173895238Y-105391904D02*
X173942857Y-105296666D01*
X173942857Y-105296666D02*
X173990476Y-105249047D01*
X173990476Y-105249047D02*
X174085714Y-105201428D01*
X174085714Y-105201428D02*
X174276190Y-105153809D01*
X174276190Y-105153809D02*
X174371428Y-105106190D01*
X174371428Y-105106190D02*
X174419047Y-105058571D01*
X174419047Y-105058571D02*
X174466666Y-104963333D01*
X174466666Y-104963333D02*
X174466666Y-104868095D01*
X174466666Y-104868095D02*
X174419047Y-104772857D01*
X174419047Y-104772857D02*
X174371428Y-104725238D01*
X174371428Y-104725238D02*
X174276190Y-104677619D01*
X174276190Y-104677619D02*
X174038095Y-104677619D01*
X174038095Y-104677619D02*
X173895238Y-104725238D01*
X173085714Y-105630000D02*
X173180952Y-105677619D01*
X173180952Y-105677619D02*
X173371428Y-105677619D01*
X173371428Y-105677619D02*
X173466666Y-105630000D01*
X173466666Y-105630000D02*
X173514285Y-105534761D01*
X173514285Y-105534761D02*
X173514285Y-105153809D01*
X173514285Y-105153809D02*
X173466666Y-105058571D01*
X173466666Y-105058571D02*
X173371428Y-105010952D01*
X173371428Y-105010952D02*
X173180952Y-105010952D01*
X173180952Y-105010952D02*
X173085714Y-105058571D01*
X173085714Y-105058571D02*
X173038095Y-105153809D01*
X173038095Y-105153809D02*
X173038095Y-105249047D01*
X173038095Y-105249047D02*
X173514285Y-105344285D01*
X172609523Y-105010952D02*
X172609523Y-106010952D01*
X172609523Y-105058571D02*
X172514285Y-105010952D01*
X172514285Y-105010952D02*
X172323809Y-105010952D01*
X172323809Y-105010952D02*
X172228571Y-105058571D01*
X172228571Y-105058571D02*
X172180952Y-105106190D01*
X172180952Y-105106190D02*
X172133333Y-105201428D01*
X172133333Y-105201428D02*
X172133333Y-105487142D01*
X172133333Y-105487142D02*
X172180952Y-105582380D01*
X172180952Y-105582380D02*
X172228571Y-105630000D01*
X172228571Y-105630000D02*
X172323809Y-105677619D01*
X172323809Y-105677619D02*
X172514285Y-105677619D01*
X172514285Y-105677619D02*
X172609523Y-105630000D01*
X171704761Y-105296666D02*
X170942857Y-105296666D01*
X170514285Y-104772857D02*
X170466666Y-104725238D01*
X170466666Y-104725238D02*
X170371428Y-104677619D01*
X170371428Y-104677619D02*
X170133333Y-104677619D01*
X170133333Y-104677619D02*
X170038095Y-104725238D01*
X170038095Y-104725238D02*
X169990476Y-104772857D01*
X169990476Y-104772857D02*
X169942857Y-104868095D01*
X169942857Y-104868095D02*
X169942857Y-104963333D01*
X169942857Y-104963333D02*
X169990476Y-105106190D01*
X169990476Y-105106190D02*
X170561904Y-105677619D01*
X170561904Y-105677619D02*
X169942857Y-105677619D01*
X169323809Y-104677619D02*
X169228571Y-104677619D01*
X169228571Y-104677619D02*
X169133333Y-104725238D01*
X169133333Y-104725238D02*
X169085714Y-104772857D01*
X169085714Y-104772857D02*
X169038095Y-104868095D01*
X169038095Y-104868095D02*
X168990476Y-105058571D01*
X168990476Y-105058571D02*
X168990476Y-105296666D01*
X168990476Y-105296666D02*
X169038095Y-105487142D01*
X169038095Y-105487142D02*
X169085714Y-105582380D01*
X169085714Y-105582380D02*
X169133333Y-105630000D01*
X169133333Y-105630000D02*
X169228571Y-105677619D01*
X169228571Y-105677619D02*
X169323809Y-105677619D01*
X169323809Y-105677619D02*
X169419047Y-105630000D01*
X169419047Y-105630000D02*
X169466666Y-105582380D01*
X169466666Y-105582380D02*
X169514285Y-105487142D01*
X169514285Y-105487142D02*
X169561904Y-105296666D01*
X169561904Y-105296666D02*
X169561904Y-105058571D01*
X169561904Y-105058571D02*
X169514285Y-104868095D01*
X169514285Y-104868095D02*
X169466666Y-104772857D01*
X169466666Y-104772857D02*
X169419047Y-104725238D01*
X169419047Y-104725238D02*
X169323809Y-104677619D01*
X168609523Y-104772857D02*
X168561904Y-104725238D01*
X168561904Y-104725238D02*
X168466666Y-104677619D01*
X168466666Y-104677619D02*
X168228571Y-104677619D01*
X168228571Y-104677619D02*
X168133333Y-104725238D01*
X168133333Y-104725238D02*
X168085714Y-104772857D01*
X168085714Y-104772857D02*
X168038095Y-104868095D01*
X168038095Y-104868095D02*
X168038095Y-104963333D01*
X168038095Y-104963333D02*
X168085714Y-105106190D01*
X168085714Y-105106190D02*
X168657142Y-105677619D01*
X168657142Y-105677619D02*
X168038095Y-105677619D01*
X167704761Y-104677619D02*
X167085714Y-104677619D01*
X167085714Y-104677619D02*
X167419047Y-105058571D01*
X167419047Y-105058571D02*
X167276190Y-105058571D01*
X167276190Y-105058571D02*
X167180952Y-105106190D01*
X167180952Y-105106190D02*
X167133333Y-105153809D01*
X167133333Y-105153809D02*
X167085714Y-105249047D01*
X167085714Y-105249047D02*
X167085714Y-105487142D01*
X167085714Y-105487142D02*
X167133333Y-105582380D01*
X167133333Y-105582380D02*
X167180952Y-105630000D01*
X167180952Y-105630000D02*
X167276190Y-105677619D01*
X167276190Y-105677619D02*
X167561904Y-105677619D01*
X167561904Y-105677619D02*
X167657142Y-105630000D01*
X167657142Y-105630000D02*
X167704761Y-105582380D01*
D11*
%TO.C,G\u002A\u002A\u002A*%
X147121427Y-92265357D02*
X147264285Y-92193928D01*
X147264285Y-92193928D02*
X147478570Y-92193928D01*
X147478570Y-92193928D02*
X147692856Y-92265357D01*
X147692856Y-92265357D02*
X147835713Y-92408214D01*
X147835713Y-92408214D02*
X147907142Y-92551071D01*
X147907142Y-92551071D02*
X147978570Y-92836785D01*
X147978570Y-92836785D02*
X147978570Y-93051071D01*
X147978570Y-93051071D02*
X147907142Y-93336785D01*
X147907142Y-93336785D02*
X147835713Y-93479642D01*
X147835713Y-93479642D02*
X147692856Y-93622500D01*
X147692856Y-93622500D02*
X147478570Y-93693928D01*
X147478570Y-93693928D02*
X147335713Y-93693928D01*
X147335713Y-93693928D02*
X147121427Y-93622500D01*
X147121427Y-93622500D02*
X147049999Y-93551071D01*
X147049999Y-93551071D02*
X147049999Y-93051071D01*
X147049999Y-93051071D02*
X147335713Y-93051071D01*
X146192856Y-92193928D02*
X146192856Y-92551071D01*
X146549999Y-92408214D02*
X146192856Y-92551071D01*
X146192856Y-92551071D02*
X145835713Y-92408214D01*
X146407142Y-92836785D02*
X146192856Y-92551071D01*
X146192856Y-92551071D02*
X145978570Y-92836785D01*
X145049999Y-92193928D02*
X145049999Y-92551071D01*
X145407142Y-92408214D02*
X145049999Y-92551071D01*
X145049999Y-92551071D02*
X144692856Y-92408214D01*
X145264285Y-92836785D02*
X145049999Y-92551071D01*
X145049999Y-92551071D02*
X144835713Y-92836785D01*
X143907142Y-92193928D02*
X143907142Y-92551071D01*
X144264285Y-92408214D02*
X143907142Y-92551071D01*
X143907142Y-92551071D02*
X143549999Y-92408214D01*
X144121428Y-92836785D02*
X143907142Y-92551071D01*
X143907142Y-92551071D02*
X143692856Y-92836785D01*
G36*
X153193727Y-100664617D02*
G01*
X153177792Y-100680552D01*
X153161857Y-100664617D01*
X153177792Y-100648683D01*
X153193727Y-100664617D01*
G37*
G36*
X153129988Y-100760226D02*
G01*
X153114053Y-100776161D01*
X153098118Y-100760226D01*
X153114053Y-100744291D01*
X153129988Y-100760226D01*
G37*
G36*
X152875032Y-100792095D02*
G01*
X152859097Y-100808030D01*
X152843162Y-100792095D01*
X152859097Y-100776161D01*
X152875032Y-100792095D01*
G37*
G36*
X152875032Y-100537139D02*
G01*
X152859097Y-100553074D01*
X152843162Y-100537139D01*
X152859097Y-100521205D01*
X152875032Y-100537139D01*
G37*
G36*
X152588206Y-82690213D02*
G01*
X152572271Y-82706148D01*
X152556337Y-82690213D01*
X152572271Y-82674279D01*
X152588206Y-82690213D01*
G37*
G36*
X152556337Y-83805646D02*
G01*
X152540402Y-83821581D01*
X152524467Y-83805646D01*
X152540402Y-83789712D01*
X152556337Y-83805646D01*
G37*
G36*
X152365120Y-99963488D02*
G01*
X152349185Y-99979423D01*
X152333250Y-99963488D01*
X152349185Y-99947553D01*
X152365120Y-99963488D01*
G37*
G36*
X152365120Y-84060602D02*
G01*
X152349185Y-84076537D01*
X152333250Y-84060602D01*
X152349185Y-84044668D01*
X152365120Y-84060602D01*
G37*
G36*
X152333250Y-84315558D02*
G01*
X152317315Y-84331493D01*
X152301381Y-84315558D01*
X152317315Y-84299624D01*
X152333250Y-84315558D01*
G37*
G36*
X152333250Y-84188080D02*
G01*
X152317315Y-84204015D01*
X152301381Y-84188080D01*
X152317315Y-84172146D01*
X152333250Y-84188080D01*
G37*
G36*
X152301381Y-81765998D02*
G01*
X152285446Y-81781932D01*
X152269511Y-81765998D01*
X152285446Y-81750063D01*
X152301381Y-81765998D01*
G37*
G36*
X152269511Y-81702259D02*
G01*
X152253576Y-81718193D01*
X152237642Y-81702259D01*
X152253576Y-81686324D01*
X152269511Y-81702259D01*
G37*
G36*
X152237642Y-84315558D02*
G01*
X152221707Y-84331493D01*
X152205772Y-84315558D01*
X152221707Y-84299624D01*
X152237642Y-84315558D01*
G37*
G36*
X152205772Y-84251819D02*
G01*
X152189837Y-84267754D01*
X152173903Y-84251819D01*
X152189837Y-84235885D01*
X152205772Y-84251819D01*
G37*
G36*
X152173903Y-99772271D02*
G01*
X152157968Y-99788206D01*
X152142033Y-99772271D01*
X152157968Y-99756336D01*
X152173903Y-99772271D01*
G37*
G36*
X151982686Y-101047052D02*
G01*
X151966751Y-101062986D01*
X151950816Y-101047052D01*
X151966751Y-101031117D01*
X151982686Y-101047052D01*
G37*
G36*
X151823338Y-85271644D02*
G01*
X151807403Y-85287579D01*
X151791468Y-85271644D01*
X151807403Y-85255709D01*
X151823338Y-85271644D01*
G37*
G36*
X151217817Y-96680929D02*
G01*
X151201883Y-96696863D01*
X151185948Y-96680929D01*
X151201883Y-96664994D01*
X151217817Y-96680929D01*
G37*
G36*
X150676036Y-99198620D02*
G01*
X150660101Y-99214555D01*
X150644166Y-99198620D01*
X150660101Y-99182685D01*
X150676036Y-99198620D01*
G37*
G36*
X150548558Y-99134881D02*
G01*
X150532623Y-99150816D01*
X150516688Y-99134881D01*
X150532623Y-99118946D01*
X150548558Y-99134881D01*
G37*
G36*
X150070515Y-87311292D02*
G01*
X150054580Y-87327227D01*
X150038645Y-87311292D01*
X150054580Y-87295358D01*
X150070515Y-87311292D01*
G37*
G36*
X149943037Y-87151945D02*
G01*
X149927102Y-87167880D01*
X149911167Y-87151945D01*
X149927102Y-87136010D01*
X149943037Y-87151945D01*
G37*
G36*
X149847428Y-87151945D02*
G01*
X149831494Y-87167880D01*
X149815559Y-87151945D01*
X149831494Y-87136010D01*
X149847428Y-87151945D01*
G37*
G36*
X149783689Y-87024467D02*
G01*
X149767755Y-87040402D01*
X149751820Y-87024467D01*
X149767755Y-87008532D01*
X149783689Y-87024467D01*
G37*
G36*
X149751820Y-86705772D02*
G01*
X149735885Y-86721707D01*
X149719950Y-86705772D01*
X149735885Y-86689837D01*
X149751820Y-86705772D01*
G37*
G36*
X149528733Y-92091719D02*
G01*
X149512798Y-92107654D01*
X149496864Y-92091719D01*
X149512798Y-92075784D01*
X149528733Y-92091719D01*
G37*
G36*
X149496864Y-86514555D02*
G01*
X149480929Y-86530489D01*
X149464994Y-86514555D01*
X149480929Y-86498620D01*
X149496864Y-86514555D01*
G37*
G36*
X149496864Y-86387077D02*
G01*
X149480929Y-86403011D01*
X149464994Y-86387077D01*
X149480929Y-86371142D01*
X149496864Y-86387077D01*
G37*
G36*
X149464994Y-90848808D02*
G01*
X149449059Y-90864743D01*
X149433125Y-90848808D01*
X149449059Y-90832873D01*
X149464994Y-90848808D01*
G37*
G36*
X149273777Y-91804893D02*
G01*
X149257842Y-91820828D01*
X149241908Y-91804893D01*
X149257842Y-91788959D01*
X149273777Y-91804893D01*
G37*
G36*
X149273777Y-86259599D02*
G01*
X149257842Y-86275533D01*
X149241908Y-86259599D01*
X149257842Y-86243664D01*
X149273777Y-86259599D01*
G37*
G36*
X149241908Y-86068382D02*
G01*
X149225973Y-86084316D01*
X149210038Y-86068382D01*
X149225973Y-86052447D01*
X149241908Y-86068382D01*
G37*
G36*
X148986952Y-91518068D02*
G01*
X148971017Y-91534003D01*
X148955082Y-91518068D01*
X148971017Y-91502133D01*
X148986952Y-91518068D01*
G37*
G36*
X148923213Y-91486198D02*
G01*
X148907278Y-91502133D01*
X148891343Y-91486198D01*
X148907278Y-91470264D01*
X148923213Y-91486198D01*
G37*
G36*
X148508909Y-91167503D02*
G01*
X148492974Y-91183438D01*
X148477039Y-91167503D01*
X148492974Y-91151568D01*
X148508909Y-91167503D01*
G37*
G36*
X148285822Y-96266625D02*
G01*
X148269888Y-96282560D01*
X148253953Y-96266625D01*
X148269888Y-96250690D01*
X148285822Y-96266625D01*
G37*
G36*
X148253953Y-96394103D02*
G01*
X148238018Y-96410038D01*
X148222083Y-96394103D01*
X148238018Y-96378168D01*
X148253953Y-96394103D01*
G37*
G36*
X148253953Y-91040025D02*
G01*
X148238018Y-91055960D01*
X148222083Y-91040025D01*
X148238018Y-91024090D01*
X148253953Y-91040025D01*
G37*
G36*
X148030866Y-96362233D02*
G01*
X148014931Y-96378168D01*
X147998997Y-96362233D01*
X148014931Y-96346299D01*
X148030866Y-96362233D01*
G37*
G36*
X147903388Y-96967754D02*
G01*
X147887453Y-96983689D01*
X147871519Y-96967754D01*
X147887453Y-96951819D01*
X147903388Y-96967754D01*
G37*
G36*
X147775910Y-90307026D02*
G01*
X147759975Y-90322961D01*
X147744041Y-90307026D01*
X147759975Y-90291092D01*
X147775910Y-90307026D01*
G37*
G36*
X147520954Y-90179548D02*
G01*
X147505019Y-90195483D01*
X147489085Y-90179548D01*
X147505019Y-90163614D01*
X147520954Y-90179548D01*
G37*
G36*
X147265998Y-98370013D02*
G01*
X147250063Y-98385947D01*
X147234128Y-98370013D01*
X147250063Y-98354078D01*
X147265998Y-98370013D01*
G37*
G36*
X147265998Y-90020201D02*
G01*
X147250063Y-90036136D01*
X147234128Y-90020201D01*
X147250063Y-90004266D01*
X147265998Y-90020201D01*
G37*
G36*
X147234128Y-90753200D02*
G01*
X147218194Y-90769134D01*
X147202259Y-90753200D01*
X147218194Y-90737265D01*
X147234128Y-90753200D01*
G37*
G36*
X147202259Y-89924592D02*
G01*
X147186324Y-89940527D01*
X147170389Y-89924592D01*
X147186324Y-89908658D01*
X147202259Y-89924592D01*
G37*
G36*
X147170389Y-97382058D02*
G01*
X147154455Y-97397993D01*
X147138520Y-97382058D01*
X147154455Y-97366123D01*
X147170389Y-97382058D01*
G37*
G36*
X147138520Y-90721330D02*
G01*
X147122585Y-90737265D01*
X147106650Y-90721330D01*
X147122585Y-90705395D01*
X147138520Y-90721330D01*
G37*
G36*
X147138520Y-89860853D02*
G01*
X147122585Y-89876788D01*
X147106650Y-89860853D01*
X147122585Y-89844919D01*
X147138520Y-89860853D01*
G37*
G36*
X147106650Y-85526600D02*
G01*
X147090716Y-85542535D01*
X147074781Y-85526600D01*
X147090716Y-85510665D01*
X147106650Y-85526600D01*
G37*
G36*
X147042911Y-90434504D02*
G01*
X147026977Y-90450439D01*
X147011042Y-90434504D01*
X147026977Y-90418570D01*
X147042911Y-90434504D01*
G37*
G36*
X146979172Y-89892723D02*
G01*
X146963238Y-89908658D01*
X146947303Y-89892723D01*
X146963238Y-89876788D01*
X146979172Y-89892723D01*
G37*
G36*
X146915433Y-95310540D02*
G01*
X146899499Y-95326474D01*
X146883564Y-95310540D01*
X146899499Y-95294605D01*
X146915433Y-95310540D01*
G37*
G36*
X146883564Y-85749686D02*
G01*
X146867629Y-85765621D01*
X146851694Y-85749686D01*
X146867629Y-85733752D01*
X146883564Y-85749686D01*
G37*
G36*
X146756086Y-95597365D02*
G01*
X146740151Y-95613300D01*
X146724216Y-95597365D01*
X146740151Y-95581430D01*
X146756086Y-95597365D01*
G37*
G36*
X146724216Y-95916060D02*
G01*
X146708282Y-95931995D01*
X146692347Y-95916060D01*
X146708282Y-95900126D01*
X146724216Y-95916060D01*
G37*
G36*
X146628608Y-104967001D02*
G01*
X146612673Y-104982936D01*
X146596738Y-104967001D01*
X146612673Y-104951067D01*
X146628608Y-104967001D01*
G37*
G36*
X146596738Y-101907528D02*
G01*
X146580803Y-101923463D01*
X146564869Y-101907528D01*
X146580803Y-101891594D01*
X146596738Y-101907528D01*
G37*
G36*
X146596738Y-99389837D02*
G01*
X146580803Y-99405772D01*
X146564869Y-99389837D01*
X146580803Y-99373902D01*
X146596738Y-99389837D01*
G37*
G36*
X146596738Y-97860100D02*
G01*
X146580803Y-97876035D01*
X146564869Y-97860100D01*
X146580803Y-97844166D01*
X146596738Y-97860100D01*
G37*
G36*
X146501130Y-102353701D02*
G01*
X146485195Y-102369636D01*
X146469260Y-102353701D01*
X146485195Y-102337767D01*
X146501130Y-102353701D01*
G37*
G36*
X146501130Y-101907528D02*
G01*
X146485195Y-101923463D01*
X146469260Y-101907528D01*
X146485195Y-101891594D01*
X146501130Y-101907528D01*
G37*
G36*
X146469260Y-85494730D02*
G01*
X146453325Y-85510665D01*
X146437391Y-85494730D01*
X146453325Y-85478796D01*
X146469260Y-85494730D01*
G37*
G36*
X146437391Y-88490464D02*
G01*
X146421456Y-88506399D01*
X146405521Y-88490464D01*
X146421456Y-88474530D01*
X146437391Y-88490464D01*
G37*
G36*
X146373652Y-88554203D02*
G01*
X146357717Y-88570138D01*
X146341782Y-88554203D01*
X146357717Y-88538269D01*
X146373652Y-88554203D01*
G37*
G36*
X146341782Y-88490464D02*
G01*
X146325847Y-88506399D01*
X146309913Y-88490464D01*
X146325847Y-88474530D01*
X146341782Y-88490464D01*
G37*
G36*
X146341782Y-86227729D02*
G01*
X146325847Y-86243664D01*
X146309913Y-86227729D01*
X146325847Y-86211794D01*
X146341782Y-86227729D01*
G37*
G36*
X146278043Y-88554203D02*
G01*
X146262108Y-88570138D01*
X146246174Y-88554203D01*
X146262108Y-88538269D01*
X146278043Y-88554203D01*
G37*
G36*
X146278043Y-86195860D02*
G01*
X146262108Y-86211794D01*
X146246174Y-86195860D01*
X146262108Y-86179925D01*
X146278043Y-86195860D01*
G37*
G36*
X146246174Y-88745420D02*
G01*
X146230239Y-88761355D01*
X146214304Y-88745420D01*
X146230239Y-88729486D01*
X146246174Y-88745420D01*
G37*
G36*
X146214304Y-85749686D02*
G01*
X146198369Y-85765621D01*
X146182435Y-85749686D01*
X146198369Y-85733752D01*
X146214304Y-85749686D01*
G37*
G36*
X146118696Y-86514555D02*
G01*
X146102761Y-86530489D01*
X146086826Y-86514555D01*
X146102761Y-86498620D01*
X146118696Y-86514555D01*
G37*
G36*
X146086826Y-87884944D02*
G01*
X146070891Y-87900878D01*
X146054957Y-87884944D01*
X146070891Y-87869009D01*
X146086826Y-87884944D01*
G37*
G36*
X145991218Y-98401882D02*
G01*
X145975283Y-98417817D01*
X145959348Y-98401882D01*
X145975283Y-98385947D01*
X145991218Y-98401882D01*
G37*
G36*
X145991218Y-86610163D02*
G01*
X145975283Y-86626098D01*
X145959348Y-86610163D01*
X145975283Y-86594228D01*
X145991218Y-86610163D01*
G37*
G36*
X145959348Y-102544919D02*
G01*
X145943413Y-102560853D01*
X145927479Y-102544919D01*
X145943413Y-102528984D01*
X145959348Y-102544919D01*
G37*
G36*
X145959348Y-99612924D02*
G01*
X145943413Y-99628858D01*
X145927479Y-99612924D01*
X145943413Y-99596989D01*
X145959348Y-99612924D01*
G37*
G36*
X145959348Y-88171769D02*
G01*
X145943413Y-88187704D01*
X145927479Y-88171769D01*
X145943413Y-88155834D01*
X145959348Y-88171769D01*
G37*
G36*
X145927479Y-102449310D02*
G01*
X145911544Y-102465245D01*
X145895609Y-102449310D01*
X145911544Y-102433375D01*
X145927479Y-102449310D01*
G37*
G36*
X145831870Y-103628482D02*
G01*
X145815935Y-103644417D01*
X145800000Y-103628482D01*
X145815935Y-103612547D01*
X145831870Y-103628482D01*
G37*
G36*
X145831870Y-102194354D02*
G01*
X145815935Y-102210289D01*
X145800000Y-102194354D01*
X145815935Y-102178419D01*
X145831870Y-102194354D01*
G37*
G36*
X145736261Y-98401882D02*
G01*
X145720327Y-98417817D01*
X145704392Y-98401882D01*
X145720327Y-98385947D01*
X145736261Y-98401882D01*
G37*
G36*
X145672522Y-102003137D02*
G01*
X145656588Y-102019072D01*
X145640653Y-102003137D01*
X145656588Y-101987202D01*
X145672522Y-102003137D01*
G37*
G36*
X145672522Y-86642033D02*
G01*
X145656588Y-86657967D01*
X145640653Y-86642033D01*
X145656588Y-86626098D01*
X145672522Y-86642033D01*
G37*
G36*
X145449436Y-97860100D02*
G01*
X145433501Y-97876035D01*
X145417566Y-97860100D01*
X145433501Y-97844166D01*
X145449436Y-97860100D01*
G37*
G36*
X145449436Y-86291468D02*
G01*
X145433501Y-86307403D01*
X145417566Y-86291468D01*
X145433501Y-86275533D01*
X145449436Y-86291468D01*
G37*
G36*
X145417566Y-101684442D02*
G01*
X145401632Y-101700377D01*
X145385697Y-101684442D01*
X145401632Y-101668507D01*
X145417566Y-101684442D01*
G37*
G36*
X145290088Y-99039272D02*
G01*
X145274154Y-99055207D01*
X145258219Y-99039272D01*
X145274154Y-99023338D01*
X145290088Y-99039272D01*
G37*
G36*
X145194480Y-99357967D02*
G01*
X145178545Y-99373902D01*
X145162610Y-99357967D01*
X145178545Y-99342033D01*
X145194480Y-99357967D01*
G37*
G36*
X144716437Y-98242535D02*
G01*
X144700502Y-98258469D01*
X144684568Y-98242535D01*
X144700502Y-98226600D01*
X144716437Y-98242535D01*
G37*
G36*
X144525220Y-84761732D02*
G01*
X144509285Y-84777666D01*
X144493351Y-84761732D01*
X144509285Y-84745797D01*
X144525220Y-84761732D01*
G37*
G36*
X144493351Y-84825471D02*
G01*
X144477416Y-84841405D01*
X144461481Y-84825471D01*
X144477416Y-84809536D01*
X144493351Y-84825471D01*
G37*
G36*
X144461481Y-98465621D02*
G01*
X144445546Y-98481556D01*
X144429612Y-98465621D01*
X144445546Y-98449686D01*
X144461481Y-98465621D01*
G37*
G36*
X144461481Y-85749686D02*
G01*
X144445546Y-85765621D01*
X144429612Y-85749686D01*
X144445546Y-85733752D01*
X144461481Y-85749686D01*
G37*
G36*
X144429612Y-99804141D02*
G01*
X144413677Y-99820075D01*
X144397742Y-99804141D01*
X144413677Y-99788206D01*
X144429612Y-99804141D01*
G37*
G36*
X144429612Y-99644793D02*
G01*
X144413677Y-99660728D01*
X144397742Y-99644793D01*
X144413677Y-99628858D01*
X144429612Y-99644793D01*
G37*
G36*
X144429612Y-96808407D02*
G01*
X144413677Y-96824341D01*
X144397742Y-96808407D01*
X144413677Y-96792472D01*
X144429612Y-96808407D01*
G37*
G36*
X144397742Y-99867880D02*
G01*
X144381807Y-99883814D01*
X144365872Y-99867880D01*
X144381807Y-99851945D01*
X144397742Y-99867880D01*
G37*
G36*
X144397742Y-99708532D02*
G01*
X144381807Y-99724467D01*
X144365872Y-99708532D01*
X144381807Y-99692597D01*
X144397742Y-99708532D01*
G37*
G36*
X144302133Y-99708532D02*
G01*
X144286199Y-99724467D01*
X144270264Y-99708532D01*
X144286199Y-99692597D01*
X144302133Y-99708532D01*
G37*
G36*
X144238394Y-99644793D02*
G01*
X144222460Y-99660728D01*
X144206525Y-99644793D01*
X144222460Y-99628858D01*
X144238394Y-99644793D01*
G37*
G36*
X143696613Y-99134881D02*
G01*
X143680678Y-99150816D01*
X143664743Y-99134881D01*
X143680678Y-99118946D01*
X143696613Y-99134881D01*
G37*
G36*
X143696613Y-84060602D02*
G01*
X143680678Y-84076537D01*
X143664743Y-84060602D01*
X143680678Y-84044668D01*
X143696613Y-84060602D01*
G37*
G36*
X143664743Y-85622208D02*
G01*
X143648809Y-85638143D01*
X143632874Y-85622208D01*
X143648809Y-85606274D01*
X143664743Y-85622208D01*
G37*
G36*
X143473526Y-99995358D02*
G01*
X143457591Y-100011292D01*
X143441657Y-99995358D01*
X143457591Y-99979423D01*
X143473526Y-99995358D01*
G37*
G36*
X143346048Y-97190841D02*
G01*
X143330113Y-97206776D01*
X143314179Y-97190841D01*
X143330113Y-97174906D01*
X143346048Y-97190841D01*
G37*
G36*
X143250440Y-100186575D02*
G01*
X143234505Y-100202510D01*
X143218570Y-100186575D01*
X143234505Y-100170640D01*
X143250440Y-100186575D01*
G37*
G36*
X143186701Y-100154705D02*
G01*
X143170766Y-100170640D01*
X143154831Y-100154705D01*
X143170766Y-100138770D01*
X143186701Y-100154705D01*
G37*
G36*
X143154831Y-84857340D02*
G01*
X143138896Y-84873275D01*
X143122962Y-84857340D01*
X143138896Y-84841405D01*
X143154831Y-84857340D01*
G37*
G36*
X142899875Y-103341656D02*
G01*
X142883940Y-103357591D01*
X142868005Y-103341656D01*
X142883940Y-103325722D01*
X142899875Y-103341656D01*
G37*
G36*
X142740527Y-102895483D02*
G01*
X142724593Y-102911418D01*
X142708658Y-102895483D01*
X142724593Y-102879548D01*
X142740527Y-102895483D01*
G37*
G36*
X142644919Y-103022961D02*
G01*
X142628984Y-103038896D01*
X142613049Y-103022961D01*
X142628984Y-103007026D01*
X142644919Y-103022961D01*
G37*
G36*
X142326224Y-99644793D02*
G01*
X142310289Y-99660728D01*
X142294354Y-99644793D01*
X142310289Y-99628858D01*
X142326224Y-99644793D01*
G37*
G36*
X142262485Y-102959222D02*
G01*
X142246550Y-102975157D01*
X142230615Y-102959222D01*
X142246550Y-102943287D01*
X142262485Y-102959222D01*
G37*
G36*
X141688834Y-104488959D02*
G01*
X141672899Y-104504893D01*
X141656964Y-104488959D01*
X141672899Y-104473024D01*
X141688834Y-104488959D01*
G37*
G36*
X141625095Y-96935885D02*
G01*
X141609160Y-96951819D01*
X141593225Y-96935885D01*
X141609160Y-96919950D01*
X141625095Y-96935885D01*
G37*
G36*
X141561356Y-105891217D02*
G01*
X141545421Y-105907152D01*
X141529486Y-105891217D01*
X141545421Y-105875282D01*
X141561356Y-105891217D01*
G37*
G36*
X141210791Y-106114304D02*
G01*
X141194856Y-106130239D01*
X141178921Y-106114304D01*
X141194856Y-106098369D01*
X141210791Y-106114304D01*
G37*
G36*
X141147052Y-106178043D02*
G01*
X141131117Y-106193978D01*
X141115182Y-106178043D01*
X141131117Y-106162108D01*
X141147052Y-106178043D01*
G37*
G36*
X141115182Y-103309787D02*
G01*
X141099248Y-103325722D01*
X141083313Y-103309787D01*
X141099248Y-103293852D01*
X141115182Y-103309787D01*
G37*
G36*
X140860226Y-103947177D02*
G01*
X140844292Y-103963112D01*
X140828357Y-103947177D01*
X140844292Y-103931242D01*
X140860226Y-103947177D01*
G37*
G36*
X140350314Y-106369260D02*
G01*
X140334379Y-106385195D01*
X140318445Y-106369260D01*
X140334379Y-106353325D01*
X140350314Y-106369260D01*
G37*
G36*
X140318445Y-106273651D02*
G01*
X140302510Y-106289586D01*
X140286575Y-106273651D01*
X140302510Y-106257717D01*
X140318445Y-106273651D01*
G37*
G36*
X140318445Y-97350188D02*
G01*
X140302510Y-97366123D01*
X140286575Y-97350188D01*
X140302510Y-97334254D01*
X140318445Y-97350188D01*
G37*
G36*
X140127228Y-100728356D02*
G01*
X140111293Y-100744291D01*
X140095358Y-100728356D01*
X140111293Y-100712422D01*
X140127228Y-100728356D01*
G37*
G36*
X140127228Y-100537139D02*
G01*
X140111293Y-100553074D01*
X140095358Y-100537139D01*
X140111293Y-100521205D01*
X140127228Y-100537139D01*
G37*
G36*
X139840402Y-97668883D02*
G01*
X139824467Y-97684818D01*
X139808532Y-97668883D01*
X139824467Y-97652949D01*
X139840402Y-97668883D01*
G37*
G36*
X139457968Y-100122836D02*
G01*
X139442033Y-100138770D01*
X139426098Y-100122836D01*
X139442033Y-100106901D01*
X139457968Y-100122836D01*
G37*
G36*
X139394229Y-98370013D02*
G01*
X139378294Y-98385947D01*
X139362359Y-98370013D01*
X139378294Y-98354078D01*
X139394229Y-98370013D01*
G37*
G36*
X139362359Y-98624969D02*
G01*
X139346425Y-98640903D01*
X139330490Y-98624969D01*
X139346425Y-98609034D01*
X139362359Y-98624969D01*
G37*
G36*
X139362359Y-98433752D02*
G01*
X139346425Y-98449686D01*
X139330490Y-98433752D01*
X139346425Y-98417817D01*
X139362359Y-98433752D01*
G37*
G36*
X138820578Y-100282183D02*
G01*
X138804643Y-100298118D01*
X138788708Y-100282183D01*
X138804643Y-100266249D01*
X138820578Y-100282183D01*
G37*
G36*
X151026600Y-99915684D02*
G01*
X151024300Y-99932556D01*
X151005354Y-99936930D01*
X151001540Y-99932259D01*
X151005354Y-99894438D01*
X151014940Y-99889452D01*
X151026600Y-99915684D01*
G37*
G36*
X149911167Y-87231619D02*
G01*
X149908867Y-87248490D01*
X149889921Y-87252865D01*
X149886107Y-87248194D01*
X149889921Y-87210372D01*
X149899507Y-87205386D01*
X149911167Y-87231619D01*
G37*
G36*
X149847428Y-86721707D02*
G01*
X149845128Y-86738578D01*
X149826182Y-86742953D01*
X149822368Y-86738282D01*
X149826182Y-86700460D01*
X149835768Y-86695474D01*
X149847428Y-86721707D01*
G37*
G36*
X149167545Y-91608365D02*
G01*
X149172531Y-91617951D01*
X149146299Y-91629611D01*
X149129427Y-91627311D01*
X149125053Y-91608365D01*
X149129724Y-91604551D01*
X149167545Y-91608365D01*
G37*
G36*
X147701548Y-85489419D02*
G01*
X147706534Y-85499005D01*
X147680302Y-85510665D01*
X147663430Y-85508365D01*
X147659055Y-85489419D01*
X147663726Y-85485605D01*
X147701548Y-85489419D01*
G37*
G36*
X147361606Y-98545295D02*
G01*
X147359307Y-98562167D01*
X147340360Y-98566541D01*
X147336546Y-98561870D01*
X147340360Y-98524049D01*
X147349946Y-98519063D01*
X147361606Y-98545295D01*
G37*
G36*
X146979172Y-98736512D02*
G01*
X146976872Y-98753384D01*
X146957926Y-98757758D01*
X146954112Y-98753087D01*
X146957926Y-98715266D01*
X146967512Y-98710280D01*
X146979172Y-98736512D01*
G37*
G36*
X146904810Y-85648766D02*
G01*
X146909796Y-85658352D01*
X146883564Y-85670013D01*
X146866692Y-85667713D01*
X146862317Y-85648766D01*
X146866989Y-85644952D01*
X146904810Y-85648766D01*
G37*
G36*
X146554246Y-85967461D02*
G01*
X146559231Y-85977047D01*
X146532999Y-85988708D01*
X146516128Y-85986408D01*
X146511753Y-85967461D01*
X146516424Y-85963647D01*
X146554246Y-85967461D01*
G37*
G36*
X146501130Y-97939774D02*
G01*
X146498830Y-97956646D01*
X146479883Y-97961021D01*
X146476069Y-97956350D01*
X146479883Y-97918528D01*
X146489469Y-97913542D01*
X146501130Y-97939774D01*
G37*
G36*
X146405521Y-100043162D02*
G01*
X146403221Y-100060034D01*
X146384275Y-100064408D01*
X146380461Y-100059737D01*
X146384275Y-100021916D01*
X146393861Y-100016930D01*
X146405521Y-100043162D01*
G37*
G36*
X146426768Y-88803848D02*
G01*
X146431753Y-88813434D01*
X146405521Y-88825094D01*
X146388650Y-88822794D01*
X146384275Y-88803848D01*
X146388946Y-88800034D01*
X146426768Y-88803848D01*
G37*
G36*
X146246174Y-98226600D02*
G01*
X146243874Y-98243471D01*
X146224927Y-98247846D01*
X146221113Y-98243175D01*
X146224927Y-98205354D01*
X146234513Y-98200368D01*
X146246174Y-98226600D01*
G37*
G36*
X146246174Y-86275533D02*
G01*
X146243874Y-86292405D01*
X146224927Y-86296780D01*
X146221113Y-86292109D01*
X146224927Y-86254287D01*
X146234513Y-86249301D01*
X146246174Y-86275533D01*
G37*
G36*
X146023087Y-86530489D02*
G01*
X146020787Y-86547361D01*
X146001841Y-86551736D01*
X145998027Y-86547065D01*
X146001841Y-86509243D01*
X146011426Y-86504257D01*
X146023087Y-86530489D01*
G37*
G36*
X146044333Y-86381765D02*
G01*
X146049319Y-86391351D01*
X146023087Y-86403011D01*
X146006215Y-86400711D01*
X146001841Y-86381765D01*
X146006512Y-86377951D01*
X146044333Y-86381765D01*
G37*
G36*
X145927479Y-103612547D02*
G01*
X145925179Y-103629419D01*
X145906232Y-103633793D01*
X145902418Y-103629122D01*
X145906232Y-103591301D01*
X145915818Y-103586315D01*
X145927479Y-103612547D01*
G37*
G36*
X145343204Y-101551652D02*
G01*
X145348190Y-101561238D01*
X145321958Y-101572898D01*
X145305086Y-101570599D01*
X145300711Y-101551652D01*
X145305382Y-101547838D01*
X145343204Y-101551652D01*
G37*
G36*
X145130741Y-97334254D02*
G01*
X145128441Y-97351125D01*
X145109494Y-97355500D01*
X145105680Y-97350829D01*
X145109494Y-97313007D01*
X145119080Y-97308021D01*
X145130741Y-97334254D01*
G37*
G36*
X144493351Y-99820075D02*
G01*
X144491051Y-99836947D01*
X144472104Y-99841322D01*
X144468290Y-99836651D01*
X144472104Y-99798829D01*
X144481690Y-99793843D01*
X144493351Y-99820075D01*
G37*
G36*
X144493351Y-85446926D02*
G01*
X144491051Y-85463798D01*
X144472104Y-85468172D01*
X144468290Y-85463501D01*
X144472104Y-85425680D01*
X144481690Y-85420694D01*
X144493351Y-85446926D01*
G37*
G36*
X141656964Y-104632372D02*
G01*
X141654664Y-104649243D01*
X141635718Y-104653618D01*
X141631904Y-104648947D01*
X141635718Y-104611125D01*
X141645304Y-104606139D01*
X141656964Y-104632372D01*
G37*
G36*
X141025549Y-97089396D02*
G01*
X141040301Y-97100868D01*
X141006295Y-97108651D01*
X140973971Y-97106398D01*
X140964466Y-97091912D01*
X140975741Y-97085597D01*
X141025549Y-97089396D01*
G37*
G36*
X140753995Y-100978001D02*
G01*
X140758980Y-100987587D01*
X140732748Y-100999247D01*
X140715877Y-100996947D01*
X140711502Y-100978001D01*
X140716173Y-100974187D01*
X140753995Y-100978001D01*
G37*
G36*
X139171142Y-99087077D02*
G01*
X139168842Y-99103948D01*
X139149896Y-99108323D01*
X139146082Y-99103652D01*
X139149896Y-99065830D01*
X139159482Y-99060844D01*
X139171142Y-99087077D01*
G37*
G36*
X139139273Y-98895860D02*
G01*
X139136973Y-98912731D01*
X139118026Y-98917106D01*
X139114212Y-98912435D01*
X139118026Y-98874613D01*
X139127612Y-98869627D01*
X139139273Y-98895860D01*
G37*
G36*
X151027076Y-88858435D02*
G01*
X151106274Y-88919285D01*
X151033567Y-88919994D01*
X150985211Y-88910123D01*
X150941989Y-88871524D01*
X150931583Y-88820585D01*
X150959214Y-88815054D01*
X151027076Y-88858435D01*
G37*
G36*
X147061889Y-100898715D02*
G01*
X147052052Y-100912872D01*
X147025096Y-100935508D01*
X147020641Y-100935198D01*
X147013622Y-100916750D01*
X147047835Y-100884661D01*
X147065646Y-100876906D01*
X147061889Y-100898715D01*
G37*
G36*
X146998150Y-85665089D02*
G01*
X146993916Y-85671576D01*
X146962427Y-85700927D01*
X146947303Y-85687828D01*
X146950152Y-85680660D01*
X146984096Y-85651035D01*
X147001907Y-85643280D01*
X146998150Y-85665089D01*
G37*
G36*
X146265152Y-88437736D02*
G01*
X146255314Y-88451893D01*
X146228358Y-88474530D01*
X146223903Y-88474219D01*
X146216884Y-88455771D01*
X146251098Y-88423682D01*
X146268908Y-88415928D01*
X146265152Y-88437736D01*
G37*
G36*
X143938677Y-99337109D02*
G01*
X143928839Y-99351266D01*
X143901884Y-99373902D01*
X143897428Y-99373592D01*
X143890410Y-99355144D01*
X143924623Y-99323055D01*
X143942434Y-99315300D01*
X143938677Y-99337109D01*
G37*
G36*
X139471854Y-98395289D02*
G01*
X139455960Y-98425031D01*
X139432253Y-98434595D01*
X139428840Y-98419233D01*
X139454013Y-98377449D01*
X139458211Y-98373331D01*
X139481557Y-98358057D01*
X139471854Y-98395289D01*
G37*
G36*
X146965079Y-100936942D02*
G01*
X146995107Y-100967378D01*
X147001043Y-100978661D01*
X146998869Y-100999247D01*
X146993266Y-100997813D01*
X146963238Y-100967378D01*
X146957302Y-100956094D01*
X146959476Y-100935508D01*
X146965079Y-100936942D01*
G37*
G36*
X144586376Y-85325881D02*
G01*
X144631036Y-85407089D01*
X144651801Y-85449920D01*
X144771753Y-85621653D01*
X144928484Y-85741816D01*
X145124547Y-85812509D01*
X145192184Y-85838514D01*
X145220301Y-85882807D01*
X145191235Y-85931562D01*
X145106156Y-85974477D01*
X145002675Y-86008051D01*
X145138414Y-86069832D01*
X145149133Y-86074588D01*
X145252863Y-86108209D01*
X145381054Y-86126341D01*
X145552972Y-86131866D01*
X145584992Y-86132009D01*
X145724716Y-86136967D01*
X145805691Y-86149367D01*
X145831831Y-86169741D01*
X145816153Y-86196192D01*
X145760164Y-86221172D01*
X145620211Y-86239307D01*
X145355533Y-86229070D01*
X145098380Y-86164742D01*
X144862255Y-86050389D01*
X144660665Y-85890079D01*
X144656417Y-85885766D01*
X144567432Y-85784734D01*
X144528858Y-85715158D01*
X144541182Y-85678898D01*
X144604894Y-85677813D01*
X144658052Y-85680928D01*
X144684568Y-85665593D01*
X144684304Y-85661801D01*
X144657028Y-85638143D01*
X144634784Y-85616030D01*
X144600435Y-85552553D01*
X144564686Y-85468832D01*
X144536596Y-85386290D01*
X144525220Y-85326350D01*
X144527979Y-85301557D01*
X144549551Y-85288817D01*
X144586376Y-85325881D01*
G37*
G36*
X153011898Y-84741921D02*
G01*
X152989944Y-84828543D01*
X152919707Y-85006148D01*
X152811959Y-85231807D01*
X152758748Y-85339450D01*
X152709726Y-85444662D01*
X152695336Y-85479304D01*
X152680025Y-85516163D01*
X152674689Y-85542535D01*
X152702455Y-85531975D01*
X152771854Y-85497231D01*
X152864488Y-85446654D01*
X152944688Y-85404781D01*
X153009513Y-85378475D01*
X153034379Y-85379206D01*
X153033191Y-85385344D01*
X153000593Y-85431534D01*
X152935876Y-85496026D01*
X152855884Y-85564240D01*
X152777462Y-85621597D01*
X152717453Y-85653517D01*
X152676387Y-85672075D01*
X152659116Y-85696619D01*
X152717701Y-85820017D01*
X152807189Y-86036977D01*
X152885262Y-86260388D01*
X152947122Y-86474660D01*
X152987967Y-86664205D01*
X153002998Y-86813434D01*
X153006015Y-86874600D01*
X153025628Y-86961640D01*
X153059544Y-87000844D01*
X153103165Y-86984364D01*
X153133106Y-86963754D01*
X153206063Y-86944793D01*
X153214195Y-86944846D01*
X153245690Y-86950701D01*
X153237760Y-86975524D01*
X153187649Y-87032434D01*
X153113879Y-87121807D01*
X153053212Y-87226572D01*
X153032371Y-87312128D01*
X153053062Y-87369813D01*
X153116994Y-87390966D01*
X153117096Y-87390966D01*
X153200289Y-87410791D01*
X153284309Y-87458363D01*
X153369008Y-87525759D01*
X153239025Y-87504288D01*
X153156271Y-87496608D01*
X153088885Y-87516391D01*
X153049355Y-87578558D01*
X153025728Y-87693727D01*
X153022548Y-87716879D01*
X153008215Y-87808316D01*
X152984201Y-87961511D01*
X152936795Y-88216302D01*
X152884224Y-88462861D01*
X152830385Y-88682798D01*
X152779172Y-88857720D01*
X152727037Y-89004010D01*
X152544121Y-89406800D01*
X152316999Y-89775463D01*
X152050261Y-90104807D01*
X151748495Y-90389640D01*
X151416291Y-90624770D01*
X151058237Y-90805003D01*
X151009519Y-90825270D01*
X150904108Y-90871885D01*
X150830921Y-90908304D01*
X150803514Y-90927982D01*
X150803687Y-90929772D01*
X150830583Y-90970029D01*
X150894813Y-91037228D01*
X150984165Y-91120412D01*
X151086426Y-91208623D01*
X151189385Y-91290901D01*
X151280830Y-91356289D01*
X151370464Y-91408826D01*
X151467511Y-91453078D01*
X151535786Y-91469972D01*
X151615850Y-91455232D01*
X151742860Y-91405063D01*
X151893044Y-91325577D01*
X152052778Y-91223275D01*
X152084120Y-91201650D01*
X152176826Y-91144109D01*
X152235832Y-91125616D01*
X152273494Y-91145089D01*
X152302169Y-91201447D01*
X152310158Y-91224862D01*
X152331396Y-91381050D01*
X152313201Y-91556361D01*
X152259839Y-91728144D01*
X152175575Y-91873744D01*
X152112145Y-91954383D01*
X152300419Y-92048465D01*
X152500840Y-92171565D01*
X152715794Y-92369663D01*
X152892789Y-92615684D01*
X153030146Y-92906642D01*
X153126188Y-93239553D01*
X153179236Y-93611434D01*
X153182314Y-93661708D01*
X153183964Y-93807756D01*
X153177703Y-93965403D01*
X153164978Y-94119581D01*
X153147235Y-94255225D01*
X153125922Y-94357267D01*
X153102484Y-94410640D01*
X153096877Y-94415304D01*
X153057994Y-94409478D01*
X153015930Y-94349485D01*
X152976388Y-94242911D01*
X152973094Y-94231444D01*
X152957211Y-94182398D01*
X152948270Y-94178705D01*
X152943879Y-94226495D01*
X152941645Y-94331896D01*
X152915218Y-94637490D01*
X152884335Y-94763446D01*
X152829405Y-94987476D01*
X152682655Y-95342409D01*
X152635893Y-95432385D01*
X152546487Y-95585122D01*
X152453201Y-95724658D01*
X152362847Y-95842405D01*
X152282240Y-95929777D01*
X152218193Y-95978185D01*
X152177519Y-95979044D01*
X152162613Y-95934772D01*
X152190675Y-95855890D01*
X152195255Y-95847030D01*
X152225348Y-95784204D01*
X152229498Y-95758182D01*
X152202922Y-95771029D01*
X152140836Y-95824811D01*
X152038457Y-95921591D01*
X152011063Y-95947572D01*
X151889252Y-96055359D01*
X151888220Y-96056272D01*
X151755908Y-96158653D01*
X151598293Y-96266348D01*
X151399540Y-96390990D01*
X151310372Y-96445378D01*
X151381964Y-96563153D01*
X151390806Y-96577516D01*
X151463347Y-96687949D01*
X151537924Y-96792472D01*
X151593691Y-96868013D01*
X151681153Y-96989166D01*
X151789074Y-97140321D01*
X151909252Y-97309867D01*
X152033485Y-97486196D01*
X152153570Y-97657696D01*
X152261304Y-97812759D01*
X152348487Y-97939774D01*
X152533585Y-98228707D01*
X152734420Y-98581726D01*
X152910950Y-98935511D01*
X153051669Y-99268325D01*
X153053457Y-99273072D01*
X153108542Y-99430960D01*
X153162755Y-99605886D01*
X153212018Y-99782425D01*
X153252254Y-99945152D01*
X153279385Y-100078640D01*
X153289335Y-100167464D01*
X153289359Y-100171286D01*
X153299109Y-100238484D01*
X153321205Y-100266249D01*
X153324567Y-100268140D01*
X153336570Y-100313957D01*
X153344384Y-100404018D01*
X153345531Y-100417233D01*
X153351136Y-100572968D01*
X153353074Y-100776161D01*
X153352956Y-100829950D01*
X153350093Y-101022002D01*
X153343638Y-101165374D01*
X153333905Y-101255065D01*
X153321205Y-101286073D01*
X153300118Y-101306392D01*
X153289335Y-101366775D01*
X153287030Y-101395713D01*
X153265014Y-101491751D01*
X153225404Y-101611573D01*
X153175243Y-101738171D01*
X153121571Y-101854538D01*
X153071434Y-101943665D01*
X153031872Y-101988544D01*
X152985233Y-102004244D01*
X152866042Y-101998085D01*
X152707415Y-101943971D01*
X152508766Y-101841675D01*
X152269511Y-101690967D01*
X151956329Y-101473291D01*
X151659669Y-101249181D01*
X151415315Y-101041025D01*
X151219644Y-100844750D01*
X151069031Y-100656282D01*
X150959852Y-100471548D01*
X150888482Y-100286474D01*
X150851297Y-100096987D01*
X150832623Y-99988917D01*
X150770022Y-99805281D01*
X150663708Y-99606710D01*
X150508883Y-99383203D01*
X150488262Y-99355998D01*
X150424715Y-99277546D01*
X150377165Y-99237927D01*
X150328619Y-99226876D01*
X150262082Y-99234130D01*
X150109829Y-99233669D01*
X149920617Y-99184503D01*
X149916681Y-99182685D01*
X150510761Y-99182685D01*
X150517460Y-99196721D01*
X150556704Y-99259501D01*
X150620813Y-99352070D01*
X150699876Y-99459900D01*
X150716769Y-99482671D01*
X150851483Y-99696743D01*
X150934516Y-99897872D01*
X150962861Y-100078983D01*
X150962862Y-100079440D01*
X150972332Y-100154776D01*
X150995997Y-100255394D01*
X151027259Y-100359334D01*
X151059517Y-100444634D01*
X151086173Y-100489335D01*
X151112872Y-100524931D01*
X151150615Y-100591170D01*
X151166765Y-100619075D01*
X151247190Y-100724342D01*
X151364628Y-100849289D01*
X151507145Y-100981830D01*
X151662811Y-101109883D01*
X151676338Y-101120233D01*
X151768722Y-101187708D01*
X151840352Y-101234718D01*
X151876689Y-101251625D01*
X151907893Y-101235670D01*
X151975600Y-101189563D01*
X152062359Y-101124283D01*
X152136243Y-101072927D01*
X152270588Y-100998849D01*
X152396277Y-100948580D01*
X152559858Y-100914272D01*
X152753058Y-100895217D01*
X152943283Y-100894057D01*
X153101903Y-100912266D01*
X153217231Y-100936827D01*
X153238036Y-100721048D01*
X153242334Y-100404018D01*
X153198653Y-100052426D01*
X153108676Y-99673432D01*
X152974182Y-99273208D01*
X152796948Y-98857924D01*
X152578754Y-98433752D01*
X152550354Y-98384505D01*
X152463451Y-98243900D01*
X152351183Y-98071592D01*
X152220238Y-97877035D01*
X152077305Y-97669683D01*
X151929071Y-97458989D01*
X151782224Y-97254408D01*
X151643454Y-97065393D01*
X151519448Y-96901398D01*
X151416895Y-96771878D01*
X151342482Y-96686284D01*
X151290846Y-96630497D01*
X151238212Y-96567482D01*
X151217817Y-96533864D01*
X151217530Y-96532212D01*
X151187219Y-96528820D01*
X151122209Y-96547271D01*
X151117492Y-96549082D01*
X151053140Y-96581062D01*
X151026600Y-96608242D01*
X151020461Y-96620154D01*
X150976627Y-96633124D01*
X150967694Y-96633669D01*
X150943987Y-96650441D01*
X150937512Y-96701273D01*
X150945623Y-96800439D01*
X150952983Y-96874487D01*
X150965997Y-97123396D01*
X150965616Y-97310743D01*
X150965449Y-97392577D01*
X150952392Y-97665335D01*
X150927877Y-97924978D01*
X150892957Y-98154812D01*
X150848685Y-98338143D01*
X150830137Y-98397127D01*
X150802307Y-98485660D01*
X150785978Y-98537662D01*
X150781568Y-98553171D01*
X150777228Y-98585466D01*
X150774635Y-98595532D01*
X150761708Y-98624969D01*
X150751594Y-98648002D01*
X150711970Y-98728545D01*
X150689561Y-98774594D01*
X150663348Y-98838794D01*
X150660984Y-98863990D01*
X150660833Y-98874382D01*
X150657958Y-98879925D01*
X150635341Y-98923531D01*
X150586685Y-98999435D01*
X150555116Y-99050365D01*
X150518125Y-99130616D01*
X150510761Y-99182685D01*
X149916681Y-99182685D01*
X149713799Y-99088964D01*
X149497194Y-98951410D01*
X149408019Y-98879925D01*
X149624342Y-98879925D01*
X149640277Y-98895860D01*
X149656211Y-98879925D01*
X149879298Y-98879925D01*
X149895233Y-98895860D01*
X149911167Y-98879925D01*
X149895233Y-98863990D01*
X149879298Y-98879925D01*
X149656211Y-98879925D01*
X149640277Y-98863990D01*
X149624342Y-98879925D01*
X149408019Y-98879925D01*
X149278619Y-98776194D01*
X149124344Y-98624969D01*
X149815559Y-98624969D01*
X149831494Y-98640903D01*
X149847428Y-98624969D01*
X149831494Y-98609034D01*
X149815559Y-98624969D01*
X149124344Y-98624969D01*
X149065893Y-98567674D01*
X149060068Y-98561230D01*
X150261732Y-98561230D01*
X150277667Y-98577164D01*
X150293601Y-98561230D01*
X150277667Y-98545295D01*
X150261732Y-98561230D01*
X149060068Y-98561230D01*
X149020946Y-98517948D01*
X148917837Y-98396725D01*
X148813389Y-98265941D01*
X148716194Y-98137164D01*
X148634844Y-98021961D01*
X148577930Y-97931899D01*
X148554043Y-97878545D01*
X148543787Y-97845854D01*
X148518266Y-97780427D01*
X148517281Y-97778048D01*
X148468624Y-97622307D01*
X148462272Y-97504875D01*
X148543203Y-97504875D01*
X148544275Y-97577909D01*
X148558064Y-97678994D01*
X148593005Y-97781506D01*
X148656266Y-97911206D01*
X148729634Y-98038175D01*
X148817558Y-98170585D01*
X148898127Y-98274547D01*
X149024499Y-98418114D01*
X149041292Y-98406156D01*
X150044283Y-98406156D01*
X150070515Y-98417817D01*
X150087387Y-98415517D01*
X150091761Y-98396571D01*
X150087090Y-98392756D01*
X150049269Y-98396571D01*
X150044283Y-98406156D01*
X149041292Y-98406156D01*
X149109950Y-98357267D01*
X149144240Y-98338143D01*
X149496864Y-98338143D01*
X149512798Y-98354078D01*
X149528733Y-98338143D01*
X149783689Y-98338143D01*
X149799624Y-98354078D01*
X149815559Y-98338143D01*
X149799624Y-98322208D01*
X149783689Y-98338143D01*
X149528733Y-98338143D01*
X149512798Y-98322208D01*
X149496864Y-98338143D01*
X149144240Y-98338143D01*
X149245479Y-98281681D01*
X149455279Y-98218583D01*
X149685601Y-98196672D01*
X149921675Y-98214529D01*
X150148728Y-98270733D01*
X150295851Y-98338143D01*
X150351990Y-98363865D01*
X150393864Y-98396571D01*
X150516688Y-98492503D01*
X150557460Y-98533585D01*
X150587542Y-98561230D01*
X150616081Y-98587457D01*
X150647221Y-98608695D01*
X150652025Y-98605388D01*
X150674159Y-98559123D01*
X150704839Y-98469127D01*
X150740130Y-98349271D01*
X150776096Y-98213425D01*
X150808803Y-98075459D01*
X150834316Y-97949241D01*
X150845295Y-97869167D01*
X150858171Y-97708522D01*
X150866530Y-97516032D01*
X150870117Y-97310743D01*
X150868675Y-97111705D01*
X150861947Y-96937965D01*
X150849677Y-96808573D01*
X150837473Y-96742738D01*
X150814405Y-96685827D01*
X150782681Y-96678398D01*
X150753984Y-96688306D01*
X150671895Y-96714990D01*
X150554598Y-96752239D01*
X150417112Y-96795252D01*
X150261254Y-96840480D01*
X150136735Y-96866848D01*
X150066445Y-96865632D01*
X150048250Y-96835939D01*
X150080019Y-96776879D01*
X150159618Y-96687558D01*
X150214284Y-96630058D01*
X150272928Y-96560056D01*
X150288986Y-96526218D01*
X150261629Y-96531511D01*
X150190026Y-96578901D01*
X150166934Y-96595714D01*
X149855109Y-96784078D01*
X149505483Y-96932141D01*
X149132494Y-97034807D01*
X148750580Y-97086979D01*
X148668397Y-97098653D01*
X148620185Y-97132515D01*
X148585690Y-97206776D01*
X148570755Y-97261080D01*
X148551683Y-97379346D01*
X148543203Y-97504875D01*
X148462272Y-97504875D01*
X148460505Y-97472200D01*
X148491318Y-97299080D01*
X148514061Y-97202695D01*
X148528535Y-97123990D01*
X148529351Y-97089116D01*
X148526626Y-97087260D01*
X148481167Y-97073416D01*
X148402840Y-97058078D01*
X148349424Y-97053116D01*
X148257514Y-97068639D01*
X148148469Y-97121866D01*
X148011191Y-97211225D01*
X147826333Y-97350922D01*
X147634244Y-97513657D01*
X147452717Y-97685026D01*
X147272936Y-97865410D01*
X147397185Y-98117711D01*
X147464959Y-98266550D01*
X147592681Y-98651465D01*
X147660089Y-99049404D01*
X147667778Y-99456806D01*
X147616341Y-99870111D01*
X147506372Y-100285758D01*
X147338465Y-100700186D01*
X147113214Y-101109835D01*
X146831212Y-101511143D01*
X146827742Y-101515584D01*
X146759400Y-101607928D01*
X146710829Y-101682549D01*
X146692347Y-101723660D01*
X146692377Y-101724419D01*
X146713255Y-101766208D01*
X146765406Y-101839467D01*
X146837927Y-101928828D01*
X146864595Y-101960689D01*
X146980140Y-102110267D01*
X147114274Y-102297889D01*
X147257731Y-102509359D01*
X147401244Y-102730479D01*
X147535544Y-102947055D01*
X147651364Y-103144889D01*
X147739438Y-103309787D01*
X147870697Y-103601148D01*
X147994055Y-103925406D01*
X148098017Y-104251520D01*
X148173319Y-104552947D01*
X148175453Y-104563539D01*
X148198639Y-104710397D01*
X148220631Y-104902258D01*
X148240456Y-105123658D01*
X148257138Y-105359137D01*
X148258949Y-105392877D01*
X148269701Y-105593232D01*
X148275565Y-105763739D01*
X148277172Y-105810481D01*
X148278574Y-105995422D01*
X148272934Y-106132592D01*
X148268421Y-106178043D01*
X148265271Y-106209775D01*
X148237742Y-106376046D01*
X148194853Y-106490532D01*
X148130129Y-106561696D01*
X148037096Y-106597999D01*
X147909281Y-106607903D01*
X147835639Y-106603775D01*
X147630252Y-106562479D01*
X147399840Y-106481756D01*
X147156468Y-106367656D01*
X146912203Y-106226232D01*
X146843163Y-106178043D01*
X147807780Y-106178043D01*
X147823714Y-106193978D01*
X147839649Y-106178043D01*
X147823714Y-106162108D01*
X147807780Y-106178043D01*
X146843163Y-106178043D01*
X146679112Y-106063537D01*
X146469260Y-105885623D01*
X146431864Y-105851413D01*
X146369788Y-105800219D01*
X146335488Y-105779950D01*
X146301191Y-105760206D01*
X146236580Y-105696849D01*
X146152565Y-105600212D01*
X146057362Y-105480977D01*
X145959190Y-105349824D01*
X145866264Y-105217432D01*
X145786801Y-105094481D01*
X145729018Y-104991653D01*
X145720060Y-104973562D01*
X145662075Y-104853460D01*
X145628502Y-104770347D01*
X145615442Y-104706513D01*
X145618996Y-104644247D01*
X145635263Y-104565838D01*
X145646039Y-104506947D01*
X145659298Y-104389418D01*
X145668143Y-104253881D01*
X145672194Y-104116623D01*
X145671071Y-103993931D01*
X145664395Y-103902091D01*
X145651786Y-103857390D01*
X145636441Y-103860481D01*
X145582367Y-103896923D01*
X145500752Y-103964219D01*
X145402327Y-104053916D01*
X145353961Y-104099096D01*
X145232640Y-104207141D01*
X145117304Y-104303538D01*
X145027571Y-104371654D01*
X144975554Y-104411018D01*
X144880678Y-104499201D01*
X144813180Y-104582732D01*
X144811869Y-104584841D01*
X144716635Y-104706331D01*
X144584715Y-104834916D01*
X144437204Y-104952012D01*
X144295200Y-105039033D01*
X144122031Y-105109710D01*
X143892262Y-105174944D01*
X143644958Y-105221537D01*
X143404075Y-105243979D01*
X143275402Y-105245537D01*
X143178097Y-105236359D01*
X143142401Y-105214344D01*
X143168319Y-105178634D01*
X143255855Y-105128370D01*
X143405013Y-105062693D01*
X143422558Y-105055447D01*
X143685182Y-104927630D01*
X143885625Y-104788458D01*
X144024561Y-104636968D01*
X144102665Y-104472196D01*
X144120611Y-104293176D01*
X144079075Y-104098944D01*
X144056529Y-104038621D01*
X143981429Y-103881587D01*
X143879290Y-103727720D01*
X143737558Y-103557108D01*
X143680700Y-103498084D01*
X143584697Y-103408485D01*
X143474671Y-103313128D01*
X143362763Y-103221844D01*
X143261111Y-103144467D01*
X143181855Y-103090830D01*
X143137135Y-103070765D01*
X143111842Y-103098598D01*
X143087036Y-103181872D01*
X143064370Y-103312044D01*
X143044284Y-103480511D01*
X143027219Y-103678665D01*
X143013617Y-103897903D01*
X143003918Y-104129617D01*
X142998562Y-104365203D01*
X142997991Y-104596055D01*
X143002646Y-104813568D01*
X143012966Y-105009136D01*
X143029394Y-105174153D01*
X143047265Y-105311442D01*
X143065416Y-105457271D01*
X143078923Y-105572522D01*
X143079393Y-105576731D01*
X143110739Y-105777097D01*
X143145781Y-105939475D01*
X143147976Y-105949645D01*
X143163707Y-106022541D01*
X143235411Y-106299657D01*
X143260227Y-106394422D01*
X143270922Y-106465175D01*
X143262313Y-106514997D01*
X143234313Y-106565242D01*
X143218706Y-106585774D01*
X143129088Y-106658986D01*
X143013265Y-106714037D01*
X142900899Y-106735759D01*
X142862872Y-106741872D01*
X142836136Y-106767629D01*
X142835374Y-106769441D01*
X142794372Y-106779958D01*
X142692887Y-106788337D01*
X142533710Y-106794462D01*
X142319635Y-106798220D01*
X142053452Y-106799498D01*
X142026113Y-106799488D01*
X141758063Y-106797999D01*
X141549395Y-106794023D01*
X141401186Y-106787606D01*
X141314516Y-106778793D01*
X141290465Y-106767629D01*
X141292468Y-106761892D01*
X141265470Y-106742855D01*
X141188770Y-106735718D01*
X141141413Y-106732840D01*
X141018047Y-106714648D01*
X140861795Y-106683393D01*
X140690544Y-106643375D01*
X140522178Y-106598894D01*
X140374584Y-106554251D01*
X140265647Y-106513747D01*
X140229652Y-106497384D01*
X140162150Y-106457546D01*
X140133308Y-106411780D01*
X140127228Y-106340147D01*
X140127594Y-106310458D01*
X140129716Y-106282955D01*
X140249011Y-106282955D01*
X140258373Y-106355663D01*
X140292993Y-106401416D01*
X140364808Y-106435277D01*
X140485760Y-106472306D01*
X140531000Y-106485492D01*
X140684519Y-106529043D01*
X140790782Y-106554635D01*
X140860930Y-106562492D01*
X140906102Y-106552833D01*
X140937438Y-106525880D01*
X140966078Y-106481856D01*
X140991297Y-106444626D01*
X141072667Y-106348216D01*
X141178167Y-106240762D01*
X141289480Y-106140344D01*
X141388293Y-106065043D01*
X141388559Y-106064869D01*
X141436321Y-106021016D01*
X141442102Y-105987285D01*
X141434928Y-105977607D01*
X141451181Y-105979519D01*
X141456324Y-105981126D01*
X141511384Y-105976438D01*
X141586362Y-105959230D01*
X142427470Y-105959230D01*
X142453702Y-105970891D01*
X142470573Y-105968591D01*
X142474948Y-105949645D01*
X142470277Y-105945830D01*
X142432456Y-105949645D01*
X142427470Y-105959230D01*
X141586362Y-105959230D01*
X141605651Y-105954803D01*
X141722072Y-105919970D01*
X141888048Y-105870772D01*
X142192240Y-105811174D01*
X142472896Y-105797043D01*
X142723057Y-105828463D01*
X142935762Y-105905517D01*
X142972072Y-105923093D01*
X143034520Y-105944784D01*
X143059223Y-105939475D01*
X143056088Y-105909879D01*
X143044546Y-105827485D01*
X143026499Y-105707936D01*
X143004056Y-105565519D01*
X142997885Y-105525756D01*
X142982753Y-105410690D01*
X142971177Y-105287018D01*
X142962825Y-105145554D01*
X142957359Y-104977113D01*
X142954447Y-104772508D01*
X142953753Y-104522555D01*
X142954942Y-104218068D01*
X142955659Y-104107517D01*
X142957637Y-103860346D01*
X142959959Y-103632470D01*
X142962505Y-103432778D01*
X142965152Y-103270158D01*
X142967782Y-103153499D01*
X142970272Y-103091690D01*
X142979549Y-102969203D01*
X142714930Y-102827934D01*
X142649667Y-102794304D01*
X142539805Y-102743592D01*
X142456915Y-102713052D01*
X142415213Y-102708357D01*
X142401156Y-102714810D01*
X142399548Y-102698605D01*
X142398882Y-102691507D01*
X142364154Y-102659927D01*
X142296476Y-102617787D01*
X142214649Y-102575184D01*
X142137472Y-102542217D01*
X142083748Y-102528984D01*
X142081371Y-102528749D01*
X142036951Y-102513546D01*
X141964541Y-102481892D01*
X141862296Y-102438665D01*
X141744451Y-102396320D01*
X141625152Y-102359007D01*
X141516694Y-102330009D01*
X141431375Y-102312606D01*
X141381489Y-102310080D01*
X141379332Y-102325714D01*
X141381345Y-102343808D01*
X141363409Y-102406225D01*
X141325032Y-102493028D01*
X141300664Y-102543169D01*
X141255656Y-102644476D01*
X141227308Y-102720201D01*
X141199620Y-102800320D01*
X141160743Y-102895483D01*
X141140324Y-102943320D01*
X141088334Y-103076371D01*
X141024055Y-103251002D01*
X140951864Y-103454447D01*
X140876137Y-103673940D01*
X140801250Y-103896716D01*
X140731579Y-104110010D01*
X140671501Y-104301056D01*
X140625391Y-104457089D01*
X140602365Y-104538655D01*
X140561036Y-104683329D01*
X140524996Y-104807654D01*
X140485863Y-104948839D01*
X140431654Y-105167226D01*
X140379525Y-105400552D01*
X140332511Y-105633556D01*
X140293645Y-105850978D01*
X140265964Y-106037561D01*
X140252499Y-106178043D01*
X140249011Y-106282955D01*
X140129716Y-106282955D01*
X140143161Y-106108669D01*
X140180085Y-105857251D01*
X140236193Y-105564248D01*
X140309309Y-105237703D01*
X140397258Y-104885659D01*
X140497866Y-104516159D01*
X140608958Y-104137246D01*
X140728359Y-103756964D01*
X140853893Y-103383356D01*
X140983387Y-103024464D01*
X141114666Y-102688331D01*
X141129688Y-102651482D01*
X141188214Y-102507047D01*
X141236527Y-102386473D01*
X141269962Y-102301460D01*
X141283858Y-102263711D01*
X141283300Y-102258487D01*
X141249312Y-102228738D01*
X141178921Y-102195320D01*
X140982511Y-102120744D01*
X140726404Y-102021538D01*
X140516744Y-101936780D01*
X140345259Y-101862410D01*
X140203677Y-101794368D01*
X140083727Y-101728593D01*
X139977136Y-101661027D01*
X139875632Y-101587609D01*
X139770945Y-101504280D01*
X139701918Y-101448549D01*
X139639109Y-101400261D01*
X139610581Y-101381681D01*
X139601549Y-101401531D01*
X139592734Y-101461596D01*
X139577956Y-101527482D01*
X139540482Y-101625268D01*
X139489660Y-101730547D01*
X139434436Y-101826531D01*
X139383758Y-101896432D01*
X139346573Y-101923463D01*
X139330212Y-101921162D01*
X139305689Y-101900142D01*
X139286504Y-101848152D01*
X139269368Y-101754322D01*
X139250988Y-101607784D01*
X139243144Y-101552337D01*
X139176086Y-101304846D01*
X139056365Y-101037395D01*
X138887487Y-100756883D01*
X138672957Y-100470212D01*
X138649520Y-100441070D01*
X138548531Y-100302055D01*
X138456291Y-100155367D01*
X138380662Y-100015291D01*
X138329508Y-99896110D01*
X138310691Y-99812108D01*
X138305834Y-99782642D01*
X138278796Y-99756336D01*
X138271441Y-99749572D01*
X138258434Y-99692729D01*
X138249956Y-99585691D01*
X138248812Y-99529802D01*
X138379111Y-99529802D01*
X138428716Y-99808593D01*
X138540997Y-100076671D01*
X138715852Y-100333067D01*
X138736292Y-100357038D01*
X138837976Y-100462323D01*
X138961231Y-100574736D01*
X139089877Y-100680767D01*
X139207734Y-100766907D01*
X139298620Y-100819646D01*
X139355704Y-100847926D01*
X139394229Y-100874377D01*
X139415676Y-100890380D01*
X139473932Y-100920126D01*
X139575664Y-100965436D01*
X139728859Y-101030023D01*
X139754225Y-101040000D01*
X139847479Y-101073621D01*
X139973115Y-101116498D01*
X140111293Y-101161796D01*
X140159470Y-101176892D01*
X140298434Y-101214679D01*
X140431234Y-101239052D01*
X140569277Y-101249982D01*
X140723969Y-101247443D01*
X140906717Y-101231407D01*
X141128928Y-101201848D01*
X141402008Y-101158739D01*
X141515085Y-101137903D01*
X141767285Y-101076867D01*
X142006223Y-101000351D01*
X142014614Y-100996887D01*
X143941146Y-100996887D01*
X143942237Y-100997703D01*
X143987911Y-101016637D01*
X144076292Y-101044353D01*
X144189318Y-101075156D01*
X144204278Y-101079101D01*
X144348467Y-101125440D01*
X144511737Y-101188814D01*
X144661564Y-101256717D01*
X144712218Y-101281881D01*
X144816708Y-101332989D01*
X144891487Y-101368424D01*
X144922949Y-101381681D01*
X144922594Y-101375090D01*
X144905517Y-101324417D01*
X144870533Y-101234619D01*
X144822625Y-101118758D01*
X144801969Y-101068873D01*
X144736288Y-100900433D01*
X144668191Y-100714377D01*
X144609500Y-100542663D01*
X144595800Y-100500653D01*
X144553699Y-100375725D01*
X144523877Y-100300676D01*
X144501074Y-100266795D01*
X144480030Y-100265376D01*
X144455481Y-100287707D01*
X144426575Y-100327684D01*
X144375289Y-100415921D01*
X144322736Y-100521205D01*
X144286768Y-100596101D01*
X144257860Y-100645064D01*
X144214661Y-100718231D01*
X144132015Y-100812089D01*
X144020820Y-100900287D01*
X143995526Y-100919405D01*
X143947655Y-100967401D01*
X143941146Y-100996887D01*
X142014614Y-100996887D01*
X142215081Y-100914129D01*
X142377044Y-100823976D01*
X142480519Y-100753756D01*
X141853622Y-100735047D01*
X141801067Y-100733408D01*
X141492532Y-100719864D01*
X141229395Y-100699592D01*
X140995874Y-100670219D01*
X140776184Y-100629374D01*
X140554541Y-100574682D01*
X140315161Y-100503772D01*
X140174705Y-100460467D01*
X140045528Y-100422450D01*
X139948702Y-100395936D01*
X139898381Y-100384959D01*
X139872043Y-100379136D01*
X139858666Y-100358088D01*
X139853539Y-100342003D01*
X139810485Y-100296809D01*
X139736948Y-100238520D01*
X139702418Y-100212266D01*
X140077863Y-100212266D01*
X140083681Y-100250314D01*
X140100577Y-100296215D01*
X140133515Y-100344263D01*
X140189692Y-100383440D01*
X140281941Y-100421984D01*
X140423096Y-100468130D01*
X140593449Y-100518396D01*
X140773331Y-100563233D01*
X140954082Y-100597256D01*
X141156655Y-100624319D01*
X141402008Y-100648281D01*
X141465825Y-100653742D01*
X141625552Y-100666096D01*
X141752275Y-100672331D01*
X141868858Y-100672705D01*
X141998165Y-100667480D01*
X142163062Y-100656913D01*
X142334529Y-100645064D01*
X142317805Y-100431754D01*
X142317609Y-100429316D01*
X142301880Y-100313356D01*
X142272192Y-100157059D01*
X142232726Y-99980596D01*
X142187667Y-99804141D01*
X142173848Y-99752692D01*
X142093236Y-99400168D01*
X142039852Y-99062525D01*
X142015378Y-98753125D01*
X142015583Y-98744163D01*
X142134469Y-98744163D01*
X142148172Y-98991033D01*
X142185869Y-99273367D01*
X142246693Y-99583004D01*
X142329777Y-99911784D01*
X142364334Y-100045633D01*
X142403691Y-100219503D01*
X142433414Y-100373892D01*
X142437959Y-100400864D01*
X142458912Y-100508864D01*
X142479976Y-100570223D01*
X142508070Y-100598868D01*
X142550118Y-100608726D01*
X142558507Y-100609256D01*
X142649901Y-100597761D01*
X142777211Y-100563246D01*
X142922510Y-100511951D01*
X143067875Y-100450121D01*
X143195382Y-100383998D01*
X143206033Y-100377603D01*
X143350258Y-100261279D01*
X143356976Y-100252381D01*
X144616740Y-100252381D01*
X144621767Y-100271652D01*
X144646812Y-100242811D01*
X144650938Y-100237501D01*
X144666105Y-100248368D01*
X144671820Y-100312671D01*
X144681823Y-100410769D01*
X144706291Y-100495455D01*
X144708522Y-100500300D01*
X144738313Y-100571159D01*
X144780655Y-100678249D01*
X144827147Y-100800374D01*
X144840709Y-100836126D01*
X144926117Y-101040300D01*
X145019208Y-101232789D01*
X145101670Y-101381681D01*
X145114923Y-101405610D01*
X145208205Y-101550783D01*
X145293997Y-101660326D01*
X145367243Y-101726257D01*
X145422884Y-101740596D01*
X145432758Y-101743504D01*
X145428944Y-101780433D01*
X145424032Y-101804530D01*
X145441786Y-101827855D01*
X145451311Y-101832362D01*
X145493155Y-101876445D01*
X145554170Y-101956656D01*
X145625260Y-102059537D01*
X145697328Y-102171632D01*
X145761278Y-102279484D01*
X145808014Y-102369636D01*
X145812926Y-102380558D01*
X145885455Y-102600921D01*
X145922650Y-102842543D01*
X145924314Y-103086980D01*
X145890248Y-103315790D01*
X145820254Y-103510530D01*
X145779242Y-103594523D01*
X145752996Y-103673602D01*
X145750391Y-103751711D01*
X145766804Y-103858981D01*
X145788521Y-104020801D01*
X145792351Y-104296115D01*
X145756411Y-104552698D01*
X145745481Y-104601820D01*
X145735156Y-104689279D01*
X145749193Y-104765325D01*
X145791339Y-104863269D01*
X145817864Y-104920910D01*
X145850851Y-105001416D01*
X145863739Y-105046519D01*
X145864690Y-105054271D01*
X145895609Y-105078545D01*
X145905755Y-105080447D01*
X145927479Y-105114946D01*
X145941940Y-105149162D01*
X145993804Y-105223276D01*
X146074953Y-105323240D01*
X146176529Y-105438684D01*
X146289671Y-105559238D01*
X146405521Y-105674531D01*
X146422672Y-105690840D01*
X146505639Y-105767218D01*
X146567783Y-105820353D01*
X146596738Y-105839575D01*
X146610830Y-105830443D01*
X146660299Y-105787146D01*
X146684583Y-105763739D01*
X147202259Y-105763739D01*
X147218194Y-105779674D01*
X147234128Y-105763739D01*
X147218194Y-105747804D01*
X147202259Y-105763739D01*
X146684583Y-105763739D01*
X146729198Y-105720735D01*
X146771525Y-105683178D01*
X146908111Y-105593397D01*
X147075921Y-105514906D01*
X147109376Y-105502130D01*
X147397055Y-105413139D01*
X147653725Y-105372934D01*
X147876329Y-105381745D01*
X148061812Y-105439807D01*
X148079180Y-105448398D01*
X148146339Y-105480045D01*
X148179175Y-105492848D01*
X148186866Y-105467731D01*
X148189914Y-105392877D01*
X148187977Y-105282752D01*
X148181580Y-105152015D01*
X148171249Y-105015321D01*
X148157506Y-104887328D01*
X148155341Y-104870937D01*
X148120394Y-104662610D01*
X148070378Y-104429812D01*
X148010812Y-104194498D01*
X147947218Y-103978623D01*
X147885118Y-103804145D01*
X147864946Y-103755145D01*
X147722735Y-103438594D01*
X147563013Y-103125695D01*
X147392709Y-102827996D01*
X147218752Y-102557046D01*
X147048071Y-102324393D01*
X146887593Y-102141585D01*
X146816726Y-102068334D01*
X146727924Y-101971773D01*
X146662691Y-101895433D01*
X146634228Y-101861927D01*
X146574086Y-101817054D01*
X146511311Y-101816212D01*
X146482251Y-101821764D01*
X146442555Y-101812014D01*
X146454481Y-101770137D01*
X146517832Y-101699655D01*
X146561344Y-101654737D01*
X146635001Y-101568946D01*
X146716287Y-101466769D01*
X146795487Y-101361250D01*
X146862883Y-101265437D01*
X146908760Y-101192375D01*
X146923401Y-101155109D01*
X146922304Y-101148945D01*
X146941936Y-101126725D01*
X146969008Y-101113102D01*
X147023051Y-101049241D01*
X147090000Y-100942126D01*
X147164918Y-100801746D01*
X147242871Y-100638090D01*
X147318922Y-100461148D01*
X147388137Y-100280907D01*
X147445581Y-100107358D01*
X147485605Y-99946828D01*
X147523940Y-99707793D01*
X147545106Y-99453807D01*
X147548999Y-99200108D01*
X147535513Y-98961933D01*
X147504544Y-98754517D01*
X147455987Y-98593099D01*
X147444993Y-98565668D01*
X147413535Y-98478947D01*
X147378683Y-98375501D01*
X147341470Y-98269536D01*
X147288303Y-98146047D01*
X147239908Y-98064698D01*
X147201441Y-98035383D01*
X147187164Y-98040770D01*
X147170389Y-98083187D01*
X147167727Y-98105071D01*
X147146487Y-98131193D01*
X147117842Y-98153221D01*
X147071588Y-98224061D01*
X147016369Y-98331207D01*
X146957939Y-98461716D01*
X146902046Y-98602645D01*
X146854443Y-98741051D01*
X146820880Y-98863990D01*
X146793056Y-98968362D01*
X146760163Y-99065249D01*
X146736394Y-99144079D01*
X146724216Y-99232564D01*
X146714376Y-99282803D01*
X146681168Y-99310163D01*
X146649451Y-99307360D01*
X146546888Y-99279498D01*
X146438402Y-99232378D01*
X146356618Y-99179168D01*
X146348629Y-99172012D01*
X146313513Y-99146778D01*
X146283681Y-99151239D01*
X146245866Y-99193358D01*
X146186802Y-99281099D01*
X146117259Y-99370550D01*
X146008448Y-99483028D01*
X145894318Y-99579490D01*
X145866486Y-99599178D01*
X145737163Y-99675689D01*
X145592693Y-99742610D01*
X145444991Y-99796573D01*
X145305970Y-99834206D01*
X145187546Y-99852141D01*
X145101632Y-99847006D01*
X145060143Y-99815433D01*
X145056554Y-99809428D01*
X145009012Y-99786553D01*
X144928528Y-99775596D01*
X144898592Y-99775062D01*
X144844406Y-99781052D01*
X144804852Y-99807432D01*
X144766260Y-99866747D01*
X144714956Y-99971541D01*
X144693178Y-100019707D01*
X144655304Y-100115028D01*
X144628872Y-100196379D01*
X144616740Y-100252381D01*
X143356976Y-100252381D01*
X143459025Y-100117225D01*
X143518469Y-99963488D01*
X143521948Y-99939897D01*
X143520271Y-99813817D01*
X143495191Y-99641528D01*
X143448020Y-99432911D01*
X143444505Y-99418965D01*
X143429914Y-99321157D01*
X143450907Y-99270822D01*
X143514011Y-99262783D01*
X143625750Y-99291862D01*
X143790085Y-99362488D01*
X143988341Y-99492267D01*
X144159693Y-99654428D01*
X144291900Y-99836912D01*
X144372721Y-100027662D01*
X144407997Y-100159555D01*
X144507335Y-100061522D01*
X144555163Y-100004764D01*
X144628901Y-99901112D01*
X144713331Y-99770632D01*
X144798017Y-99628858D01*
X144897217Y-99454067D01*
X144976106Y-99308866D01*
X145036282Y-99185636D01*
X145084576Y-99067613D01*
X145127816Y-98938035D01*
X145172830Y-98780140D01*
X145226447Y-98577164D01*
X145321908Y-98210665D01*
X145303963Y-98442787D01*
X145284375Y-98602236D01*
X145215378Y-98902556D01*
X145107777Y-99211759D01*
X144968027Y-99509348D01*
X144942618Y-99556956D01*
X144920604Y-99607343D01*
X144928739Y-99626090D01*
X144966871Y-99628858D01*
X145011516Y-99615216D01*
X145087928Y-99554947D01*
X145168908Y-99459280D01*
X145243155Y-99342194D01*
X145299366Y-99217665D01*
X145304544Y-99203317D01*
X145344064Y-99114771D01*
X145380739Y-99062129D01*
X145407293Y-99053013D01*
X145416447Y-99095044D01*
X145416238Y-99100011D01*
X145404956Y-99181329D01*
X145381293Y-99294564D01*
X145351096Y-99416041D01*
X145320209Y-99522085D01*
X145294478Y-99589021D01*
X145277249Y-99624117D01*
X145279587Y-99654643D01*
X145332016Y-99660728D01*
X145346572Y-99660264D01*
X145427455Y-99647692D01*
X145513155Y-99623454D01*
X145581117Y-99594972D01*
X145608783Y-99569668D01*
X145627099Y-99544223D01*
X145680490Y-99503926D01*
X145718690Y-99480862D01*
X145734471Y-99477643D01*
X145707818Y-99512965D01*
X145704254Y-99517339D01*
X145674960Y-99568136D01*
X145690566Y-99584633D01*
X145742711Y-99566730D01*
X145823035Y-99514328D01*
X145962742Y-99392086D01*
X146159886Y-99153817D01*
X146190900Y-99095314D01*
X146204774Y-99014200D01*
X146198246Y-98895860D01*
X146179480Y-98720577D01*
X146256413Y-98879925D01*
X146261698Y-98890736D01*
X146356060Y-99045241D01*
X146458224Y-99146712D01*
X146562924Y-99189824D01*
X146580270Y-99191235D01*
X146614298Y-99183903D01*
X146639755Y-99151087D01*
X146663609Y-99080435D01*
X146692828Y-98959599D01*
X146741647Y-98769578D01*
X146850440Y-98461136D01*
X146994784Y-98175441D01*
X147182764Y-97897564D01*
X147422466Y-97612579D01*
X147434519Y-97599811D01*
X147518521Y-97520706D01*
X147633510Y-97422101D01*
X147763832Y-97316444D01*
X147893831Y-97216182D01*
X148007852Y-97133763D01*
X148090240Y-97081634D01*
X148137267Y-97051668D01*
X148151105Y-97019544D01*
X148112137Y-96985385D01*
X148016179Y-96941261D01*
X147998227Y-96933347D01*
X147901609Y-96875959D01*
X147807099Y-96800060D01*
X147727716Y-96718670D01*
X147676480Y-96644806D01*
X147666409Y-96591489D01*
X147698621Y-96566905D01*
X147782354Y-96538678D01*
X147902489Y-96514445D01*
X148100481Y-96469705D01*
X148283143Y-96395856D01*
X148423113Y-96300724D01*
X148513500Y-96189102D01*
X148547414Y-96065784D01*
X148547580Y-96055359D01*
X148540018Y-95953718D01*
X148519436Y-95850821D01*
X148490653Y-95759472D01*
X148458487Y-95692478D01*
X148427757Y-95662642D01*
X148403283Y-95682771D01*
X148391295Y-95701698D01*
X148383947Y-95671024D01*
X148378773Y-95651250D01*
X148334325Y-95618153D01*
X148236294Y-95595441D01*
X148189318Y-95589507D01*
X148067426Y-95585220D01*
X147932449Y-95598008D01*
X147773037Y-95629936D01*
X147577839Y-95683073D01*
X147335506Y-95759485D01*
X147286839Y-95775311D01*
X147115871Y-95827577D01*
X146977199Y-95864968D01*
X146875028Y-95887341D01*
X146813561Y-95894551D01*
X146797005Y-95886456D01*
X146829564Y-95862913D01*
X146915443Y-95823779D01*
X147058846Y-95768909D01*
X147140229Y-95739346D01*
X147302343Y-95679863D01*
X147453333Y-95623782D01*
X147568758Y-95580151D01*
X147608793Y-95565448D01*
X147735897Y-95529973D01*
X147876201Y-95510863D01*
X148054688Y-95504216D01*
X148125707Y-95503082D01*
X148240643Y-95498535D01*
X148319913Y-95491664D01*
X148349481Y-95483456D01*
X148338932Y-95465569D01*
X148293817Y-95412815D01*
X148225250Y-95341585D01*
X148222411Y-95338775D01*
X148103951Y-95244927D01*
X147994196Y-95207757D01*
X147894938Y-95194826D01*
X147627584Y-95133194D01*
X147338294Y-95032451D01*
X147320365Y-95025279D01*
X147187734Y-94977909D01*
X147102279Y-94961539D01*
X147056504Y-94975870D01*
X147051649Y-94991845D01*
X147042911Y-95020600D01*
X147041055Y-95032423D01*
X147003054Y-95101237D01*
X146916177Y-95210364D01*
X146780624Y-95359571D01*
X146704260Y-95438018D01*
X146611190Y-95533626D01*
X146596592Y-95548622D01*
X146588427Y-95556808D01*
X146482459Y-95661104D01*
X146435520Y-95707303D01*
X146312991Y-95820452D01*
X146308796Y-95824326D01*
X146192439Y-95921061D01*
X146112621Y-95979799D01*
X146070637Y-96010695D01*
X146021549Y-96043538D01*
X145927576Y-96106412D01*
X145923582Y-96109002D01*
X145648445Y-96277324D01*
X145546581Y-96330364D01*
X145389407Y-96412204D01*
X145197434Y-96492372D01*
X145126507Y-96521991D01*
X144839786Y-96615033D01*
X144509285Y-96699681D01*
X144406838Y-96724298D01*
X144196901Y-96779760D01*
X143994301Y-96839353D01*
X143808137Y-96899870D01*
X143647505Y-96958106D01*
X143521505Y-97010857D01*
X143439233Y-97054916D01*
X143409787Y-97087077D01*
X143401619Y-97099655D01*
X143354644Y-97111167D01*
X143325026Y-97117557D01*
X143243307Y-97153761D01*
X143135228Y-97213856D01*
X143016092Y-97288546D01*
X142901202Y-97368536D01*
X142844254Y-97413927D01*
X142805858Y-97444531D01*
X142712181Y-97529958D01*
X142528869Y-97723597D01*
X142385891Y-97923812D01*
X142270874Y-98149631D01*
X142171443Y-98420080D01*
X142145624Y-98540917D01*
X142134469Y-98744163D01*
X142015583Y-98744163D01*
X142021499Y-98485327D01*
X142045706Y-98266951D01*
X142089068Y-97981435D01*
X142142309Y-97711918D01*
X142201154Y-97482263D01*
X142204304Y-97471625D01*
X142219809Y-97413927D01*
X142549310Y-97413927D01*
X142565245Y-97429862D01*
X142581180Y-97413927D01*
X142565245Y-97397993D01*
X142549310Y-97413927D01*
X142219809Y-97413927D01*
X142233218Y-97364028D01*
X142249649Y-97283767D01*
X142250118Y-97247525D01*
X142241705Y-97241940D01*
X142183893Y-97247226D01*
X142093828Y-97292305D01*
X141980592Y-97371844D01*
X141968624Y-97382058D01*
X141853267Y-97480512D01*
X141815137Y-97516465D01*
X141643596Y-97704486D01*
X141528206Y-97889371D01*
X141467097Y-98080403D01*
X141458397Y-98286862D01*
X141500237Y-98518031D01*
X141590746Y-98783192D01*
X141605389Y-98820090D01*
X141647942Y-98931596D01*
X141677659Y-99016094D01*
X141688834Y-99057615D01*
X141664803Y-99077781D01*
X141601192Y-99086899D01*
X141525057Y-99082009D01*
X141333511Y-99026758D01*
X141157217Y-98913102D01*
X141028135Y-98802613D01*
X141011939Y-99096225D01*
X140997450Y-99259088D01*
X140938715Y-99544986D01*
X140840399Y-99783017D01*
X140703028Y-99972081D01*
X140527130Y-100111076D01*
X140427823Y-100162788D01*
X140326611Y-100192712D01*
X140215226Y-100195687D01*
X140166190Y-100193130D01*
X140100662Y-100195158D01*
X140077863Y-100212266D01*
X139702418Y-100212266D01*
X139665387Y-100184110D01*
X139565947Y-100099512D01*
X139479187Y-100016507D01*
X139417778Y-99947443D01*
X139394391Y-99904669D01*
X139394192Y-99902332D01*
X139374085Y-99856607D01*
X139331103Y-99789067D01*
X139273035Y-99682177D01*
X139218557Y-99509835D01*
X139189701Y-99317307D01*
X139191333Y-99127630D01*
X139204455Y-99032251D01*
X139222120Y-98956688D01*
X139239282Y-98927729D01*
X139256541Y-98912031D01*
X139267459Y-98856023D01*
X139285255Y-98784431D01*
X139330490Y-98704643D01*
X139331383Y-98703497D01*
X139375010Y-98639405D01*
X139393520Y-98596184D01*
X139393909Y-98593418D01*
X139422902Y-98549591D01*
X139490411Y-98477091D01*
X139585921Y-98385391D01*
X139698917Y-98283961D01*
X139818885Y-98182272D01*
X139935308Y-98089794D01*
X140037671Y-98016000D01*
X140038139Y-98015688D01*
X140271677Y-97877749D01*
X140560290Y-97737370D01*
X140895610Y-97598027D01*
X141269269Y-97463199D01*
X141527488Y-97382058D01*
X141688834Y-97382058D01*
X141704768Y-97397993D01*
X141720703Y-97382058D01*
X141704768Y-97366123D01*
X141688834Y-97382058D01*
X141527488Y-97382058D01*
X141672899Y-97336365D01*
X141841706Y-97286831D01*
X142004685Y-97237073D01*
X142123279Y-97195597D01*
X142206764Y-97156904D01*
X142264415Y-97115492D01*
X142305506Y-97065863D01*
X142339312Y-97002516D01*
X142375110Y-96919950D01*
X142396213Y-96872534D01*
X142458588Y-96745256D01*
X142523675Y-96625157D01*
X142560020Y-96557929D01*
X142585391Y-96492372D01*
X142576066Y-96471862D01*
X142531782Y-96500437D01*
X142501856Y-96518842D01*
X142425721Y-96556080D01*
X142326224Y-96599362D01*
X142253186Y-96629599D01*
X142133457Y-96679595D01*
X142039398Y-96719364D01*
X142028912Y-96723848D01*
X141936580Y-96763100D01*
X141864116Y-96793558D01*
X141856369Y-96796609D01*
X141786250Y-96820402D01*
X141678614Y-96853793D01*
X141553388Y-96890560D01*
X141518353Y-96900861D01*
X141410332Y-96936835D01*
X141334815Y-96968582D01*
X141306399Y-96990212D01*
X141304563Y-96999115D01*
X141276614Y-97000912D01*
X141248018Y-96999639D01*
X141166701Y-97012456D01*
X141046740Y-97038583D01*
X140900610Y-97074887D01*
X140740790Y-97118235D01*
X140579757Y-97165493D01*
X140429988Y-97213528D01*
X140310523Y-97256401D01*
X139929598Y-97426736D01*
X139573300Y-97637095D01*
X139249340Y-97881172D01*
X138965425Y-98152660D01*
X138729263Y-98445254D01*
X138548564Y-98752649D01*
X138468339Y-98943969D01*
X138392284Y-99241271D01*
X138379111Y-99529802D01*
X138248812Y-99529802D01*
X138246926Y-99437641D01*
X138247603Y-99364092D01*
X138253287Y-99234022D01*
X138263991Y-99149245D01*
X138278796Y-99118946D01*
X138298796Y-99102763D01*
X138310665Y-99046341D01*
X138320561Y-98991024D01*
X138358860Y-98883752D01*
X138418963Y-98750418D01*
X138493339Y-98606320D01*
X138574460Y-98466758D01*
X138654796Y-98347032D01*
X138747134Y-98233428D01*
X138898945Y-98070601D01*
X139075729Y-97899164D01*
X139261647Y-97733701D01*
X139440858Y-97588797D01*
X139597521Y-97479038D01*
X139868517Y-97327519D01*
X140254343Y-97159570D01*
X140693898Y-97015752D01*
X140743432Y-97001721D01*
X141043598Y-96916273D01*
X141290717Y-96844954D01*
X141492143Y-96785463D01*
X141655229Y-96735500D01*
X141787331Y-96692765D01*
X141895802Y-96654958D01*
X141987996Y-96619777D01*
X142071268Y-96584923D01*
X142252669Y-96505361D01*
X142426343Y-96426788D01*
X142561727Y-96360366D01*
X142614697Y-96330364D01*
X145162610Y-96330364D01*
X145178545Y-96346299D01*
X145194480Y-96330364D01*
X145178545Y-96314429D01*
X145162610Y-96330364D01*
X142614697Y-96330364D01*
X142669933Y-96299078D01*
X142762073Y-96235909D01*
X142849258Y-96163845D01*
X142942600Y-96075869D01*
X142974846Y-96043538D01*
X143983438Y-96043538D01*
X143999373Y-96059473D01*
X144015308Y-96043538D01*
X145513175Y-96043538D01*
X145529110Y-96059473D01*
X145545044Y-96043538D01*
X145529110Y-96027604D01*
X145513175Y-96043538D01*
X144015308Y-96043538D01*
X143999373Y-96027604D01*
X143983438Y-96043538D01*
X142974846Y-96043538D01*
X143038417Y-95979799D01*
X144079047Y-95979799D01*
X144094982Y-95995734D01*
X144110916Y-95979799D01*
X144094982Y-95963865D01*
X144079047Y-95979799D01*
X143038417Y-95979799D01*
X143053212Y-95964965D01*
X143123261Y-95895080D01*
X143202835Y-95820452D01*
X144174655Y-95820452D01*
X144190590Y-95836387D01*
X144206525Y-95820452D01*
X144190590Y-95804517D01*
X144174655Y-95820452D01*
X143202835Y-95820452D01*
X143249213Y-95776957D01*
X143378980Y-95667200D01*
X143386990Y-95661104D01*
X146214304Y-95661104D01*
X146230239Y-95677039D01*
X146246174Y-95661104D01*
X146230239Y-95645169D01*
X146214304Y-95661104D01*
X143386990Y-95661104D01*
X143525414Y-95555762D01*
X143557038Y-95533626D01*
X146373652Y-95533626D01*
X146389586Y-95549561D01*
X146405521Y-95533626D01*
X146389586Y-95517691D01*
X146373652Y-95533626D01*
X143557038Y-95533626D01*
X143693625Y-95438018D01*
X144557090Y-95438018D01*
X144573024Y-95453952D01*
X144588959Y-95438018D01*
X144573024Y-95422083D01*
X144557090Y-95438018D01*
X143693625Y-95438018D01*
X143701370Y-95432597D01*
X143919699Y-95287658D01*
X144239720Y-95072879D01*
X144351640Y-94991845D01*
X145098871Y-94991845D01*
X145114806Y-95007779D01*
X145130741Y-94991845D01*
X145114806Y-94975910D01*
X145098871Y-94991845D01*
X144351640Y-94991845D01*
X144636608Y-94785519D01*
X144652111Y-94773032D01*
X146761723Y-94773032D01*
X146787955Y-94784693D01*
X146804827Y-94782393D01*
X146809202Y-94763446D01*
X146804531Y-94759632D01*
X146766709Y-94763446D01*
X146761723Y-94773032D01*
X144652111Y-94773032D01*
X144983802Y-94505875D01*
X145288003Y-94228112D01*
X145555914Y-93946391D01*
X145794236Y-93654876D01*
X145961867Y-93433340D01*
X145883516Y-93392287D01*
X145852711Y-93378939D01*
X145766900Y-93366788D01*
X145645431Y-93381528D01*
X145524961Y-93396977D01*
X145270557Y-93383627D01*
X145015247Y-93310986D01*
X144763696Y-93181733D01*
X144520569Y-92998549D01*
X144290531Y-92764113D01*
X144078246Y-92481107D01*
X144004676Y-92365235D01*
X143806646Y-91991967D01*
X143667902Y-91614538D01*
X143585461Y-91223393D01*
X143556341Y-90808974D01*
X143553200Y-90418574D01*
X143425722Y-90418261D01*
X143321703Y-90405458D01*
X143159196Y-90349341D01*
X142999187Y-90258431D01*
X142863750Y-90143521D01*
X142827572Y-90103649D01*
X142645519Y-89849358D01*
X142508752Y-89553037D01*
X142416992Y-89213706D01*
X142369959Y-88830383D01*
X142367373Y-88402086D01*
X142373055Y-88301167D01*
X142422981Y-87898040D01*
X142513597Y-87522224D01*
X142642255Y-87182844D01*
X142806309Y-86889021D01*
X142855691Y-86815849D01*
X145632919Y-86815849D01*
X145655776Y-87191049D01*
X145665149Y-87325331D01*
X145679131Y-87484437D01*
X145694013Y-87619081D01*
X145707826Y-87709661D01*
X145714387Y-87742364D01*
X145735854Y-87854903D01*
X145751657Y-87945421D01*
X145757176Y-87977744D01*
X145819938Y-88210424D01*
X145916540Y-88426887D01*
X146039437Y-88615279D01*
X146181086Y-88763746D01*
X146333943Y-88860434D01*
X146458550Y-88904328D01*
X146573959Y-88915478D01*
X146684761Y-88887699D01*
X146736101Y-88862088D01*
X146843431Y-88772236D01*
X146918834Y-88657390D01*
X146947303Y-88537563D01*
X146946957Y-88522024D01*
X146935898Y-88488583D01*
X146896542Y-88480113D01*
X146811857Y-88490726D01*
X146801537Y-88492436D01*
X146677537Y-88524797D01*
X146569456Y-88582974D01*
X146451570Y-88680517D01*
X146415723Y-88712698D01*
X146356637Y-88753694D01*
X146322211Y-88748208D01*
X146300667Y-88697572D01*
X146296689Y-88661647D01*
X146314164Y-88652439D01*
X146314423Y-88652595D01*
X146353158Y-88643292D01*
X146403678Y-88595655D01*
X146440440Y-88560036D01*
X146528356Y-88498845D01*
X146633453Y-88442862D01*
X146709000Y-88408385D01*
X146782183Y-88374494D01*
X146814713Y-88358734D01*
X146815157Y-88357549D01*
X146798974Y-88323135D01*
X146755712Y-88251968D01*
X146693469Y-88157486D01*
X146648533Y-88089223D01*
X146482326Y-87788607D01*
X146363855Y-87486006D01*
X146296367Y-87191261D01*
X146283112Y-86914216D01*
X146287662Y-86825757D01*
X146290488Y-86750542D01*
X146290062Y-86721648D01*
X146276887Y-86726836D01*
X146219762Y-86751361D01*
X146133508Y-86789225D01*
X146047053Y-86822766D01*
X145937414Y-86842910D01*
X145806895Y-86836297D01*
X145632919Y-86815849D01*
X142855691Y-86815849D01*
X142897718Y-86753576D01*
X142765446Y-86753576D01*
X142722905Y-86751821D01*
X142545030Y-86708143D01*
X142377919Y-86613535D01*
X142231128Y-86478355D01*
X142114212Y-86312957D01*
X142036727Y-86127699D01*
X142008229Y-85932936D01*
X142008627Y-85900752D01*
X142021803Y-85802708D01*
X142052564Y-85765430D01*
X142099570Y-85789422D01*
X142161487Y-85875187D01*
X142181536Y-85906873D01*
X142285788Y-86014770D01*
X142411095Y-86062525D01*
X142557620Y-86050209D01*
X142574748Y-86045385D01*
X142698662Y-86002450D01*
X142813491Y-85952132D01*
X142835971Y-85939900D01*
X142922493Y-85883614D01*
X143015730Y-85812892D01*
X143100778Y-85740233D01*
X143162736Y-85678137D01*
X143186701Y-85639103D01*
X143172022Y-85633360D01*
X143111250Y-85639293D01*
X143019386Y-85659515D01*
X142851755Y-85680675D01*
X142665730Y-85656528D01*
X142494026Y-85588051D01*
X142351232Y-85481277D01*
X142251939Y-85342237D01*
X142239706Y-85312027D01*
X142212857Y-85197545D01*
X142199644Y-85060836D01*
X142200325Y-84922964D01*
X142215159Y-84804993D01*
X142244405Y-84727986D01*
X142269530Y-84700280D01*
X142309069Y-84692608D01*
X142346959Y-84740331D01*
X142387927Y-84847381D01*
X142401075Y-84884816D01*
X142482578Y-85034330D01*
X142592054Y-85143463D01*
X142719477Y-85204442D01*
X142854824Y-85209491D01*
X142862619Y-85207960D01*
X142938368Y-85185580D01*
X142979471Y-85160227D01*
X142980639Y-85150036D01*
X142964966Y-85091547D01*
X142927385Y-84997479D01*
X142873533Y-84882603D01*
X142758184Y-84627341D01*
X142655333Y-84341149D01*
X142627464Y-84236738D01*
X142740527Y-84236738D01*
X142748001Y-84285457D01*
X142777128Y-84380865D01*
X142822978Y-84501361D01*
X142879897Y-84634859D01*
X142942229Y-84769278D01*
X143004319Y-84892532D01*
X143060512Y-84992539D01*
X143105153Y-85057216D01*
X143132588Y-85074477D01*
X143145148Y-85069287D01*
X143142828Y-85090000D01*
X143140421Y-85111916D01*
X143168029Y-85180038D01*
X143229866Y-85277505D01*
X143318135Y-85395118D01*
X143425038Y-85523676D01*
X143542779Y-85653979D01*
X143663559Y-85776828D01*
X143779582Y-85883023D01*
X143883050Y-85963364D01*
X143944809Y-86006026D01*
X144013873Y-86055711D01*
X144047177Y-86082456D01*
X144058981Y-86092923D01*
X144123512Y-86133375D01*
X144222459Y-86185704D01*
X144337963Y-86241185D01*
X144452167Y-86291096D01*
X144547212Y-86326714D01*
X144655227Y-86358324D01*
X144797026Y-86395491D01*
X144939524Y-86429439D01*
X144956429Y-86433291D01*
X145092040Y-86471925D01*
X145166756Y-86509876D01*
X145179943Y-86545742D01*
X145130968Y-86578123D01*
X145019197Y-86605619D01*
X144914537Y-86624225D01*
X144829751Y-86643157D01*
X144794712Y-86660368D01*
X144801930Y-86680188D01*
X144843915Y-86706947D01*
X144870132Y-86718304D01*
X144974814Y-86740273D01*
X145116005Y-86750603D01*
X145274717Y-86749192D01*
X145431968Y-86735941D01*
X145568772Y-86710751D01*
X145634029Y-86695847D01*
X145698612Y-86688559D01*
X145714176Y-86699790D01*
X145711825Y-86705578D01*
X145737470Y-86717850D01*
X145818948Y-86708702D01*
X145839121Y-86705014D01*
X145929847Y-86689155D01*
X145991218Y-86679526D01*
X146027889Y-86671495D01*
X146095640Y-86633789D01*
X146166627Y-86558379D01*
X146251918Y-86434881D01*
X146266105Y-86413266D01*
X146340118Y-86312797D01*
X146429948Y-86204368D01*
X146524658Y-86099675D01*
X146613311Y-86010413D01*
X146684973Y-85948279D01*
X146728707Y-85924969D01*
X146740712Y-85920177D01*
X146736922Y-85885132D01*
X146728848Y-85868182D01*
X146739412Y-85868256D01*
X146743301Y-85870615D01*
X146789171Y-85863486D01*
X146856226Y-85826133D01*
X146872230Y-85815683D01*
X146958493Y-85770121D01*
X147078146Y-85716295D01*
X147210388Y-85663743D01*
X147296965Y-85634657D01*
X147541205Y-85577338D01*
X147797697Y-85547088D01*
X148044122Y-85545791D01*
X148258163Y-85575329D01*
X148392631Y-85614564D01*
X148564719Y-85680363D01*
X148735113Y-85759517D01*
X148888895Y-85844373D01*
X149011151Y-85927277D01*
X149086964Y-86000577D01*
X149100537Y-86010595D01*
X149147660Y-86003801D01*
X149168142Y-85994298D01*
X149167055Y-86012777D01*
X149160718Y-86027289D01*
X149160839Y-86079713D01*
X149181952Y-86123106D01*
X149213281Y-86130116D01*
X149224814Y-86139487D01*
X149211926Y-86190894D01*
X149207377Y-86203574D01*
X149202456Y-86269663D01*
X149247491Y-86328161D01*
X149248595Y-86329187D01*
X149255498Y-86335600D01*
X149330286Y-86417079D01*
X149421526Y-86530648D01*
X149514559Y-86656570D01*
X149594726Y-86775108D01*
X149647366Y-86866526D01*
X149657269Y-86885848D01*
X149697856Y-86941740D01*
X149730126Y-86954439D01*
X149743371Y-86949469D01*
X149737938Y-86973341D01*
X149735740Y-86977862D01*
X149736252Y-87035312D01*
X149762436Y-87113710D01*
X149804514Y-87224577D01*
X149850643Y-87406577D01*
X149884753Y-87612899D01*
X149903393Y-87821544D01*
X149903112Y-88010514D01*
X149884512Y-88160013D01*
X149883364Y-88169240D01*
X149836477Y-88371993D01*
X149818264Y-88426725D01*
X149770602Y-88569950D01*
X149770517Y-88570138D01*
X149692446Y-88743466D01*
X149608715Y-88872898D01*
X149576310Y-88909900D01*
X149547266Y-88932595D01*
X149549651Y-88904768D01*
X149564774Y-88864661D01*
X149593143Y-88809159D01*
X149613469Y-88760515D01*
X149632608Y-88681681D01*
X149632644Y-88681476D01*
X149642448Y-88617682D01*
X149634189Y-88611489D01*
X149601128Y-88657779D01*
X149589187Y-88674302D01*
X149580926Y-88681681D01*
X149556212Y-88703757D01*
X149505613Y-88720411D01*
X149422031Y-88727807D01*
X149290107Y-88729486D01*
X149253651Y-88729379D01*
X149123183Y-88724760D01*
X149022717Y-88708675D01*
X148957085Y-88685956D01*
X149151936Y-88685956D01*
X149178169Y-88697616D01*
X149195040Y-88695316D01*
X149198189Y-88681681D01*
X149528733Y-88681681D01*
X149544668Y-88697616D01*
X149560603Y-88681681D01*
X149544668Y-88665747D01*
X149534044Y-88676370D01*
X149528733Y-88681681D01*
X149198189Y-88681681D01*
X149199415Y-88676370D01*
X149194744Y-88672556D01*
X149156922Y-88676370D01*
X149151936Y-88685956D01*
X148957085Y-88685956D01*
X148924820Y-88674787D01*
X148802061Y-88616761D01*
X148691880Y-88553563D01*
X149567412Y-88553563D01*
X149571226Y-88591384D01*
X149580812Y-88596370D01*
X149592472Y-88570138D01*
X149590172Y-88553267D01*
X149571226Y-88548892D01*
X149567412Y-88553563D01*
X148691880Y-88553563D01*
X148656633Y-88533346D01*
X148518661Y-88426725D01*
X149560603Y-88426725D01*
X149576537Y-88442660D01*
X149592472Y-88426725D01*
X149576537Y-88410791D01*
X149560603Y-88426725D01*
X148518661Y-88426725D01*
X148512135Y-88421682D01*
X148359573Y-88271017D01*
X148250398Y-88142626D01*
X149393003Y-88142626D01*
X149406472Y-88237077D01*
X149447847Y-88313842D01*
X149489278Y-88350556D01*
X149567922Y-88379824D01*
X149634911Y-88359532D01*
X149674201Y-88291280D01*
X149689645Y-88224100D01*
X149704080Y-88167963D01*
X149705328Y-88160013D01*
X149689089Y-88099527D01*
X149646414Y-88022027D01*
X149592368Y-87951364D01*
X149542014Y-87911385D01*
X149482167Y-87914957D01*
X149434636Y-87965387D01*
X149403652Y-88046670D01*
X149393003Y-88142626D01*
X148250398Y-88142626D01*
X148228784Y-88117207D01*
X148036137Y-87817711D01*
X147902357Y-87494644D01*
X147828428Y-87150683D01*
X147815331Y-86788505D01*
X147826548Y-86636049D01*
X147831129Y-86608868D01*
X147967024Y-86608868D01*
X147980323Y-86798724D01*
X148032307Y-86967654D01*
X148123681Y-87101347D01*
X148149283Y-87123630D01*
X148256654Y-87168820D01*
X148380322Y-87163016D01*
X148509316Y-87110176D01*
X148632664Y-87014258D01*
X148739394Y-86879220D01*
X148742546Y-86874041D01*
X148797972Y-86753035D01*
X148839303Y-86608358D01*
X148863201Y-86460309D01*
X148866324Y-86329187D01*
X148845334Y-86235291D01*
X148816732Y-86196008D01*
X148724542Y-86120899D01*
X148587399Y-86042245D01*
X148416164Y-85966842D01*
X148275614Y-85912411D01*
X148176686Y-86026854D01*
X148152178Y-86056861D01*
X148053657Y-86223626D01*
X147991704Y-86412399D01*
X147967024Y-86608868D01*
X147831129Y-86608868D01*
X147864450Y-86411139D01*
X147931032Y-86214052D01*
X148032186Y-86024008D01*
X148123413Y-85877439D01*
X148053237Y-85849742D01*
X148040231Y-85845734D01*
X147961651Y-85833613D01*
X147845339Y-85825085D01*
X147711381Y-85821793D01*
X147546629Y-85830775D01*
X147261897Y-85893933D01*
X146998428Y-86017044D01*
X146757618Y-86199556D01*
X146741297Y-86214923D01*
X146572026Y-86417087D01*
X146461927Y-86642707D01*
X146411001Y-86891821D01*
X146419248Y-87164467D01*
X146486670Y-87460681D01*
X146613266Y-87780501D01*
X146799039Y-88123965D01*
X146963238Y-88394856D01*
X146979172Y-88253918D01*
X146985098Y-88214601D01*
X147007447Y-88136858D01*
X147034748Y-88099947D01*
X147054189Y-88100421D01*
X147084545Y-88131354D01*
X147117868Y-88204851D01*
X147156965Y-88327627D01*
X147204645Y-88506399D01*
X147213087Y-88537563D01*
X147228872Y-88595831D01*
X147267784Y-88702991D01*
X147315382Y-88780468D01*
X147382427Y-88848996D01*
X147440936Y-88910742D01*
X147453780Y-88948770D01*
X147418691Y-88949484D01*
X147340864Y-88905788D01*
X147312873Y-88887673D01*
X147289930Y-88884962D01*
X147276197Y-88914117D01*
X147267463Y-88985731D01*
X147259516Y-89110399D01*
X147232290Y-89308582D01*
X147157575Y-89536651D01*
X147042895Y-89731390D01*
X146893835Y-89881032D01*
X146839533Y-89923320D01*
X146780321Y-89974779D01*
X146758163Y-90002222D01*
X146766585Y-90013191D01*
X146814386Y-90058040D01*
X146894851Y-90127324D01*
X146996990Y-90211418D01*
X147057277Y-90260895D01*
X147148074Y-90338940D01*
X147210603Y-90397461D01*
X147233934Y-90426537D01*
X147230538Y-90440693D01*
X147192070Y-90449138D01*
X147117697Y-90419565D01*
X147016099Y-90354831D01*
X146967141Y-90320034D01*
X146901936Y-90276311D01*
X146870731Y-90259222D01*
X146868261Y-90261105D01*
X146869442Y-90300739D01*
X146884501Y-90378048D01*
X146908611Y-90474772D01*
X146936944Y-90572654D01*
X146964672Y-90653434D01*
X146986968Y-90698854D01*
X147019936Y-90726883D01*
X147108994Y-90778638D01*
X147233988Y-90837956D01*
X147381560Y-90899850D01*
X147538350Y-90959335D01*
X147691000Y-91011423D01*
X147826150Y-91051128D01*
X147930441Y-91073464D01*
X147990515Y-91073445D01*
X148007810Y-91069079D01*
X148030866Y-91081349D01*
X148045780Y-91096137D01*
X148106553Y-91127090D01*
X148198181Y-91162649D01*
X148284185Y-91195464D01*
X148402000Y-91246006D01*
X148524857Y-91302922D01*
X148636774Y-91358516D01*
X148721771Y-91405097D01*
X148763865Y-91434971D01*
X148776737Y-91447173D01*
X148830318Y-91490615D01*
X148907278Y-91549077D01*
X149052851Y-91670838D01*
X149255111Y-91888060D01*
X149425939Y-92130999D01*
X149468293Y-92200728D01*
X149522832Y-92279479D01*
X149566966Y-92316382D01*
X149613616Y-92320153D01*
X149675700Y-92299510D01*
X149699043Y-92289187D01*
X149721864Y-92268574D01*
X149728405Y-92229788D01*
X149719904Y-92158056D01*
X149697603Y-92038607D01*
X149676863Y-91892822D01*
X149662908Y-91682717D01*
X149662179Y-91457922D01*
X149672146Y-91110951D01*
X149576537Y-91101659D01*
X149430247Y-91086941D01*
X149248111Y-91066348D01*
X149126768Y-91049040D01*
X149064473Y-91034790D01*
X149046686Y-91027415D01*
X149018041Y-91006377D01*
X149038008Y-90990205D01*
X149109595Y-90978561D01*
X149235812Y-90971108D01*
X149419670Y-90967508D01*
X149664179Y-90967422D01*
X149808215Y-90968129D01*
X149996959Y-90967888D01*
X150145158Y-90964641D01*
X150267113Y-90956895D01*
X150377127Y-90943154D01*
X150489500Y-90921926D01*
X150618536Y-90891717D01*
X150778536Y-90851033D01*
X150800495Y-90844360D01*
X150894630Y-90807030D01*
X151021546Y-90749325D01*
X151164488Y-90679577D01*
X151306701Y-90606117D01*
X151431431Y-90537275D01*
X151521923Y-90481383D01*
X151791875Y-90269878D01*
X152086410Y-89965911D01*
X152341186Y-89612997D01*
X152555650Y-89212046D01*
X152729253Y-88763967D01*
X152861442Y-88269669D01*
X152879928Y-88173623D01*
X152893770Y-88069400D01*
X152901877Y-87951821D01*
X152904757Y-87808316D01*
X152902918Y-87626318D01*
X152896867Y-87393257D01*
X152881333Y-87065830D01*
X152848551Y-86724168D01*
X152798652Y-86433266D01*
X152729817Y-86186865D01*
X152640230Y-85978703D01*
X152528074Y-85802521D01*
X152391532Y-85652058D01*
X152369687Y-85631701D01*
X152289760Y-85561968D01*
X152229374Y-85526126D01*
X152167379Y-85515129D01*
X152082627Y-85519931D01*
X152053788Y-85522892D01*
X151923520Y-85548085D01*
X151824870Y-85596997D01*
X151731182Y-85681913D01*
X151692327Y-85728862D01*
X151670720Y-85780337D01*
X151666586Y-85852795D01*
X151675848Y-85967272D01*
X151694338Y-86098634D01*
X151743672Y-86296402D01*
X151812324Y-86461563D01*
X151895804Y-86586337D01*
X151989622Y-86662945D01*
X152089289Y-86683609D01*
X152117657Y-86679220D01*
X152188901Y-86643992D01*
X152235461Y-86570198D01*
X152260775Y-86449993D01*
X152268285Y-86275533D01*
X152264011Y-86149728D01*
X152240252Y-85996556D01*
X152190076Y-85846956D01*
X152162503Y-85777692D01*
X152131572Y-85687403D01*
X152127449Y-85649856D01*
X152149987Y-85666816D01*
X152199038Y-85740043D01*
X152294793Y-85932421D01*
X152381274Y-86196266D01*
X152440294Y-86490880D01*
X152469729Y-86801019D01*
X152467454Y-87111441D01*
X152431345Y-87406901D01*
X152409081Y-87502510D01*
X152402747Y-87529708D01*
X152336242Y-87730961D01*
X152291549Y-87831821D01*
X152251514Y-87922170D01*
X152156843Y-88085551D01*
X152060509Y-88203320D01*
X152059011Y-88204733D01*
X151943270Y-88313891D01*
X152027288Y-88345834D01*
X152077642Y-88374058D01*
X152135836Y-88453283D01*
X152136792Y-88454585D01*
X152145053Y-88490464D01*
X152166073Y-88581757D01*
X152167436Y-88761355D01*
X152142614Y-88942503D01*
X152070130Y-89151424D01*
X151946392Y-89353102D01*
X151765970Y-89558315D01*
X151754469Y-89569786D01*
X151641648Y-89676730D01*
X151550527Y-89747794D01*
X151463404Y-89794899D01*
X151362579Y-89829963D01*
X151289666Y-89848044D01*
X151159906Y-89867501D01*
X151056323Y-89867794D01*
X151017264Y-89864346D01*
X150914399Y-89880099D01*
X150835798Y-89939367D01*
X150778580Y-90046883D01*
X150739861Y-90207383D01*
X150716759Y-90425602D01*
X150698592Y-90703526D01*
X150591705Y-90738802D01*
X150481091Y-90754290D01*
X150343408Y-90722271D01*
X150214071Y-90640793D01*
X150103988Y-90517159D01*
X150024066Y-90358673D01*
X149995788Y-90244160D01*
X149978241Y-90064137D01*
X149981899Y-89869398D01*
X150007396Y-89685571D01*
X150014920Y-89656137D01*
X150047365Y-89560122D01*
X150094600Y-89441297D01*
X150150300Y-89313358D01*
X150208137Y-89190005D01*
X150261785Y-89084935D01*
X150304918Y-89011848D01*
X150331208Y-88984442D01*
X150335294Y-88985720D01*
X150366258Y-89019790D01*
X150405929Y-89081913D01*
X150439751Y-89147378D01*
X150453168Y-89191476D01*
X150458704Y-89209465D01*
X150486218Y-89271629D01*
X150529224Y-89359125D01*
X150555037Y-89406915D01*
X150688071Y-89588015D01*
X150844009Y-89712212D01*
X151017171Y-89779030D01*
X151201875Y-89787994D01*
X151392441Y-89738628D01*
X151583188Y-89630454D01*
X151768436Y-89462997D01*
X151775091Y-89455687D01*
X151944599Y-89229637D01*
X152053111Y-88991726D01*
X152102944Y-88736926D01*
X152107964Y-88678021D01*
X152112419Y-88596274D01*
X152100460Y-88554798D01*
X152060998Y-88548330D01*
X151982944Y-88571609D01*
X151855207Y-88619371D01*
X151751506Y-88649744D01*
X151533164Y-88673555D01*
X151309638Y-88653451D01*
X151106849Y-88590436D01*
X151040180Y-88555595D01*
X150945291Y-88490464D01*
X151281556Y-88490464D01*
X151297491Y-88506399D01*
X151313426Y-88490464D01*
X151297491Y-88474530D01*
X151281556Y-88490464D01*
X150945291Y-88490464D01*
X150905088Y-88462869D01*
X151159716Y-88462869D01*
X151185948Y-88474530D01*
X151202819Y-88472230D01*
X151207194Y-88453283D01*
X151202523Y-88449469D01*
X151164701Y-88453283D01*
X151159716Y-88462869D01*
X150905088Y-88462869D01*
X150881348Y-88446574D01*
X150718047Y-88305263D01*
X150679682Y-88265005D01*
X151875612Y-88265005D01*
X151883940Y-88283313D01*
X151912154Y-88272249D01*
X151943944Y-88236539D01*
X151946040Y-88204733D01*
X151932679Y-88206504D01*
X151893788Y-88238723D01*
X151875612Y-88265005D01*
X150679682Y-88265005D01*
X150568078Y-88147896D01*
X150449239Y-87990705D01*
X150420414Y-87941860D01*
X150363498Y-87832288D01*
X150346788Y-87797219D01*
X151569030Y-87797219D01*
X151586695Y-87890837D01*
X151624154Y-87952123D01*
X151682161Y-87988298D01*
X151726990Y-87981745D01*
X151774990Y-87922116D01*
X151788508Y-87899761D01*
X151807338Y-87831821D01*
X151788307Y-87746161D01*
X151774485Y-87712088D01*
X151721460Y-87635089D01*
X151660793Y-87602172D01*
X151605134Y-87621918D01*
X151599710Y-87628067D01*
X151587083Y-87661857D01*
X151572816Y-87700038D01*
X151571820Y-87725596D01*
X151569030Y-87797219D01*
X150346788Y-87797219D01*
X150312659Y-87725596D01*
X151090339Y-87725596D01*
X151106274Y-87741531D01*
X151122209Y-87725596D01*
X151106274Y-87709661D01*
X151090339Y-87725596D01*
X150312659Y-87725596D01*
X150298917Y-87696758D01*
X150283253Y-87661857D01*
X150421080Y-87661857D01*
X150437014Y-87677792D01*
X150452949Y-87661857D01*
X150437014Y-87645922D01*
X150421080Y-87661857D01*
X150283253Y-87661857D01*
X150232654Y-87549121D01*
X150212860Y-87502510D01*
X151090339Y-87502510D01*
X151106274Y-87518444D01*
X151122209Y-87502510D01*
X151106274Y-87486575D01*
X151090339Y-87502510D01*
X150212860Y-87502510D01*
X150170697Y-87403224D01*
X150119031Y-87272916D01*
X150083642Y-87172048D01*
X150070515Y-87114469D01*
X150070438Y-87110642D01*
X150049260Y-87025303D01*
X149995947Y-86905859D01*
X149918383Y-86766543D01*
X149824448Y-86621588D01*
X149722026Y-86485225D01*
X149593838Y-86338600D01*
X149350065Y-86101602D01*
X149096666Y-85901514D01*
X149064696Y-85879886D01*
X148976672Y-85829345D01*
X151386886Y-85829345D01*
X151408417Y-85807932D01*
X151460169Y-85750450D01*
X151530704Y-85669543D01*
X151676893Y-85529068D01*
X151851436Y-85422948D01*
X152031317Y-85371098D01*
X152208467Y-85375721D01*
X152374815Y-85439022D01*
X152408272Y-85457554D01*
X152468667Y-85482782D01*
X152492598Y-85479304D01*
X152488987Y-85464878D01*
X152452761Y-85424608D01*
X152421983Y-85389501D01*
X152372428Y-85312389D01*
X152317315Y-85212225D01*
X152266436Y-85119929D01*
X152217600Y-85045002D01*
X152185210Y-85010913D01*
X152154186Y-85004626D01*
X152068672Y-85015492D01*
X151967013Y-85051392D01*
X151864683Y-85103775D01*
X151777157Y-85164092D01*
X151719910Y-85223794D01*
X151708416Y-85274331D01*
X151711447Y-85294988D01*
X151682415Y-85300059D01*
X151679147Y-85299098D01*
X151639676Y-85316222D01*
X151606565Y-85363304D01*
X151600916Y-85411493D01*
X151600836Y-85416306D01*
X151574206Y-85443363D01*
X151550520Y-85473099D01*
X151508917Y-85547048D01*
X151461695Y-85646111D01*
X151423702Y-85733760D01*
X151395387Y-85802870D01*
X151386886Y-85829345D01*
X148976672Y-85829345D01*
X148843236Y-85752730D01*
X148582612Y-85633343D01*
X148303839Y-85529682D01*
X148027934Y-85449706D01*
X147775910Y-85401373D01*
X147709677Y-85392388D01*
X147575188Y-85372588D01*
X147441280Y-85351409D01*
X147323474Y-85332940D01*
X147228316Y-85323148D01*
X147172212Y-85328507D01*
X147142315Y-85350636D01*
X147125778Y-85391154D01*
X147113408Y-85430850D01*
X147094799Y-85443018D01*
X147058322Y-85400998D01*
X147046747Y-85381579D01*
X147020917Y-85293106D01*
X147011017Y-85177911D01*
X147010147Y-85145534D01*
X146970134Y-84946091D01*
X146875395Y-84742549D01*
X146732746Y-84541318D01*
X146699778Y-84506776D01*
X146756086Y-84506776D01*
X146772021Y-84522710D01*
X146787955Y-84506776D01*
X146772021Y-84490841D01*
X146756086Y-84506776D01*
X146699778Y-84506776D01*
X146644761Y-84449133D01*
X151968704Y-84449133D01*
X151980549Y-84486848D01*
X151993699Y-84506776D01*
X152008771Y-84529618D01*
X152056972Y-84577117D01*
X152071058Y-84588723D01*
X152119178Y-84643594D01*
X152179319Y-84723124D01*
X152238432Y-84808778D01*
X152283469Y-84882019D01*
X152301381Y-84924312D01*
X152309473Y-84947109D01*
X152345565Y-84998244D01*
X152376339Y-85041308D01*
X152428580Y-85127082D01*
X152485993Y-85230701D01*
X152520407Y-85293939D01*
X152563793Y-85361059D01*
X152594253Y-85382851D01*
X152619835Y-85367542D01*
X152636060Y-85337414D01*
X152633645Y-85281007D01*
X152625191Y-85263097D01*
X152636596Y-85264060D01*
X152654133Y-85260844D01*
X152694047Y-85216144D01*
X152741639Y-85136582D01*
X152760988Y-85097736D01*
X152808759Y-84990432D01*
X152848645Y-84886172D01*
X152876108Y-84798740D01*
X152886612Y-84741921D01*
X152875621Y-84729498D01*
X152851753Y-84752677D01*
X152803151Y-84817221D01*
X152746935Y-84902784D01*
X152694320Y-84991182D01*
X152656526Y-85064229D01*
X152644768Y-85103742D01*
X152644712Y-85114607D01*
X152617110Y-85110463D01*
X152602121Y-85080573D01*
X152596587Y-85006195D01*
X152603871Y-84912959D01*
X152621828Y-84824624D01*
X152648312Y-84764947D01*
X152661746Y-84741827D01*
X152693324Y-84654733D01*
X152728569Y-84524646D01*
X152764553Y-84365079D01*
X152798350Y-84189546D01*
X152827030Y-84011560D01*
X152847668Y-83844636D01*
X152853284Y-83782158D01*
X152857625Y-83331586D01*
X152798792Y-82882986D01*
X152677272Y-82438907D01*
X152493557Y-82001894D01*
X152413939Y-81851886D01*
X152334108Y-81720578D01*
X152262044Y-81620042D01*
X152204193Y-81559251D01*
X152166996Y-81547179D01*
X152153162Y-81553460D01*
X152152062Y-81536533D01*
X152152969Y-81534825D01*
X152143370Y-81491627D01*
X152097713Y-81434641D01*
X152023487Y-81364910D01*
X152000815Y-81673777D01*
X151978143Y-81982645D01*
X152150153Y-82161147D01*
X152158709Y-82170064D01*
X152249530Y-82269050D01*
X152327149Y-82360719D01*
X152375569Y-82426257D01*
X152431248Y-82526674D01*
X152526170Y-82769627D01*
X152581796Y-83029798D01*
X152596687Y-83291609D01*
X152570555Y-83529030D01*
X152569405Y-83539482D01*
X152498512Y-83757842D01*
X152493427Y-83768558D01*
X152456576Y-83838354D01*
X152411015Y-83907321D01*
X152347692Y-83986970D01*
X152257551Y-84088812D01*
X152131538Y-84224356D01*
X152098581Y-84259624D01*
X152020844Y-84347476D01*
X151979843Y-84406661D01*
X151968704Y-84449133D01*
X146644761Y-84449133D01*
X146549005Y-84348806D01*
X146330987Y-84171425D01*
X146085509Y-84015584D01*
X145819390Y-83887693D01*
X145539444Y-83794162D01*
X145445799Y-83773870D01*
X145283607Y-83748182D01*
X145100710Y-83726866D01*
X144921642Y-83713140D01*
X144731101Y-83698393D01*
X144457224Y-83662610D01*
X144210515Y-83613873D01*
X144122323Y-83593006D01*
X143976043Y-83561185D01*
X143871161Y-83542379D01*
X143812783Y-83537216D01*
X143806015Y-83546322D01*
X143855960Y-83570325D01*
X143862794Y-83573114D01*
X143909124Y-83597781D01*
X143958312Y-83637133D01*
X144017028Y-83698725D01*
X144091944Y-83790109D01*
X144189729Y-83918840D01*
X144317053Y-84092472D01*
X144406376Y-84220204D01*
X144489884Y-84349241D01*
X144553168Y-84457512D01*
X144587005Y-84530065D01*
X144599682Y-84564777D01*
X144665962Y-84699396D01*
X144762697Y-84857259D01*
X144878554Y-85021938D01*
X145002201Y-85177004D01*
X145122305Y-85306030D01*
X145279798Y-85439219D01*
X145542052Y-85603531D01*
X145830858Y-85728978D01*
X146129549Y-85808759D01*
X146421456Y-85836073D01*
X146644543Y-85835138D01*
X146533186Y-85883319D01*
X146419209Y-85924994D01*
X146291606Y-85947071D01*
X146149282Y-85941403D01*
X145970445Y-85908983D01*
X145927046Y-85898925D01*
X145591437Y-85789703D01*
X145295794Y-85632498D01*
X145037211Y-85425035D01*
X144812784Y-85165036D01*
X144619608Y-84850225D01*
X144615018Y-84841487D01*
X144560262Y-84748653D01*
X144513351Y-84687864D01*
X144484004Y-84671899D01*
X144470405Y-84677304D01*
X144474610Y-84654728D01*
X144477512Y-84637234D01*
X144459451Y-84571626D01*
X144416710Y-84479896D01*
X144358471Y-84378719D01*
X144293921Y-84284768D01*
X144232242Y-84214716D01*
X144200736Y-84190501D01*
X144099479Y-84140230D01*
X143986191Y-84108210D01*
X143892257Y-84104604D01*
X143847660Y-84093428D01*
X143788889Y-84048433D01*
X143763214Y-84025298D01*
X143651528Y-83967784D01*
X143503875Y-83931114D01*
X143339173Y-83917338D01*
X143176341Y-83928506D01*
X143034297Y-83966668D01*
X142999836Y-83983390D01*
X142911546Y-84041652D01*
X142827716Y-84113577D01*
X142765120Y-84183745D01*
X142740527Y-84236738D01*
X142627464Y-84236738D01*
X142580625Y-84061256D01*
X142535595Y-83796947D01*
X142521778Y-83557507D01*
X142528321Y-83486543D01*
X143493674Y-83486543D01*
X143537265Y-83518821D01*
X143605412Y-83554147D01*
X143651005Y-83562456D01*
X143678439Y-83538379D01*
X143680156Y-83529030D01*
X143650004Y-83502210D01*
X143584768Y-83480739D01*
X143505396Y-83472581D01*
X143502897Y-83472672D01*
X143493674Y-83486543D01*
X142528321Y-83486543D01*
X142540706Y-83352222D01*
X142593915Y-83190378D01*
X142674033Y-83074963D01*
X142807601Y-82971394D01*
X142968691Y-82916540D01*
X143148266Y-82911691D01*
X143337294Y-82958139D01*
X143526738Y-83057173D01*
X143659624Y-83146710D01*
X143781694Y-82937759D01*
X143796819Y-82912689D01*
X143886039Y-82781539D01*
X143995848Y-82638493D01*
X144105933Y-82510327D01*
X144156418Y-82455301D01*
X144231545Y-82371254D01*
X144280573Y-82313387D01*
X144294739Y-82291845D01*
X144292528Y-82292185D01*
X144249026Y-82305233D01*
X144164040Y-82333412D01*
X144053332Y-82371518D01*
X143998371Y-82389872D01*
X143786610Y-82440390D01*
X143612653Y-82444541D01*
X143471944Y-82402569D01*
X143407195Y-82360343D01*
X143380833Y-82312168D01*
X143416581Y-82273275D01*
X143513582Y-82246868D01*
X143595718Y-82230913D01*
X143759798Y-82177215D01*
X143935522Y-82090046D01*
X144129788Y-81965214D01*
X144349492Y-81798528D01*
X144601531Y-81585799D01*
X144601594Y-81585743D01*
X144743019Y-81467515D01*
X144890023Y-81354305D01*
X145025228Y-81258954D01*
X145131261Y-81194304D01*
X145207753Y-81156581D01*
X145463585Y-81056144D01*
X145740930Y-80978796D01*
X146008956Y-80933692D01*
X146204826Y-80913625D01*
X146108053Y-80686486D01*
X146093261Y-80651298D01*
X146056234Y-80553795D01*
X146031189Y-80462588D01*
X146015075Y-80360167D01*
X146004841Y-80229025D01*
X145997438Y-80051652D01*
X145994803Y-79920537D01*
X146003537Y-79688820D01*
X146033772Y-79510774D01*
X146088182Y-79381253D01*
X146169440Y-79295110D01*
X146280223Y-79247198D01*
X146423203Y-79232372D01*
X146515658Y-79234980D01*
X146589770Y-79250933D01*
X146654920Y-79291473D01*
X146737103Y-79367817D01*
X146743179Y-79373853D01*
X146839819Y-79484737D01*
X146928926Y-79619858D01*
X147017864Y-79791820D01*
X147113992Y-80013232D01*
X147150391Y-80097317D01*
X147323896Y-80407964D01*
X147541855Y-80684677D01*
X147796524Y-80918731D01*
X148080158Y-81101406D01*
X148120870Y-81122151D01*
X148267701Y-81190551D01*
X148418816Y-81252793D01*
X148561848Y-81304628D01*
X148684432Y-81341806D01*
X148774201Y-81360079D01*
X148818788Y-81355198D01*
X148821127Y-81351840D01*
X148834192Y-81300465D01*
X148845982Y-81206088D01*
X148854191Y-81086236D01*
X148855034Y-81066209D01*
X148856013Y-80937945D01*
X148844317Y-80830072D01*
X148815408Y-80716438D01*
X148764748Y-80570891D01*
X148703278Y-80389459D01*
X148646410Y-80183560D01*
X148607018Y-79993913D01*
X148587938Y-79834502D01*
X148592006Y-79719310D01*
X148626646Y-79629783D01*
X148684083Y-79564142D01*
X148715126Y-79546119D01*
X148762376Y-79535008D01*
X148826065Y-79546351D01*
X148927185Y-79581662D01*
X148953644Y-79591978D01*
X149186791Y-79717227D01*
X149395036Y-79896361D01*
X149583109Y-80133356D01*
X149643545Y-80230310D01*
X149759601Y-80460382D01*
X149853642Y-80707200D01*
X149918315Y-80949833D01*
X149946269Y-81167349D01*
X149953235Y-81360398D01*
X150172291Y-81381983D01*
X150311964Y-81399845D01*
X150616076Y-81473206D01*
X150913114Y-81597798D01*
X150965162Y-81624369D01*
X151090478Y-81692936D01*
X151196486Y-81761467D01*
X151298720Y-81841772D01*
X151412718Y-81945659D01*
X151554015Y-82084937D01*
X151810540Y-82342718D01*
X151797033Y-82155988D01*
X151792019Y-82069546D01*
X151795282Y-82001540D01*
X151813567Y-81967691D01*
X151851236Y-81951553D01*
X151884590Y-81937434D01*
X151907358Y-81904025D01*
X151918747Y-81837454D01*
X151923579Y-81722444D01*
X151924965Y-81616512D01*
X151924445Y-81497131D01*
X151921709Y-81412920D01*
X151922573Y-81361143D01*
X151951633Y-81283616D01*
X152010575Y-81255269D01*
X152090762Y-81282753D01*
X152091601Y-81283304D01*
X152217978Y-81393272D01*
X152349627Y-81555837D01*
X152481147Y-81760830D01*
X152607135Y-81998086D01*
X152722189Y-82257437D01*
X152820907Y-82528716D01*
X152897887Y-82801757D01*
X152900846Y-82814606D01*
X152929119Y-82990083D01*
X152947809Y-83208562D01*
X152956921Y-83452374D01*
X152956457Y-83703847D01*
X152946421Y-83945313D01*
X152926813Y-84159102D01*
X152897639Y-84327543D01*
X152883305Y-84388270D01*
X152860678Y-84503621D01*
X152858549Y-84566561D01*
X152877431Y-84582971D01*
X152917838Y-84558728D01*
X152959492Y-84540062D01*
X153004231Y-84572589D01*
X153021221Y-84606052D01*
X153023504Y-84696131D01*
X153011898Y-84741921D01*
G37*
%TD*%
M02*
