%TF.GenerationSoftware,KiCad,Pcbnew,7.0.1*%
%TF.CreationDate,2023-09-30T16:00:22-04:00*%
%TF.ProjectId,usb_demonstrator,7573625f-6465-46d6-9f6e-73747261746f,rev?*%
%TF.SameCoordinates,Original*%
%TF.FileFunction,Copper,L2,Bot*%
%TF.FilePolarity,Positive*%
%FSLAX46Y46*%
G04 Gerber Fmt 4.6, Leading zero omitted, Abs format (unit mm)*
G04 Created by KiCad (PCBNEW 7.0.1) date 2023-09-30 16:00:22*
%MOMM*%
%LPD*%
G01*
G04 APERTURE LIST*
%TA.AperFunction,ComponentPad*%
%ADD10O,1.400000X0.800000*%
%TD*%
%TA.AperFunction,ComponentPad*%
%ADD11R,1.700000X1.700000*%
%TD*%
%TA.AperFunction,ComponentPad*%
%ADD12O,1.700000X1.700000*%
%TD*%
%TA.AperFunction,ComponentPad*%
%ADD13O,1.600000X2.300000*%
%TD*%
%TA.AperFunction,ComponentPad*%
%ADD14O,1.200000X1.800000*%
%TD*%
%TA.AperFunction,ViaPad*%
%ADD15C,0.800000*%
%TD*%
%TA.AperFunction,Conductor*%
%ADD16C,0.300000*%
%TD*%
G04 APERTURE END LIST*
D10*
%TO.P,J3,S1,SHIELD*%
%TO.N,GND*%
X129040000Y-85840000D03*
X134990000Y-86200000D03*
X134990000Y-94460000D03*
X129040000Y-94820000D03*
%TD*%
D11*
%TO.P,J2,1,Pin_1*%
%TO.N,UART_SUPP_5V*%
X174440000Y-99315000D03*
D12*
%TO.P,J2,2,Pin_2*%
%TO.N,USART_Tx*%
X171900000Y-99315000D03*
%TO.P,J2,3,Pin_3*%
%TO.N,USART_Rx*%
X169360000Y-99315000D03*
%TO.P,J2,4,Pin_4*%
%TO.N,GND*%
X166820000Y-99315000D03*
%TD*%
D13*
%TO.P,SW2,*%
%TO.N,*%
X160500000Y-77500000D03*
X168500000Y-77500000D03*
D14*
%TO.P,SW2,1,A*%
%TO.N,UART_SUPP_5V*%
X162500000Y-77500000D03*
%TO.P,SW2,2,B*%
%TO.N,SYSTEM_5V*%
X164500000Y-77500000D03*
%TO.P,SW2,3,C*%
%TO.N,USB_SUPP_5V*%
X166500000Y-77500000D03*
%TD*%
D11*
%TO.P,J1,1,Pin_1*%
%TO.N,SWDIO*%
X177000000Y-85460000D03*
D12*
%TO.P,J1,2,Pin_2*%
%TO.N,GND*%
X177000000Y-88000000D03*
%TO.P,J1,3,Pin_3*%
%TO.N,SWDCLK*%
X177000000Y-90540000D03*
%TO.P,J1,4,Pin_4*%
%TO.N,SYSTEM_3V3*%
X177000000Y-93080000D03*
%TD*%
D15*
%TO.N,GND*%
X142500000Y-72500000D03*
X137500000Y-107500000D03*
X130000000Y-100000000D03*
X172500000Y-72500000D03*
X162500000Y-107500000D03*
X147500000Y-107500000D03*
X152500000Y-107500000D03*
X142500000Y-82500000D03*
X147500000Y-72500000D03*
X152500000Y-72500000D03*
X185000000Y-80000000D03*
X177500000Y-72500000D03*
X185000000Y-95000000D03*
X163100000Y-92600000D03*
X171500000Y-88800000D03*
X157500000Y-72500000D03*
X185000000Y-90000000D03*
X171600000Y-93200000D03*
X145800000Y-79900000D03*
X171600000Y-85600000D03*
X142500000Y-107500000D03*
X167600000Y-93200000D03*
X177000000Y-96200000D03*
X180000000Y-96200000D03*
X185000000Y-100000000D03*
X172500000Y-107500000D03*
X167500000Y-72500000D03*
X167500000Y-107500000D03*
X147500000Y-82500000D03*
X137500000Y-72500000D03*
X185000000Y-85000000D03*
X130000000Y-80000000D03*
X162500000Y-72500000D03*
X167600000Y-88800000D03*
X167600000Y-85600000D03*
X177500000Y-107500000D03*
X152500000Y-82500000D03*
X157500000Y-107500000D03*
%TO.N,USB_COMM_D-*%
X140820000Y-90580000D03*
X133590000Y-89900000D03*
%TD*%
D16*
%TO.N,USB_COMM_D-*%
X134810000Y-90580000D02*
X134800000Y-90590000D01*
X140820000Y-90580000D02*
X134810000Y-90580000D01*
X134800000Y-90590000D02*
X134110000Y-89900000D01*
X134110000Y-89900000D02*
X133590000Y-89900000D01*
%TD*%
%TA.AperFunction,Conductor*%
%TO.N,GND*%
G36*
X185004496Y-70150772D02*
G01*
X185014519Y-70151378D01*
X185274220Y-70167087D01*
X185292053Y-70169253D01*
X185553414Y-70217148D01*
X185570870Y-70221451D01*
X185824539Y-70300497D01*
X185841355Y-70306874D01*
X186083653Y-70415924D01*
X186099584Y-70424286D01*
X186326953Y-70561735D01*
X186341761Y-70571956D01*
X186550909Y-70735813D01*
X186564377Y-70747744D01*
X186752255Y-70935622D01*
X186764186Y-70949090D01*
X186928043Y-71158238D01*
X186938264Y-71173046D01*
X187075713Y-71400415D01*
X187084075Y-71416346D01*
X187193123Y-71658640D01*
X187199503Y-71675464D01*
X187278546Y-71929122D01*
X187282852Y-71946592D01*
X187330744Y-72207931D01*
X187332912Y-72225791D01*
X187344770Y-72421814D01*
X187349228Y-72495503D01*
X187349500Y-72504500D01*
X187349500Y-107495500D01*
X187349228Y-107504497D01*
X187332913Y-107774207D01*
X187330744Y-107792068D01*
X187282852Y-108053407D01*
X187278546Y-108070877D01*
X187199503Y-108324535D01*
X187193123Y-108341359D01*
X187084075Y-108583653D01*
X187075713Y-108599584D01*
X186938264Y-108826953D01*
X186928043Y-108841761D01*
X186764186Y-109050909D01*
X186752255Y-109064377D01*
X186564377Y-109252255D01*
X186550909Y-109264186D01*
X186341761Y-109428043D01*
X186326953Y-109438264D01*
X186099584Y-109575713D01*
X186083653Y-109584075D01*
X185841359Y-109693123D01*
X185824535Y-109699503D01*
X185570877Y-109778546D01*
X185553407Y-109782852D01*
X185292068Y-109830744D01*
X185274207Y-109832913D01*
X185004497Y-109849228D01*
X184995500Y-109849500D01*
X130004500Y-109849500D01*
X129995503Y-109849228D01*
X129725792Y-109832913D01*
X129707932Y-109830744D01*
X129651846Y-109820466D01*
X129446592Y-109782852D01*
X129429122Y-109778546D01*
X129175464Y-109699503D01*
X129158640Y-109693123D01*
X128916346Y-109584075D01*
X128900415Y-109575713D01*
X128673046Y-109438264D01*
X128658238Y-109428043D01*
X128449090Y-109264186D01*
X128435622Y-109252255D01*
X128247744Y-109064377D01*
X128235813Y-109050909D01*
X128224277Y-109036185D01*
X128071955Y-108841760D01*
X128061735Y-108826953D01*
X127924286Y-108599584D01*
X127915924Y-108583653D01*
X127806876Y-108341359D01*
X127800496Y-108324535D01*
X127721451Y-108070870D01*
X127717147Y-108053407D01*
X127669253Y-107792053D01*
X127667087Y-107774220D01*
X127650772Y-107504496D01*
X127650500Y-107495500D01*
X127650500Y-105000000D01*
X129844655Y-105000000D01*
X129864014Y-105320067D01*
X129921813Y-105635465D01*
X130017207Y-105941594D01*
X130148808Y-106233998D01*
X130314696Y-106508412D01*
X130512443Y-106760816D01*
X130739183Y-106987556D01*
X130991587Y-107185303D01*
X130991592Y-107185306D01*
X131266000Y-107351191D01*
X131558402Y-107482791D01*
X131558404Y-107482791D01*
X131558405Y-107482792D01*
X131864534Y-107578186D01*
X132179932Y-107635985D01*
X132214473Y-107638074D01*
X132500000Y-107655345D01*
X132801811Y-107637089D01*
X132820067Y-107635985D01*
X132977766Y-107607085D01*
X133135466Y-107578186D01*
X133441598Y-107482791D01*
X133734000Y-107351191D01*
X134008408Y-107185306D01*
X134260819Y-106987554D01*
X134487554Y-106760819D01*
X134685306Y-106508408D01*
X134851191Y-106234000D01*
X134982791Y-105941598D01*
X135078186Y-105635466D01*
X135135985Y-105320066D01*
X135155345Y-105000000D01*
X135155345Y-104999999D01*
X179844655Y-104999999D01*
X179864014Y-105320067D01*
X179921813Y-105635465D01*
X180017207Y-105941594D01*
X180148808Y-106233998D01*
X180314696Y-106508412D01*
X180512443Y-106760816D01*
X180739183Y-106987556D01*
X180991587Y-107185303D01*
X180991592Y-107185306D01*
X181266000Y-107351191D01*
X181558402Y-107482791D01*
X181558404Y-107482791D01*
X181558405Y-107482792D01*
X181864534Y-107578186D01*
X182179932Y-107635985D01*
X182214473Y-107638074D01*
X182500000Y-107655345D01*
X182801811Y-107637089D01*
X182820067Y-107635985D01*
X182977766Y-107607085D01*
X183135466Y-107578186D01*
X183441598Y-107482791D01*
X183734000Y-107351191D01*
X184008408Y-107185306D01*
X184260819Y-106987554D01*
X184487554Y-106760819D01*
X184685306Y-106508408D01*
X184851191Y-106234000D01*
X184982791Y-105941598D01*
X185078186Y-105635466D01*
X185135985Y-105320066D01*
X185155345Y-105000000D01*
X185135985Y-104679934D01*
X185078186Y-104364534D01*
X184982791Y-104058402D01*
X184851191Y-103766000D01*
X184685306Y-103491592D01*
X184685303Y-103491587D01*
X184487556Y-103239183D01*
X184260816Y-103012443D01*
X184008412Y-102814696D01*
X183733998Y-102648808D01*
X183441594Y-102517207D01*
X183135465Y-102421813D01*
X182820067Y-102364014D01*
X182500000Y-102344655D01*
X182179932Y-102364014D01*
X181864534Y-102421813D01*
X181558405Y-102517207D01*
X181266001Y-102648808D01*
X180991587Y-102814696D01*
X180739183Y-103012443D01*
X180512443Y-103239183D01*
X180314696Y-103491587D01*
X180148808Y-103766001D01*
X180017207Y-104058405D01*
X179921813Y-104364534D01*
X179864014Y-104679932D01*
X179844655Y-104999999D01*
X135155345Y-104999999D01*
X135135985Y-104679934D01*
X135078186Y-104364534D01*
X134982791Y-104058402D01*
X134851191Y-103766000D01*
X134685306Y-103491592D01*
X134685303Y-103491587D01*
X134487556Y-103239183D01*
X134260816Y-103012443D01*
X134008412Y-102814696D01*
X133733998Y-102648808D01*
X133441594Y-102517207D01*
X133135465Y-102421813D01*
X132820067Y-102364014D01*
X132500000Y-102344655D01*
X132179932Y-102364014D01*
X131864534Y-102421813D01*
X131558405Y-102517207D01*
X131266001Y-102648808D01*
X130991587Y-102814696D01*
X130739183Y-103012443D01*
X130512443Y-103239183D01*
X130314696Y-103491587D01*
X130148808Y-103766001D01*
X130017207Y-104058405D01*
X129921813Y-104364534D01*
X129864014Y-104679932D01*
X129844655Y-105000000D01*
X127650500Y-105000000D01*
X127650500Y-99565000D01*
X165489364Y-99565000D01*
X165546568Y-99778491D01*
X165646401Y-99992582D01*
X165781887Y-100186075D01*
X165948924Y-100353112D01*
X166142417Y-100488598D01*
X166356508Y-100588431D01*
X166569999Y-100645636D01*
X166570000Y-100645636D01*
X167070000Y-100645636D01*
X167283491Y-100588431D01*
X167497582Y-100488598D01*
X167691075Y-100353112D01*
X167858109Y-100186078D01*
X167967640Y-100029652D01*
X168020893Y-99982951D01*
X168089694Y-99966115D01*
X168158494Y-99982950D01*
X168211748Y-100029652D01*
X168321505Y-100186401D01*
X168488599Y-100353495D01*
X168682170Y-100489035D01*
X168896337Y-100588903D01*
X169124592Y-100650063D01*
X169360000Y-100670659D01*
X169595408Y-100650063D01*
X169823663Y-100588903D01*
X170037830Y-100489035D01*
X170231401Y-100353495D01*
X170398495Y-100186401D01*
X170507945Y-100030089D01*
X170561200Y-99983387D01*
X170630000Y-99966552D01*
X170698800Y-99983387D01*
X170752054Y-100030089D01*
X170861505Y-100186401D01*
X171028599Y-100353495D01*
X171222170Y-100489035D01*
X171436337Y-100588903D01*
X171664592Y-100650063D01*
X171900000Y-100670659D01*
X172135408Y-100650063D01*
X172363663Y-100588903D01*
X172577830Y-100489035D01*
X172771401Y-100353495D01*
X172865819Y-100259076D01*
X172929199Y-100221471D01*
X173002850Y-100218840D01*
X173068752Y-100251828D01*
X173110784Y-100312365D01*
X173146204Y-100407331D01*
X173232454Y-100522546D01*
X173347669Y-100608796D01*
X173482517Y-100659091D01*
X173542127Y-100665500D01*
X175337872Y-100665499D01*
X175337876Y-100665499D01*
X175377612Y-100661226D01*
X175397483Y-100659091D01*
X175532331Y-100608796D01*
X175647546Y-100522546D01*
X175733796Y-100407331D01*
X175784091Y-100272483D01*
X175790500Y-100212873D01*
X175790499Y-98417128D01*
X175790499Y-98417127D01*
X175790499Y-98417123D01*
X175784091Y-98357518D01*
X175769215Y-98317634D01*
X175733796Y-98222669D01*
X175647546Y-98107454D01*
X175532331Y-98021204D01*
X175397483Y-97970909D01*
X175397482Y-97970908D01*
X175397480Y-97970908D01*
X175337876Y-97964500D01*
X173542123Y-97964500D01*
X173482518Y-97970908D01*
X173347670Y-98021203D01*
X173232454Y-98107454D01*
X173146201Y-98222672D01*
X173110783Y-98317634D01*
X173068752Y-98378171D01*
X173002850Y-98411159D01*
X172929200Y-98408528D01*
X172865819Y-98370923D01*
X172771401Y-98276505D01*
X172577830Y-98140965D01*
X172363663Y-98041097D01*
X172135407Y-97979936D01*
X171900000Y-97959341D01*
X171664592Y-97979936D01*
X171436336Y-98041097D01*
X171222172Y-98140964D01*
X171028598Y-98276505D01*
X170861505Y-98443598D01*
X170752054Y-98599911D01*
X170698800Y-98646613D01*
X170630000Y-98663448D01*
X170561200Y-98646613D01*
X170507946Y-98599911D01*
X170398494Y-98443598D01*
X170231401Y-98276505D01*
X170037830Y-98140965D01*
X169823663Y-98041097D01*
X169595407Y-97979936D01*
X169360000Y-97959341D01*
X169124592Y-97979936D01*
X168896336Y-98041097D01*
X168682172Y-98140964D01*
X168488598Y-98276505D01*
X168321505Y-98443598D01*
X168211748Y-98600348D01*
X168158494Y-98647050D01*
X168089694Y-98663885D01*
X168020893Y-98647049D01*
X167967640Y-98600348D01*
X167858109Y-98443921D01*
X167691075Y-98276887D01*
X167497582Y-98141401D01*
X167283491Y-98041568D01*
X167070000Y-97984363D01*
X167070000Y-100645636D01*
X166570000Y-100645636D01*
X166570000Y-99565000D01*
X165489364Y-99565000D01*
X127650500Y-99565000D01*
X127650500Y-99064999D01*
X165489363Y-99064999D01*
X165489364Y-99065000D01*
X166570000Y-99065000D01*
X166570000Y-97984364D01*
X166569999Y-97984363D01*
X166356509Y-98041568D01*
X166142423Y-98141399D01*
X165948921Y-98276890D01*
X165781890Y-98443921D01*
X165646399Y-98637423D01*
X165546568Y-98851509D01*
X165489363Y-99064999D01*
X127650500Y-99064999D01*
X127650500Y-95286666D01*
X127665580Y-95221349D01*
X127707767Y-95169252D01*
X127768521Y-95140922D01*
X127835547Y-95142092D01*
X127895276Y-95172526D01*
X127935618Y-95226063D01*
X127956281Y-95272474D01*
X128067486Y-95425535D01*
X128208079Y-95552125D01*
X128371922Y-95646719D01*
X128551846Y-95705181D01*
X128692837Y-95720000D01*
X128790000Y-95720000D01*
X128790000Y-95070000D01*
X129290000Y-95070000D01*
X129290000Y-95720000D01*
X129387163Y-95720000D01*
X129528153Y-95705181D01*
X129708077Y-95646719D01*
X129871920Y-95552125D01*
X130012512Y-95425535D01*
X130123718Y-95272475D01*
X130200664Y-95099651D01*
X130206967Y-95070000D01*
X129290000Y-95070000D01*
X128790000Y-95070000D01*
X128790000Y-94710000D01*
X133823033Y-94710000D01*
X133829335Y-94739648D01*
X133906282Y-94912475D01*
X134017486Y-95065535D01*
X134158079Y-95192125D01*
X134321922Y-95286719D01*
X134501846Y-95345181D01*
X134642837Y-95360000D01*
X134740000Y-95360000D01*
X135240000Y-95360000D01*
X135337163Y-95360000D01*
X135478153Y-95345181D01*
X135658077Y-95286719D01*
X135821920Y-95192125D01*
X135962512Y-95065535D01*
X136073715Y-94912479D01*
X136148610Y-94744260D01*
X136195578Y-94685477D01*
X136265281Y-94657138D01*
X136333451Y-94648162D01*
X136390236Y-94640687D01*
X136530233Y-94582698D01*
X136650451Y-94490451D01*
X136742698Y-94370233D01*
X136800687Y-94230236D01*
X136815500Y-94117720D01*
X136815500Y-93742280D01*
X136813603Y-93727874D01*
X136800687Y-93629765D01*
X136800687Y-93629764D01*
X136742698Y-93489767D01*
X136721234Y-93461795D01*
X136650451Y-93369548D01*
X136530233Y-93277302D01*
X136390235Y-93219312D01*
X136240000Y-93199533D01*
X136089764Y-93219312D01*
X135949766Y-93277302D01*
X135829548Y-93369548D01*
X135737301Y-93489767D01*
X135728218Y-93511696D01*
X135684328Y-93570470D01*
X135617713Y-93601179D01*
X135544517Y-93596381D01*
X135478153Y-93574818D01*
X135337163Y-93560000D01*
X135240000Y-93560000D01*
X135240000Y-95360000D01*
X134740000Y-95360000D01*
X134740000Y-94710000D01*
X133823033Y-94710000D01*
X128790000Y-94710000D01*
X128790000Y-93920000D01*
X129290000Y-93920000D01*
X129290000Y-94570000D01*
X130206967Y-94570000D01*
X130200664Y-94540351D01*
X130123717Y-94367524D01*
X130012513Y-94214464D01*
X130007555Y-94210000D01*
X133823033Y-94210000D01*
X134740000Y-94210000D01*
X134740000Y-93560000D01*
X134642837Y-93560000D01*
X134501846Y-93574818D01*
X134321922Y-93633280D01*
X134158079Y-93727874D01*
X134017487Y-93854464D01*
X133906281Y-94007524D01*
X133829335Y-94180348D01*
X133823033Y-94210000D01*
X130007555Y-94210000D01*
X129871920Y-94087874D01*
X129708077Y-93993280D01*
X129528153Y-93934818D01*
X129387163Y-93920000D01*
X129290000Y-93920000D01*
X128790000Y-93920000D01*
X128692837Y-93920000D01*
X128551846Y-93934818D01*
X128371922Y-93993280D01*
X128208079Y-94087874D01*
X128067487Y-94214464D01*
X127956281Y-94367524D01*
X127935618Y-94413936D01*
X127895276Y-94467473D01*
X127835547Y-94497907D01*
X127768521Y-94499077D01*
X127707767Y-94470747D01*
X127665580Y-94418650D01*
X127650500Y-94353333D01*
X127650500Y-93079999D01*
X175644341Y-93079999D01*
X175664936Y-93315407D01*
X175726096Y-93543662D01*
X175726097Y-93543663D01*
X175825965Y-93757830D01*
X175961505Y-93951401D01*
X176128599Y-94118495D01*
X176322170Y-94254035D01*
X176536337Y-94353903D01*
X176764592Y-94415063D01*
X177000000Y-94435659D01*
X177235408Y-94415063D01*
X177463663Y-94353903D01*
X177677830Y-94254035D01*
X177871401Y-94118495D01*
X178038495Y-93951401D01*
X178174035Y-93757830D01*
X178273903Y-93543663D01*
X178335063Y-93315408D01*
X178355659Y-93080000D01*
X178335063Y-92844592D01*
X178273903Y-92616337D01*
X178174035Y-92402171D01*
X178038495Y-92208599D01*
X177871401Y-92041505D01*
X177871401Y-92041504D01*
X177871398Y-92041502D01*
X177715088Y-91932052D01*
X177668386Y-91878799D01*
X177651551Y-91809998D01*
X177668387Y-91741198D01*
X177715086Y-91687947D01*
X177871401Y-91578495D01*
X178038495Y-91411401D01*
X178174035Y-91217830D01*
X178273903Y-91003663D01*
X178335063Y-90775408D01*
X178355659Y-90540000D01*
X178335063Y-90304592D01*
X178273903Y-90076337D01*
X178174035Y-89862171D01*
X178038495Y-89668599D01*
X177871401Y-89501505D01*
X177773293Y-89432809D01*
X177714652Y-89391748D01*
X177667950Y-89338494D01*
X177651115Y-89269694D01*
X177667951Y-89200893D01*
X177714652Y-89147640D01*
X177871078Y-89038109D01*
X178038112Y-88871075D01*
X178173598Y-88677582D01*
X178273431Y-88463491D01*
X178330636Y-88250000D01*
X175669364Y-88250000D01*
X175726568Y-88463491D01*
X175826401Y-88677582D01*
X175961887Y-88871075D01*
X176128924Y-89038112D01*
X176285348Y-89147642D01*
X176332050Y-89200895D01*
X176348885Y-89269695D01*
X176332049Y-89338496D01*
X176285348Y-89391748D01*
X176273568Y-89399997D01*
X176128598Y-89501505D01*
X175961505Y-89668598D01*
X175825964Y-89862172D01*
X175726097Y-90076336D01*
X175664936Y-90304592D01*
X175644341Y-90540000D01*
X175664936Y-90775407D01*
X175671660Y-90800500D01*
X175726097Y-91003663D01*
X175825965Y-91217830D01*
X175961505Y-91411401D01*
X176128599Y-91578495D01*
X176259924Y-91670450D01*
X176284911Y-91687946D01*
X176331613Y-91741200D01*
X176348448Y-91810000D01*
X176331613Y-91878800D01*
X176284911Y-91932054D01*
X176128598Y-92041505D01*
X175961505Y-92208598D01*
X175825964Y-92402172D01*
X175726097Y-92616336D01*
X175664936Y-92844592D01*
X175644341Y-93079999D01*
X127650500Y-93079999D01*
X127650500Y-89899999D01*
X132684539Y-89899999D01*
X132704326Y-90088257D01*
X132744440Y-90211716D01*
X132762821Y-90268284D01*
X132857467Y-90432216D01*
X132984129Y-90572888D01*
X133137270Y-90684151D01*
X133310197Y-90761144D01*
X133495354Y-90800500D01*
X133684646Y-90800500D01*
X133869803Y-90761144D01*
X133901763Y-90746913D01*
X133959767Y-90734055D01*
X134018184Y-90744881D01*
X134067727Y-90777673D01*
X134286589Y-90996535D01*
X134304465Y-91018143D01*
X134308175Y-91023602D01*
X134350961Y-91061323D01*
X134357785Y-91067731D01*
X134368969Y-91078915D01*
X134381455Y-91088600D01*
X134388670Y-91094568D01*
X134431459Y-91132292D01*
X134437345Y-91135291D01*
X134461024Y-91150319D01*
X134466236Y-91154362D01*
X134518603Y-91177023D01*
X134527035Y-91180991D01*
X134577900Y-91206908D01*
X134584350Y-91208349D01*
X134611017Y-91217014D01*
X134617073Y-91219635D01*
X134673437Y-91228561D01*
X134682586Y-91230307D01*
X134738296Y-91242760D01*
X134744894Y-91242552D01*
X134772881Y-91244312D01*
X134779405Y-91245346D01*
X134836233Y-91239973D01*
X134845513Y-91239389D01*
X134902569Y-91237597D01*
X134904394Y-91237066D01*
X134906627Y-91236418D01*
X134948202Y-91230500D01*
X140134902Y-91230500D01*
X140180945Y-91237793D01*
X140222478Y-91258954D01*
X140367270Y-91364151D01*
X140540197Y-91441144D01*
X140725354Y-91480500D01*
X140914645Y-91480500D01*
X140914646Y-91480500D01*
X141099803Y-91441144D01*
X141272730Y-91364151D01*
X141425871Y-91252888D01*
X141552533Y-91112216D01*
X141647179Y-90948284D01*
X141705674Y-90768256D01*
X141725460Y-90580000D01*
X141705674Y-90391744D01*
X141647179Y-90211716D01*
X141552533Y-90047784D01*
X141425871Y-89907112D01*
X141272730Y-89795849D01*
X141099803Y-89718856D01*
X140914646Y-89679500D01*
X140725354Y-89679500D01*
X140632775Y-89699178D01*
X140540196Y-89718856D01*
X140367271Y-89795848D01*
X140367269Y-89795849D01*
X140367270Y-89795849D01*
X140222478Y-89901045D01*
X140180945Y-89922207D01*
X140134902Y-89929500D01*
X135121164Y-89929500D01*
X135064144Y-89918158D01*
X135015805Y-89885859D01*
X134632384Y-89502438D01*
X134618659Y-89485306D01*
X134564461Y-89434411D01*
X134561100Y-89431154D01*
X134541035Y-89411089D01*
X134538485Y-89409111D01*
X134527814Y-89399997D01*
X134495392Y-89369551D01*
X134478521Y-89360276D01*
X134458982Y-89347441D01*
X134443764Y-89335637D01*
X134402952Y-89317976D01*
X134390347Y-89311802D01*
X134351368Y-89290373D01*
X134351365Y-89290372D01*
X134332709Y-89285582D01*
X134310591Y-89278009D01*
X134292929Y-89270365D01*
X134285906Y-89269253D01*
X134277261Y-89267883D01*
X134229474Y-89251661D01*
X134209077Y-89235580D01*
X134208542Y-89236317D01*
X134042731Y-89115849D01*
X133869803Y-89038856D01*
X133866289Y-89038109D01*
X133684646Y-88999500D01*
X133495354Y-88999500D01*
X133402775Y-89019177D01*
X133310196Y-89038856D01*
X133137271Y-89115848D01*
X132984127Y-89227113D01*
X132857467Y-89367783D01*
X132762820Y-89531717D01*
X132704326Y-89711742D01*
X132684539Y-89899999D01*
X127650500Y-89899999D01*
X127650500Y-86306666D01*
X127665580Y-86241349D01*
X127707767Y-86189252D01*
X127768521Y-86160922D01*
X127835547Y-86162092D01*
X127895276Y-86192526D01*
X127935618Y-86246063D01*
X127956281Y-86292474D01*
X128067486Y-86445535D01*
X128208079Y-86572125D01*
X128371922Y-86666719D01*
X128551846Y-86725181D01*
X128692837Y-86740000D01*
X128790000Y-86740000D01*
X128790000Y-86090000D01*
X129290000Y-86090000D01*
X129290000Y-86740000D01*
X129387163Y-86740000D01*
X129528153Y-86725181D01*
X129708077Y-86666719D01*
X129871920Y-86572125D01*
X130007553Y-86450000D01*
X133823033Y-86450000D01*
X133829335Y-86479648D01*
X133906282Y-86652475D01*
X134017486Y-86805535D01*
X134158079Y-86932125D01*
X134321922Y-87026719D01*
X134501846Y-87085181D01*
X134642837Y-87100000D01*
X134740000Y-87100000D01*
X134740000Y-86450000D01*
X133823033Y-86450000D01*
X130007553Y-86450000D01*
X130012512Y-86445535D01*
X130123718Y-86292475D01*
X130200664Y-86119651D01*
X130206967Y-86090000D01*
X129290000Y-86090000D01*
X128790000Y-86090000D01*
X128790000Y-85950000D01*
X133823033Y-85950000D01*
X134740000Y-85950000D01*
X134740000Y-85300000D01*
X135240000Y-85300000D01*
X135240000Y-87100000D01*
X135337163Y-87100000D01*
X135478151Y-87085181D01*
X135625325Y-87037361D01*
X135685650Y-87030754D01*
X135743606Y-87048749D01*
X135789579Y-87088362D01*
X135829548Y-87140450D01*
X135829549Y-87140451D01*
X135949767Y-87232698D01*
X136089764Y-87290687D01*
X136117893Y-87294390D01*
X136202277Y-87305500D01*
X136202280Y-87305500D01*
X136277720Y-87305500D01*
X136277723Y-87305500D01*
X136345229Y-87296612D01*
X136390236Y-87290687D01*
X136530233Y-87232698D01*
X136650451Y-87140451D01*
X136742698Y-87020233D01*
X136800687Y-86880236D01*
X136820466Y-86730000D01*
X136800687Y-86579764D01*
X136742698Y-86439767D01*
X136721234Y-86411795D01*
X136679861Y-86357876D01*
X175649500Y-86357876D01*
X175655908Y-86417481D01*
X175666371Y-86445535D01*
X175706204Y-86552331D01*
X175792454Y-86667546D01*
X175907669Y-86753796D01*
X176003151Y-86789408D01*
X176063686Y-86831438D01*
X176096675Y-86897340D01*
X176094045Y-86970990D01*
X176056439Y-87034371D01*
X175961893Y-87128917D01*
X175826399Y-87322423D01*
X175726568Y-87536509D01*
X175669363Y-87749999D01*
X175669364Y-87750000D01*
X178330636Y-87750000D01*
X178330636Y-87749999D01*
X178273431Y-87536509D01*
X178173600Y-87322423D01*
X178038109Y-87128921D01*
X177943560Y-87034372D01*
X177905954Y-86970991D01*
X177903324Y-86897340D01*
X177936313Y-86831438D01*
X177996848Y-86789408D01*
X178092331Y-86753796D01*
X178207546Y-86667546D01*
X178293796Y-86552331D01*
X178344091Y-86417483D01*
X178350500Y-86357873D01*
X178350499Y-84562128D01*
X178350499Y-84562127D01*
X178350499Y-84562123D01*
X178344091Y-84502518D01*
X178293796Y-84367670D01*
X178293796Y-84367669D01*
X178207546Y-84252454D01*
X178092331Y-84166204D01*
X177957483Y-84115909D01*
X177957482Y-84115908D01*
X177957480Y-84115908D01*
X177897876Y-84109500D01*
X176102123Y-84109500D01*
X176042518Y-84115908D01*
X175907670Y-84166203D01*
X175792454Y-84252454D01*
X175706204Y-84367669D01*
X175655908Y-84502519D01*
X175649500Y-84562123D01*
X175649500Y-86357876D01*
X136679861Y-86357876D01*
X136650451Y-86319548D01*
X136530233Y-86227302D01*
X136390234Y-86169312D01*
X136302611Y-86157776D01*
X136245319Y-86137769D01*
X136200757Y-86096576D01*
X136176316Y-86041030D01*
X136150664Y-85920350D01*
X136073718Y-85747525D01*
X135962513Y-85594464D01*
X135821920Y-85467874D01*
X135658077Y-85373280D01*
X135478153Y-85314818D01*
X135337163Y-85300000D01*
X135240000Y-85300000D01*
X134740000Y-85300000D01*
X134642837Y-85300000D01*
X134501846Y-85314818D01*
X134321922Y-85373280D01*
X134158079Y-85467874D01*
X134017487Y-85594464D01*
X133906281Y-85747524D01*
X133829335Y-85920348D01*
X133823033Y-85950000D01*
X128790000Y-85950000D01*
X128790000Y-84940000D01*
X129290000Y-84940000D01*
X129290000Y-85590000D01*
X130206967Y-85590000D01*
X130200664Y-85560351D01*
X130123717Y-85387524D01*
X130012513Y-85234464D01*
X129871920Y-85107874D01*
X129708077Y-85013280D01*
X129528153Y-84954818D01*
X129387163Y-84940000D01*
X129290000Y-84940000D01*
X128790000Y-84940000D01*
X128692837Y-84940000D01*
X128551846Y-84954818D01*
X128371922Y-85013280D01*
X128208079Y-85107874D01*
X128067487Y-85234464D01*
X127956281Y-85387524D01*
X127935618Y-85433936D01*
X127895276Y-85487473D01*
X127835547Y-85517907D01*
X127768521Y-85519077D01*
X127707767Y-85490747D01*
X127665580Y-85438650D01*
X127650500Y-85373333D01*
X127650500Y-77906784D01*
X159199500Y-77906784D01*
X159214364Y-78076691D01*
X159273261Y-78296496D01*
X159369432Y-78502735D01*
X159499951Y-78689137D01*
X159660862Y-78850048D01*
X159847264Y-78980567D01*
X159847265Y-78980567D01*
X159847266Y-78980568D01*
X160053504Y-79076739D01*
X160273308Y-79135635D01*
X160500000Y-79155468D01*
X160726692Y-79135635D01*
X160946496Y-79076739D01*
X161152734Y-78980568D01*
X161339139Y-78850047D01*
X161500047Y-78689139D01*
X161535773Y-78638115D01*
X161581035Y-78595891D01*
X161639551Y-78575703D01*
X161701221Y-78581037D01*
X161755401Y-78610971D01*
X161858744Y-78700519D01*
X162040756Y-78805604D01*
X162040758Y-78805605D01*
X162239368Y-78874345D01*
X162447396Y-78904254D01*
X162447397Y-78904253D01*
X162447398Y-78904254D01*
X162657330Y-78894254D01*
X162861576Y-78844704D01*
X163052753Y-78757396D01*
X163223952Y-78635486D01*
X163368986Y-78483378D01*
X163376559Y-78471593D01*
X163427404Y-78423111D01*
X163494815Y-78403316D01*
X163563802Y-78416611D01*
X163619029Y-78460041D01*
X163699911Y-78562890D01*
X163858739Y-78700516D01*
X163858743Y-78700518D01*
X163858744Y-78700519D01*
X163957259Y-78757397D01*
X164040758Y-78805605D01*
X164239368Y-78874345D01*
X164447396Y-78904254D01*
X164447397Y-78904253D01*
X164447398Y-78904254D01*
X164657330Y-78894254D01*
X164861576Y-78844704D01*
X165052753Y-78757396D01*
X165223952Y-78635486D01*
X165368986Y-78483378D01*
X165376559Y-78471593D01*
X165427404Y-78423111D01*
X165494815Y-78403316D01*
X165563802Y-78416611D01*
X165619029Y-78460041D01*
X165699911Y-78562890D01*
X165858739Y-78700516D01*
X165858743Y-78700518D01*
X165858744Y-78700519D01*
X165957259Y-78757397D01*
X166040758Y-78805605D01*
X166239368Y-78874345D01*
X166447396Y-78904254D01*
X166447397Y-78904253D01*
X166447398Y-78904254D01*
X166657330Y-78894254D01*
X166861576Y-78844704D01*
X167052753Y-78757396D01*
X167223952Y-78635486D01*
X167235885Y-78622970D01*
X167290268Y-78586710D01*
X167354940Y-78577214D01*
X167417453Y-78596312D01*
X167465776Y-78640329D01*
X167499951Y-78689137D01*
X167660862Y-78850048D01*
X167847264Y-78980567D01*
X167847265Y-78980567D01*
X167847266Y-78980568D01*
X168053504Y-79076739D01*
X168273308Y-79135635D01*
X168500000Y-79155468D01*
X168726692Y-79135635D01*
X168946496Y-79076739D01*
X169152734Y-78980568D01*
X169339139Y-78850047D01*
X169500047Y-78689139D01*
X169630568Y-78502734D01*
X169726739Y-78296496D01*
X169785635Y-78076692D01*
X169800500Y-77906784D01*
X169800500Y-77093216D01*
X169785635Y-76923308D01*
X169726739Y-76703504D01*
X169630568Y-76497266D01*
X169588449Y-76437114D01*
X169500048Y-76310862D01*
X169339137Y-76149951D01*
X169152735Y-76019432D01*
X168946496Y-75923261D01*
X168726691Y-75864364D01*
X168500000Y-75844532D01*
X168273308Y-75864364D01*
X168053503Y-75923261D01*
X167847264Y-76019432D01*
X167660862Y-76149951D01*
X167499952Y-76310861D01*
X167464225Y-76361885D01*
X167418963Y-76404109D01*
X167360447Y-76424296D01*
X167298777Y-76418962D01*
X167244597Y-76389027D01*
X167141256Y-76299481D01*
X166959241Y-76194394D01*
X166760631Y-76125654D01*
X166552603Y-76095745D01*
X166342671Y-76105745D01*
X166138423Y-76155295D01*
X165947249Y-76242602D01*
X165776045Y-76364515D01*
X165631012Y-76516622D01*
X165623437Y-76528410D01*
X165572590Y-76576891D01*
X165505181Y-76596683D01*
X165436195Y-76583387D01*
X165380970Y-76539958D01*
X165371888Y-76528410D01*
X165300092Y-76437114D01*
X165300091Y-76437113D01*
X165300088Y-76437109D01*
X165141260Y-76299483D01*
X164959241Y-76194394D01*
X164760631Y-76125654D01*
X164552603Y-76095745D01*
X164342671Y-76105745D01*
X164138423Y-76155295D01*
X163947249Y-76242602D01*
X163776045Y-76364515D01*
X163631012Y-76516622D01*
X163623437Y-76528410D01*
X163572590Y-76576891D01*
X163505181Y-76596683D01*
X163436195Y-76583387D01*
X163380970Y-76539958D01*
X163371888Y-76528410D01*
X163300092Y-76437114D01*
X163300091Y-76437113D01*
X163300088Y-76437109D01*
X163141260Y-76299483D01*
X162959241Y-76194394D01*
X162760631Y-76125654D01*
X162552603Y-76095745D01*
X162342671Y-76105745D01*
X162138423Y-76155295D01*
X161947249Y-76242602D01*
X161867374Y-76299481D01*
X161782851Y-76359670D01*
X161776044Y-76364517D01*
X161764111Y-76377032D01*
X161709727Y-76413291D01*
X161645056Y-76422785D01*
X161582544Y-76403686D01*
X161534225Y-76359672D01*
X161500047Y-76310861D01*
X161339139Y-76149953D01*
X161339137Y-76149951D01*
X161152735Y-76019432D01*
X160946496Y-75923261D01*
X160726691Y-75864364D01*
X160500000Y-75844532D01*
X160273308Y-75864364D01*
X160053503Y-75923261D01*
X159847264Y-76019432D01*
X159660862Y-76149951D01*
X159499951Y-76310862D01*
X159369432Y-76497264D01*
X159273261Y-76703503D01*
X159214364Y-76923308D01*
X159199500Y-77093216D01*
X159199500Y-77906784D01*
X127650500Y-77906784D01*
X127650500Y-75000000D01*
X129844655Y-75000000D01*
X129864014Y-75320067D01*
X129921813Y-75635465D01*
X130017207Y-75941594D01*
X130148808Y-76233998D01*
X130314696Y-76508412D01*
X130512443Y-76760816D01*
X130739183Y-76987556D01*
X130991587Y-77185303D01*
X130991592Y-77185306D01*
X131266000Y-77351191D01*
X131558402Y-77482791D01*
X131558404Y-77482791D01*
X131558405Y-77482792D01*
X131864534Y-77578186D01*
X132179932Y-77635985D01*
X132214473Y-77638074D01*
X132500000Y-77655345D01*
X132801811Y-77637089D01*
X132820067Y-77635985D01*
X132977766Y-77607085D01*
X133135466Y-77578186D01*
X133441598Y-77482791D01*
X133734000Y-77351191D01*
X134008408Y-77185306D01*
X134260819Y-76987554D01*
X134487554Y-76760819D01*
X134685306Y-76508408D01*
X134851191Y-76234000D01*
X134982791Y-75941598D01*
X135078186Y-75635466D01*
X135135985Y-75320066D01*
X135155345Y-75000000D01*
X179844655Y-75000000D01*
X179864014Y-75320067D01*
X179921813Y-75635465D01*
X180017207Y-75941594D01*
X180148808Y-76233998D01*
X180314696Y-76508412D01*
X180512443Y-76760816D01*
X180739183Y-76987556D01*
X180991587Y-77185303D01*
X180991592Y-77185306D01*
X181266000Y-77351191D01*
X181558402Y-77482791D01*
X181558404Y-77482791D01*
X181558405Y-77482792D01*
X181864534Y-77578186D01*
X182179932Y-77635985D01*
X182214473Y-77638074D01*
X182500000Y-77655345D01*
X182801811Y-77637089D01*
X182820067Y-77635985D01*
X182977766Y-77607085D01*
X183135466Y-77578186D01*
X183441598Y-77482791D01*
X183734000Y-77351191D01*
X184008408Y-77185306D01*
X184260819Y-76987554D01*
X184487554Y-76760819D01*
X184685306Y-76508408D01*
X184851191Y-76234000D01*
X184982791Y-75941598D01*
X185078186Y-75635466D01*
X185135985Y-75320066D01*
X185155345Y-75000000D01*
X185135985Y-74679934D01*
X185078186Y-74364534D01*
X184982791Y-74058402D01*
X184851191Y-73766000D01*
X184685306Y-73491592D01*
X184685303Y-73491587D01*
X184487556Y-73239183D01*
X184260816Y-73012443D01*
X184008412Y-72814696D01*
X183733998Y-72648808D01*
X183441594Y-72517207D01*
X183135465Y-72421813D01*
X182820067Y-72364014D01*
X182500000Y-72344655D01*
X182179932Y-72364014D01*
X181864534Y-72421813D01*
X181558405Y-72517207D01*
X181266001Y-72648808D01*
X180991587Y-72814696D01*
X180739183Y-73012443D01*
X180512443Y-73239183D01*
X180314696Y-73491587D01*
X180148808Y-73766001D01*
X180017207Y-74058405D01*
X179921813Y-74364534D01*
X179864014Y-74679932D01*
X179844655Y-75000000D01*
X135155345Y-75000000D01*
X135135985Y-74679934D01*
X135078186Y-74364534D01*
X134982791Y-74058402D01*
X134851191Y-73766000D01*
X134685306Y-73491592D01*
X134685303Y-73491587D01*
X134487556Y-73239183D01*
X134260816Y-73012443D01*
X134008412Y-72814696D01*
X133733998Y-72648808D01*
X133441594Y-72517207D01*
X133135465Y-72421813D01*
X132820067Y-72364014D01*
X132500000Y-72344655D01*
X132179932Y-72364014D01*
X131864534Y-72421813D01*
X131558405Y-72517207D01*
X131266001Y-72648808D01*
X130991587Y-72814696D01*
X130739183Y-73012443D01*
X130512443Y-73239183D01*
X130314696Y-73491587D01*
X130148808Y-73766001D01*
X130017207Y-74058405D01*
X129921813Y-74364534D01*
X129864014Y-74679932D01*
X129844655Y-75000000D01*
X127650500Y-75000000D01*
X127650500Y-72504500D01*
X127650772Y-72495504D01*
X127651699Y-72480186D01*
X127667087Y-72225777D01*
X127669252Y-72207948D01*
X127717149Y-71946581D01*
X127721450Y-71929133D01*
X127800499Y-71675454D01*
X127806872Y-71658650D01*
X127915928Y-71416337D01*
X127924281Y-71400423D01*
X128061740Y-71173037D01*
X128071950Y-71158246D01*
X128235820Y-70949081D01*
X128247736Y-70935630D01*
X128435630Y-70747736D01*
X128449081Y-70735820D01*
X128658246Y-70571950D01*
X128673037Y-70561740D01*
X128900423Y-70424281D01*
X128916337Y-70415928D01*
X129158650Y-70306872D01*
X129175454Y-70300499D01*
X129429133Y-70221450D01*
X129446581Y-70217149D01*
X129707948Y-70169252D01*
X129725777Y-70167087D01*
X129986098Y-70151340D01*
X129995504Y-70150772D01*
X130004500Y-70150500D01*
X130034351Y-70150500D01*
X184965649Y-70150500D01*
X184995500Y-70150500D01*
X185004496Y-70150772D01*
G37*
%TD.AperFunction*%
%TD*%
M02*
